Araya-700.ufo
<glyph name="ampersand" format="1">
  <advance width="736"/>
  <unicode hex="0026"/>
  <note>
	ampersand
  </note>
  <outline>
    <contour>
      <point x="397" y="-16"/>
      <point x="454" y="-5"/>
      <point x="498" y="11" type="curve"/>
      <point x="508" y="26"/>
      <point x="515" y="43"/>
      <point x="521" y="63" type="curve"/>
      <point x="529" y="63" type="line"/>
      <point x="593" y="-9" type="line"/>
      <point x="696" y="64" type="line"/>
      <point x="573" y="181" type="line"/>
      <point x="588" y="225"/>
      <point x="593" y="244"/>
      <point x="606" y="311" type="curve"/>
      <point x="462" y="340" type="line"/>
      <point x="458" y="306"/>
      <point x="457" y="296"/>
      <point x="449" y="267" type="curve"/>
      <point x="321" y="382" type="line" smooth="yes"/>
      <point x="295" y="406"/>
      <point x="287" y="416"/>
      <point x="287" y="438" type="curve" smooth="yes"/>
      <point x="287" y="457"/>
      <point x="300" y="469"/>
      <point x="340" y="469" type="curve" smooth="yes"/>
      <point x="364" y="469"/>
      <point x="380" y="467"/>
      <point x="395" y="463" type="curve"/>
      <point x="405" y="404" type="line"/>
      <point x="530" y="404" type="line"/>
      <point x="538" y="424"/>
      <point x="543" y="478"/>
      <point x="543" y="501" type="curve" smooth="yes"/>
      <point x="543" y="538" type="line"/>
      <point x="511" y="571"/>
      <point x="443" y="606"/>
      <point x="346" y="606" type="curve" smooth="yes"/>
      <point x="221" y="606"/>
      <point x="137" y="561"/>
      <point x="137" y="451" type="curve" smooth="yes"/>
      <point x="137" y="406"/>
      <point x="154" y="378"/>
      <point x="190" y="344" type="curve"/>
      <point x="190" y="336" type="line"/>
      <point x="105" y="305"/>
      <point x="58" y="255"/>
      <point x="58" y="164" type="curve" smooth="yes"/>
      <point x="58" y="49"/>
      <point x="134" y="-16"/>
      <point x="310" y="-16" type="curve" smooth="yes"/>
    </contour>
    <contour>
      <point x="236" y="118"/>
      <point x="206" y="136"/>
      <point x="206" y="175" type="curve" smooth="yes"/>
      <point x="206" y="211"/>
      <point x="225" y="231"/>
      <point x="268" y="248" type="curve"/>
      <point x="391" y="135" type="line"/>
      <point x="391" y="129"/>
      <point x="390" y="127"/>
      <point x="388" y="122" type="curve"/>
      <point x="363" y="119"/>
      <point x="345" y="118"/>
      <point x="312" y="118" type="curve" smooth="yes"/>
    </contour>
  </outline>
</glyph>
<glyph name="quotesingle" format="1">
  <advance width="269"/>
  <unicode hex="0027"/>
  <note>
	quotesingle
  </note>
  <outline>
    <contour>
      <point x="188" y="413" type="line"/>
      <point x="198" y="544" type="line" smooth="yes"/>
      <point x="199" y="567"/>
      <point x="199" y="590"/>
      <point x="195" y="616" type="curve"/>
      <point x="74" y="616" type="line"/>
      <point x="70" y="590"/>
      <point x="70" y="567"/>
      <point x="71" y="544" type="curve" smooth="yes"/>
      <point x="81" y="413" type="line"/>
    </contour>
  </outline>
</glyph>
<glyph name="parenleft" format="1">
  <advance width="353"/>
  <unicode hex="0028"/>
  <note>
	parenleft
  </note>
  <outline>
    <contour>
      <point x="229" y="-99"/>
      <point x="271" y="-91"/>
      <point x="291" y="-81" type="curve"/>
      <point x="291" y="31" type="line"/>
      <point x="213" y="31" type="line"/>
      <point x="213" y="585" type="line"/>
      <point x="291" y="585" type="line"/>
      <point x="291" y="697" type="line"/>
      <point x="271" y="707"/>
      <point x="229" y="715"/>
      <point x="185" y="713" type="curve"/>
      <point x="131" y="699"/>
      <point x="76" y="665"/>
      <point x="65" y="620" type="curve"/>
      <point x="65" y="-4" type="line"/>
      <point x="76" y="-49"/>
      <point x="131" y="-83"/>
      <point x="185" y="-97" type="curve"/>
    </contour>
  </outline>
</glyph>
<glyph name="parenright" format="1">
  <advance width="353"/>
  <unicode hex="0029"/>
  <note>
	parenright
  </note>
  <outline>
    <contour>
      <point x="222" y="-83"/>
      <point x="277" y="-49"/>
      <point x="288" y="-4" type="curve"/>
      <point x="288" y="620" type="line"/>
      <point x="277" y="665"/>
      <point x="222" y="699"/>
      <point x="168" y="713" type="curve"/>
      <point x="124" y="715"/>
      <point x="82" y="707"/>
      <point x="62" y="697" type="curve"/>
      <point x="62" y="585" type="line"/>
      <point x="140" y="585" type="line"/>
      <point x="140" y="31" type="line"/>
      <point x="62" y="31" type="line"/>
      <point x="62" y="-81" type="line"/>
      <point x="82" y="-91"/>
      <point x="124" y="-99"/>
      <point x="168" y="-97" type="curve"/>
    </contour>
  </outline>
</glyph>
<glyph name="plus" format="1">
  <advance width="584"/>
  <unicode hex="002B"/>
  <note>
	plus
  </note>
  <outline>
    <contour>
      <point x="366" y="82" type="line"/>
      <point x="366" y="238" type="line"/>
      <point x="544" y="238" type="line"/>
      <point x="544" y="372" type="line"/>
      <point x="366" y="372" type="line"/>
      <point x="366" y="516" type="line"/>
      <point x="218" y="516" type="line"/>
      <point x="218" y="372" type="line"/>
      <point x="40" y="372" type="line"/>
      <point x="40" y="238" type="line"/>
      <point x="218" y="238" type="line"/>
      <point x="218" y="82" type="line"/>
    </contour>
  </outline>
</glyph>
<glyph name="comma" format="1">
  <advance width="280"/>
  <unicode hex="002C"/>
  <note>
	comma
  </note>
  <outline>
    <contour>
      <point x="205" y="-86"/>
      <point x="230" y="-38"/>
      <point x="230" y="8" type="curve" smooth="yes"/>
      <point x="230" y="66"/>
      <point x="200" y="94"/>
      <point x="137" y="94" type="curve" smooth="yes"/>
      <point x="107" y="94"/>
      <point x="74" y="88"/>
      <point x="52" y="80" type="curve"/>
      <point x="52" y="-21" type="line"/>
      <point x="105" y="-21" type="line"/>
      <point x="102" y="-48"/>
      <point x="94" y="-69"/>
      <point x="75" y="-99" type="curve"/>
      <point x="171" y="-120" type="line"/>
    </contour>
  </outline>
</glyph>
<glyph name="period" format="1">
  <advance width="284"/>
  <unicode hex="002E"/>
  <note>
	period
  </note>
  <outline>
    <contour>
      <point x="219" y="0" type="line"/>
      <point x="219" y="141" type="line"/>
      <point x="65" y="141" type="line"/>
      <point x="65" y="0" type="line"/>
    </contour>
  </outline>
</glyph>
<glyph name="two" format="1">
  <advance width="591"/>
  <unicode hex="0032"/>
  <note>
	two
  </note>
  <outline>
    <contour>
      <point x="543" y="0" type="line"/>
      <point x="543" y="54" type="line" smooth="yes"/>
      <point x="543" y="93"/>
      <point x="538" y="144"/>
      <point x="527" y="180" type="curve"/>
      <point x="399" y="180" type="line"/>
      <point x="399" y="127" type="line"/>
      <point x="184" y="127" type="line"/>
      <point x="184" y="131" type="line"/>
      <point x="416" y="217"/>
      <point x="521" y="292"/>
      <point x="521" y="443" type="curve" smooth="yes"/>
      <point x="521" y="559"/>
      <point x="441" y="610"/>
      <point x="297" y="610" type="curve" smooth="yes"/>
      <point x="205" y="610"/>
      <point x="129" y="590"/>
      <point x="63" y="558" type="curve"/>
      <point x="63" y="517" type="line" smooth="yes"/>
      <point x="63" y="472"/>
      <point x="69" y="426"/>
      <point x="80" y="389" type="curve"/>
      <point x="208" y="389" type="line"/>
      <point x="208" y="463" type="line"/>
      <point x="235" y="471"/>
      <point x="258" y="474"/>
      <point x="294" y="474" type="curve" smooth="yes"/>
      <point x="350" y="474"/>
      <point x="371" y="461"/>
      <point x="371" y="428" type="curve" smooth="yes"/>
      <point x="371" y="329"/>
      <point x="246" y="274"/>
      <point x="43" y="191" type="curve"/>
      <point x="43" y="0" type="line"/>
    </contour>
  </outline>
</glyph>
<glyph name="three" format="1">
  <advance width="557"/>
  <unicode hex="0033"/>
  <note>
	three
  </note>
  <outline>
    <contour>
      <point x="417" y="-10"/>
      <point x="503" y="48"/>
      <point x="503" y="158" type="curve" smooth="yes"/>
      <point x="503" y="231"/>
      <point x="477" y="263"/>
      <point x="402" y="292" type="curve"/>
      <point x="402" y="298" type="line"/>
      <point x="467" y="327"/>
      <point x="496" y="367"/>
      <point x="496" y="440" type="curve" smooth="yes"/>
      <point x="496" y="548"/>
      <point x="416" y="610"/>
      <point x="273" y="610" type="curve" smooth="yes"/>
      <point x="184" y="610"/>
      <point x="106" y="593"/>
      <point x="38" y="562" type="curve"/>
      <point x="38" y="526" type="line" smooth="yes"/>
      <point x="38" y="483"/>
      <point x="46" y="438"/>
      <point x="55" y="403" type="curve"/>
      <point x="181" y="403" type="line"/>
      <point x="181" y="463" type="line"/>
      <point x="210" y="470"/>
      <point x="233" y="473"/>
      <point x="267" y="473" type="curve" smooth="yes"/>
      <point x="324" y="473"/>
      <point x="348" y="461"/>
      <point x="348" y="417" type="curve" smooth="yes"/>
      <point x="348" y="379"/>
      <point x="334" y="356"/>
      <point x="277" y="356" type="curve" smooth="yes"/>
      <point x="162" y="356" type="line"/>
      <point x="162" y="226" type="line"/>
      <point x="271" y="226" type="line" smooth="yes"/>
      <point x="332" y="226"/>
      <point x="355" y="214"/>
      <point x="355" y="177" type="curve" smooth="yes"/>
      <point x="355" y="161"/>
      <point x="353" y="150"/>
      <point x="345" y="136" type="curve"/>
      <point x="310" y="130"/>
      <point x="282" y="128"/>
      <point x="229" y="128" type="curve" smooth="yes"/>
      <point x="168" y="128"/>
      <point x="115" y="137"/>
      <point x="60" y="153" type="curve"/>
      <point x="36" y="20" type="line"/>
      <point x="92" y="1"/>
      <point x="163" y="-10"/>
      <point x="235" y="-10" type="curve" smooth="yes"/>
    </contour>
  </outline>
</glyph>
<glyph name="six" format="1">
  <advance width="554"/>
  <unicode hex="0036"/>
  <note>
	six
  </note>
  <outline>
    <contour>
      <point x="465" y="0"/>
      <point x="530" y="103"/>
      <point x="530" y="202" type="curve" smooth="yes"/>
      <point x="530" y="326"/>
      <point x="460" y="387"/>
      <point x="335" y="387" type="curve" smooth="yes"/>
      <point x="298" y="387"/>
      <point x="261" y="381"/>
      <point x="226" y="370" type="curve"/>
      <point x="260" y="429"/>
      <point x="321" y="483"/>
      <point x="415" y="549" type="curve"/>
      <point x="302" y="610" type="line"/>
      <point x="143" y="499"/>
      <point x="44" y="395"/>
      <point x="44" y="232" type="curve" smooth="yes"/>
      <point x="44" y="87"/>
      <point x="127" y="0"/>
      <point x="283" y="0" type="curve" smooth="yes"/>
    </contour>
    <contour>
      <point x="214" y="132"/>
      <point x="192" y="160"/>
      <point x="192" y="232" type="curve" smooth="yes"/>
      <point x="192" y="237"/>
      <point x="192" y="242"/>
      <point x="192" y="247" type="curve"/>
      <point x="228" y="261"/>
      <point x="261" y="265"/>
      <point x="297" y="265" type="curve" smooth="yes"/>
      <point x="355" y="265"/>
      <point x="381" y="246"/>
      <point x="381" y="197" type="curve" smooth="yes"/>
      <point x="381" y="177"/>
      <point x="379" y="161"/>
      <point x="371" y="142" type="curve"/>
      <point x="343" y="134"/>
      <point x="326" y="132"/>
      <point x="288" y="132" type="curve" smooth="yes"/>
    </contour>
  </outline>
</glyph>
<glyph name="nine" format="1">
  <advance width="554"/>
  <unicode hex="0039"/>
  <note>
	nine
  </note>
  <outline>
    <contour>
      <point x="411" y="111"/>
      <point x="510" y="215"/>
      <point x="510" y="378" type="curve" smooth="yes"/>
      <point x="510" y="523"/>
      <point x="432" y="610"/>
      <point x="276" y="610" type="curve" smooth="yes"/>
      <point x="98" y="610"/>
      <point x="24" y="502"/>
      <point x="24" y="388" type="curve" smooth="yes"/>
      <point x="24" y="258"/>
      <point x="98" y="183"/>
      <point x="223" y="183" type="curve" smooth="yes"/>
      <point x="246" y="183"/>
      <point x="269" y="185"/>
      <point x="291" y="189" type="curve"/>
      <point x="255" y="148"/>
      <point x="205" y="107"/>
      <point x="139" y="61" type="curve"/>
      <point x="252" y="0" type="line"/>
    </contour>
    <contour>
      <point x="193" y="305"/>
      <point x="173" y="339"/>
      <point x="173" y="393" type="curve" smooth="yes"/>
      <point x="173" y="419"/>
      <point x="176" y="445"/>
      <point x="185" y="468" type="curve"/>
      <point x="213" y="475"/>
      <point x="232" y="478"/>
      <point x="266" y="478" type="curve" smooth="yes"/>
      <point x="340" y="478"/>
      <point x="362" y="450"/>
      <point x="362" y="378" type="curve" smooth="yes"/>
      <point x="362" y="358"/>
      <point x="360" y="339"/>
      <point x="357" y="321" type="curve"/>
      <point x="323" y="308"/>
      <point x="291" y="305"/>
      <point x="257" y="305" type="curve" smooth="yes"/>
    </contour>
  </outline>
</glyph>
<glyph name="colon" format="1">
  <advance width="284"/>
  <unicode hex="003A"/>
  <note>
	colon
  </note>
  <outline>
    <contour>
      <point x="219" y="298" type="line"/>
      <point x="219" y="439" type="line"/>
      <point x="65" y="439" type="line"/>
      <point x="65" y="298" type="line"/>
    </contour>
    <contour>
      <point x="219" y="0" type="line"/>
      <point x="219" y="141" type="line"/>
      <point x="65" y="141" type="line"/>
      <point x="65" y="0" type="line"/>
    </contour>
  </outline>
</glyph>
<glyph name="less" format="1">
  <advance width="621"/>
  <unicode hex="003C"/>
  <note>
	less
  </note>
  <outline>
    <contour>
      <point x="556" y="173" type="line"/>
      <point x="221" y="260" type="line"/>
      <point x="221" y="266" type="line"/>
      <point x="556" y="353" type="line"/>
      <point x="506" y="500" type="line"/>
      <point x="45" y="332" type="line"/>
      <point x="45" y="194" type="line"/>
      <point x="506" y="26" type="line"/>
    </contour>
  </outline>
</glyph>
<glyph name="greater" format="1">
  <advance width="621"/>
  <unicode hex="003E"/>
  <note>
	greater
  </note>
  <outline>
    <contour>
      <point x="576" y="194" type="line"/>
      <point x="576" y="332" type="line"/>
      <point x="115" y="500" type="line"/>
      <point x="65" y="353" type="line"/>
      <point x="400" y="266" type="line"/>
      <point x="400" y="260" type="line"/>
      <point x="65" y="173" type="line"/>
      <point x="115" y="26" type="line"/>
    </contour>
  </outline>
</glyph>
<glyph name="question" format="1">
  <advance width="567"/>
  <unicode hex="003F"/>
  <note>
	question
  </note>
  <outline>
    <contour>
      <point x="329" y="161" type="line"/>
      <point x="329" y="216" type="line" smooth="yes"/>
      <point x="329" y="237"/>
      <point x="330" y="248"/>
      <point x="344" y="257" type="curve" smooth="yes"/>
      <point x="445" y="323" type="line"/>
      <point x="498" y="363"/>
      <point x="513" y="401"/>
      <point x="513" y="463" type="curve" smooth="yes"/>
      <point x="513" y="570"/>
      <point x="433" y="631"/>
      <point x="283" y="631" type="curve" smooth="yes"/>
      <point x="186" y="631"/>
      <point x="106" y="604"/>
      <point x="50" y="574" type="curve"/>
      <point x="50" y="553" type="line" smooth="yes"/>
      <point x="50" y="514"/>
      <point x="55" y="466"/>
      <point x="64" y="432" type="curve"/>
      <point x="191" y="432" type="line"/>
      <point x="191" y="479" type="line"/>
      <point x="221" y="488"/>
      <point x="241" y="491"/>
      <point x="281" y="491" type="curve" smooth="yes"/>
      <point x="335" y="491"/>
      <point x="365" y="486"/>
      <point x="365" y="446" type="curve" smooth="yes"/>
      <point x="365" y="421" type="line"/>
      <point x="212" y="315" type="line" smooth="yes"/>
      <point x="188" y="298"/>
      <point x="180" y="283"/>
      <point x="180" y="253" type="curve" smooth="yes"/>
      <point x="180" y="161" type="line"/>
    </contour>
    <contour>
      <point x="333" y="0" type="line"/>
      <point x="333" y="121" type="line"/>
      <point x="179" y="121" type="line"/>
      <point x="179" y="0" type="line"/>
    </contour>
  </outline>
</glyph>
<glyph name="at" format="1">
  <advance width="806"/>
  <unicode hex="0040"/>
  <note>
	at
  </note>
  <outline>
    <contour>
      <point x="529" y="-59"/>
      <point x="635" y="-33"/>
      <point x="697" y="8" type="curve"/>
      <point x="658" y="101" type="line"/>
      <point x="602" y="68"/>
      <point x="524" y="46"/>
      <point x="414" y="46" type="curve" smooth="yes"/>
      <point x="259" y="46"/>
      <point x="170" y="106"/>
      <point x="170" y="263" type="curve" smooth="yes"/>
      <point x="170" y="414"/>
      <point x="263" y="506"/>
      <point x="419" y="506" type="curve" smooth="yes"/>
      <point x="574" y="506"/>
      <point x="640" y="433"/>
      <point x="640" y="325" type="curve" smooth="yes"/>
      <point x="640" y="276"/>
      <point x="633" y="246"/>
      <point x="621" y="215" type="curve"/>
      <point x="608" y="211"/>
      <point x="596" y="210"/>
      <point x="581" y="210" type="curve" smooth="yes"/>
      <point x="564" y="210"/>
      <point x="555" y="212"/>
      <point x="541" y="216" type="curve"/>
      <point x="576" y="411" type="line"/>
      <point x="496" y="423" type="line"/>
      <point x="482" y="391" type="line"/>
      <point x="478" y="391" type="line"/>
      <point x="462" y="415"/>
      <point x="438" y="435"/>
      <point x="393" y="435" type="curve" smooth="yes"/>
      <point x="279" y="435"/>
      <point x="228" y="354"/>
      <point x="228" y="250" type="curve" smooth="yes"/>
      <point x="228" y="165"/>
      <point x="277" y="112"/>
      <point x="349" y="112" type="curve" smooth="yes"/>
      <point x="409" y="112"/>
      <point x="437" y="129"/>
      <point x="467" y="159" type="curve"/>
      <point x="473" y="159" type="line"/>
      <point x="499" y="126"/>
      <point x="524" y="110"/>
      <point x="572" y="110" type="curve" smooth="yes"/>
      <point x="702" y="110"/>
      <point x="754" y="212"/>
      <point x="754" y="331" type="curve" smooth="yes"/>
      <point x="754" y="494"/>
      <point x="640" y="611"/>
      <point x="424" y="611" type="curve" smooth="yes"/>
      <point x="189" y="611"/>
      <point x="55" y="469"/>
      <point x="55" y="263" type="curve" smooth="yes"/>
      <point x="55" y="57"/>
      <point x="167" y="-59"/>
      <point x="411" y="-59" type="curve" smooth="yes"/>
    </contour>
    <contour>
      <point x="365" y="212"/>
      <point x="357" y="223"/>
      <point x="357" y="243" type="curve" smooth="yes"/>
      <point x="357" y="303"/>
      <point x="377" y="331"/>
      <point x="414" y="331" type="curve" smooth="yes"/>
      <point x="427" y="331"/>
      <point x="434" y="329"/>
      <point x="442" y="321" type="curve"/>
      <point x="425" y="226" type="line"/>
      <point x="412" y="216"/>
      <point x="402" y="212"/>
      <point x="385" y="212" type="curve" smooth="yes"/>
    </contour>
  </outline>
</glyph>
<glyph name="F" format="1">
  <advance width="551"/>
  <unicode hex="0046"/>
  <note>
	F
  </note>
  <outline>
    <contour>
      <point x="215" y="0" type="line"/>
      <point x="215" y="229" type="line"/>
      <point x="480" y="229" type="line"/>
      <point x="480" y="364" type="line"/>
      <point x="215" y="364" type="line"/>
      <point x="215" y="481" type="line"/>
      <point x="531" y="481" type="line"/>
      <point x="531" y="620" type="line"/>
      <point x="65" y="620" type="line"/>
      <point x="65" y="0" type="line"/>
    </contour>
  </outline>
</glyph>
<glyph name="H" format="1">
  <advance width="646"/>
  <unicode hex="0048"/>
  <note>
	H
  </note>
  <outline>
    <contour>
      <point x="215" y="0" type="line"/>
      <point x="215" y="230" type="line"/>
      <point x="431" y="230" type="line"/>
      <point x="431" y="0" type="line"/>
      <point x="581" y="0" type="line"/>
      <point x="581" y="620" type="line"/>
      <point x="431" y="620" type="line"/>
      <point x="431" y="370" type="line"/>
      <point x="215" y="370" type="line"/>
      <point x="215" y="620" type="line"/>
      <point x="65" y="620" type="line"/>
      <point x="65" y="0" type="line"/>
    </contour>
  </outline>
</glyph>
<glyph name="L" format="1">
  <advance width="502"/>
  <unicode hex="004C"/>
  <note>
	L
  </note>
  <outline>
    <contour>
      <point x="488" y="0" type="line"/>
      <point x="488" y="140" type="line"/>
      <point x="215" y="140" type="line"/>
      <point x="215" y="620" type="line"/>
      <point x="65" y="620" type="line"/>
      <point x="65" y="0" type="line"/>
    </contour>
  </outline>
</glyph>
<glyph name="M" format="1">
  <advance width="740"/>
  <unicode hex="004D"/>
  <note>
	M
  </note>
  <outline>
    <contour>
      <point x="209" y="0" type="line"/>
      <point x="220" y="300" type="line"/>
      <point x="216" y="467" type="line"/>
      <point x="225" y="469" type="line"/>
      <point x="314" y="149" type="line"/>
      <point x="426" y="149" type="line"/>
      <point x="515" y="469" type="line"/>
      <point x="524" y="467" type="line"/>
      <point x="520" y="300" type="line"/>
      <point x="531" y="0" type="line"/>
      <point x="682" y="0" type="line"/>
      <point x="658" y="620" type="line"/>
      <point x="449" y="620" type="line"/>
      <point x="373" y="300" type="line"/>
      <point x="367" y="300" type="line"/>
      <point x="291" y="620" type="line"/>
      <point x="82" y="620" type="line"/>
      <point x="58" y="0" type="line"/>
    </contour>
  </outline>
</glyph>
<glyph name="Q" format="1">
  <advance width="667"/>
  <unicode hex="0051"/>
  <note>
	Q
  </note>
  <outline>
    <contour>
      <point x="480" y="-146"/>
      <point x="550" y="-143"/>
      <point x="595" y="-130" type="curve"/>
      <point x="580" y="-16" type="line"/>
      <point x="535" y="-26"/>
      <point x="467" y="-29"/>
      <point x="423" y="-29" type="curve" smooth="yes"/>
      <point x="397" y="-29"/>
      <point x="379" y="-28"/>
      <point x="359" y="-25" type="curve"/>
      <point x="359" y="8" type="line"/>
      <point x="367" y="8"/>
      <point x="379" y="9"/>
      <point x="396" y="12" type="curve" smooth="yes"/>
      <point x="534" y="37"/>
      <point x="623" y="139"/>
      <point x="623" y="328" type="curve" smooth="yes"/>
      <point x="623" y="529"/>
      <point x="533" y="630"/>
      <point x="348" y="630" type="curve" smooth="yes"/>
      <point x="153" y="630"/>
      <point x="42" y="512"/>
      <point x="42" y="299" type="curve" smooth="yes"/>
      <point x="42" y="122"/>
      <point x="111" y="30"/>
      <point x="253" y="9" type="curve"/>
      <point x="227" y="-62" type="line"/>
      <point x="227" y="-122" type="line"/>
      <point x="255" y="-135"/>
      <point x="372" y="-146"/>
      <point x="424" y="-146" type="curve" smooth="yes"/>
    </contour>
    <contour>
      <point x="218" y="143"/>
      <point x="190" y="198"/>
      <point x="190" y="314" type="curve" smooth="yes"/>
      <point x="190" y="374"/>
      <point x="198" y="424"/>
      <point x="218" y="474" type="curve"/>
      <point x="248" y="486"/>
      <point x="280" y="492"/>
      <point x="327" y="492" type="curve" smooth="yes"/>
      <point x="451" y="492"/>
      <point x="475" y="434"/>
      <point x="475" y="313" type="curve" smooth="yes"/>
      <point x="475" y="256"/>
      <point x="467" y="209"/>
      <point x="447" y="161" type="curve"/>
      <point x="417" y="149"/>
      <point x="385" y="143"/>
      <point x="338" y="143" type="curve" smooth="yes"/>
    </contour>
  </outline>
</glyph>
<glyph name="V" format="1">
  <advance width="644"/>
  <unicode hex="0056"/>
  <note>
	V
  </note>
  <outline>
    <contour>
      <point x="413" y="0" type="line"/>
      <point x="490" y="172"/>
      <point x="571" y="422"/>
      <point x="620" y="621" type="curve"/>
      <point x="469" y="628" type="line"/>
      <point x="432" y="469"/>
      <point x="374" y="274"/>
      <point x="326" y="144" type="curve"/>
      <point x="316" y="144" type="line"/>
      <point x="269" y="274"/>
      <point x="211" y="469"/>
      <point x="174" y="628" type="curve"/>
      <point x="24" y="621" type="line"/>
      <point x="73" y="422"/>
      <point x="154" y="172"/>
      <point x="231" y="0" type="curve"/>
    </contour>
  </outline>
</glyph>
<glyph name="X" format="1">
  <advance width="659"/>
  <unicode hex="0058"/>
  <note>
	X
  </note>
  <outline>
    <contour>
      <point x="228" y="92"/>
      <point x="268" y="160"/>
      <point x="321" y="238" type="curve"/>
      <point x="338" y="238" type="line"/>
      <point x="388" y="159"/>
      <point x="431" y="92"/>
      <point x="474" y="-8" type="curve"/>
      <point x="627" y="19" type="line"/>
      <point x="579" y="123"/>
      <point x="509" y="222"/>
      <point x="439" y="306" type="curve"/>
      <point x="510" y="390"/>
      <point x="579" y="489"/>
      <point x="627" y="593" type="curve"/>
      <point x="474" y="620" type="line"/>
      <point x="431" y="520"/>
      <point x="391" y="450"/>
      <point x="338" y="377" type="curve"/>
      <point x="319" y="377" type="line"/>
      <point x="270" y="453"/>
      <point x="227" y="521"/>
      <point x="185" y="620" type="curve"/>
      <point x="32" y="593" type="line"/>
      <point x="80" y="489"/>
      <point x="149" y="390"/>
      <point x="220" y="306" type="curve"/>
      <point x="150" y="222"/>
      <point x="80" y="123"/>
      <point x="32" y="19" type="curve"/>
      <point x="185" y="-8" type="line"/>
    </contour>
  </outline>
</glyph>
<glyph name="bracketleft" format="1">
  <advance width="339"/>
  <unicode hex="005B"/>
  <note>
	bracketleft
  </note>
  <outline>
    <contour>
      <point x="277" y="-85" type="line"/>
      <point x="277" y="55" type="line"/>
      <point x="213" y="55" type="line"/>
      <point x="213" y="567" type="line"/>
      <point x="277" y="567" type="line"/>
      <point x="277" y="707" type="line"/>
      <point x="65" y="707" type="line"/>
      <point x="65" y="-85" type="line"/>
    </contour>
  </outline>
</glyph>
<glyph name="backslash" format="1">
  <advance width="466"/>
  <unicode hex="005C"/>
  <note>
	backslash
  </note>
  <outline>
    <contour>
      <point x="418" y="6" type="line"/>
      <point x="176" y="643" type="line"/>
      <point x="48" y="612" type="line"/>
      <point x="291" y="-28" type="line"/>
    </contour>
  </outline>
</glyph>
<glyph name="underscore" format="1">
  <advance width="605"/>
  <unicode hex="005F"/>
  <note>
	underscore
  </note>
  <outline>
    <contour>
      <point x="555" y="-120" type="line"/>
      <point x="555" y="0" type="line"/>
      <point x="50" y="0" type="line"/>
      <point x="50" y="-120" type="line"/>
    </contour>
  </outline>
</glyph>
<glyph name="b" format="1">
  <advance width="578"/>
  <unicode hex="0062"/>
  <note>
	b
  </note>
  <outline>
    <contour>
      <point x="442" y="-8"/>
      <point x="538" y="79"/>
      <point x="538" y="247" type="curve" smooth="yes"/>
      <point x="538" y="376"/>
      <point x="490" y="482"/>
      <point x="358" y="482" type="curve" smooth="yes"/>
      <point x="291" y="482"/>
      <point x="247" y="452"/>
      <point x="211" y="407" type="curve"/>
      <point x="205" y="407" type="line"/>
      <point x="214" y="499" type="line"/>
      <point x="214" y="671" type="line"/>
      <point x="64" y="671" type="line"/>
      <point x="64" y="20" type="line"/>
      <point x="116" y="4"/>
      <point x="186" y="-8"/>
      <point x="268" y="-8" type="curve" smooth="yes"/>
    </contour>
    <contour>
      <point x="260" y="130"/>
      <point x="234" y="133"/>
      <point x="214" y="138" type="curve"/>
      <point x="214" y="313" type="line"/>
      <point x="243" y="335"/>
      <point x="267" y="342"/>
      <point x="310" y="342" type="curve" smooth="yes"/>
      <point x="354" y="342"/>
      <point x="384" y="311"/>
      <point x="384" y="244" type="curve" smooth="yes"/>
      <point x="384" y="162"/>
      <point x="356" y="130"/>
      <point x="290" y="130" type="curve" smooth="yes"/>
    </contour>
  </outline>
</glyph>
<glyph name="i" format="1">
  <advance width="276"/>
  <unicode hex="0069"/>
  <note>
	i
  </note>
  <outline>
    <contour>
      <point x="212" y="0" type="line"/>
      <point x="212" y="472" type="line"/>
      <point x="64" y="472" type="line"/>
      <point x="64" y="0" type="line"/>
    </contour>
    <contour>
      <point x="213" y="537" type="line"/>
      <point x="213" y="671" type="line"/>
      <point x="63" y="671" type="line"/>
      <point x="63" y="537" type="line"/>
    </contour>
  </outline>
</glyph>
<glyph name="j" format="1">
  <advance width="340"/>
  <unicode hex="006A"/>
  <note>
	j
  </note>
  <outline>
    <contour>
      <point x="237" y="-198"/>
      <point x="279" y="-116"/>
      <point x="279" y="-7" type="curve" smooth="yes"/>
      <point x="279" y="472" type="line"/>
      <point x="131" y="472" type="line"/>
      <point x="131" y="6" type="line" smooth="yes"/>
      <point x="131" y="-16"/>
      <point x="129" y="-36"/>
      <point x="123" y="-51" type="curve"/>
      <point x="107" y="-56"/>
      <point x="92" y="-58"/>
      <point x="72" y="-58" type="curve" smooth="yes"/>
      <point x="46" y="-58"/>
      <point x="26" y="-53"/>
      <point x="-5" y="-42" type="curve"/>
      <point x="-44" y="-169" type="line"/>
      <point x="-6" y="-185"/>
      <point x="49" y="-198"/>
      <point x="93" y="-198" type="curve" smooth="yes"/>
    </contour>
    <contour>
      <point x="280" y="537" type="line"/>
      <point x="280" y="671" type="line"/>
      <point x="130" y="671" type="line"/>
      <point x="130" y="537" type="line"/>
    </contour>
  </outline>
</glyph>
<glyph name="k" format="1">
  <advance width="549"/>
  <unicode hex="006B"/>
  <note>
	k
  </note>
  <outline>
    <contour>
      <point x="479" y="-5"/>
      <point x="506" y="-1"/>
      <point x="524" y="5" type="curve"/>
      <point x="524" y="71" type="line"/>
      <point x="482" y="82" type="line"/>
      <point x="443" y="158" type="line"/>
      <point x="412" y="211"/>
      <point x="392" y="228"/>
      <point x="331" y="242" type="curve"/>
      <point x="331" y="248" type="line"/>
      <point x="398" y="264"/>
      <point x="427" y="284"/>
      <point x="447" y="330" type="curve" smooth="yes"/>
      <point x="492" y="434" type="line"/>
      <point x="353" y="482" type="line"/>
      <point x="300" y="353" type="line" smooth="yes"/>
      <point x="284" y="315"/>
      <point x="270" y="307"/>
      <point x="229" y="307" type="curve" smooth="yes"/>
      <point x="208" y="307" type="line"/>
      <point x="208" y="671" type="line"/>
      <point x="60" y="671" type="line"/>
      <point x="60" y="0" type="line"/>
      <point x="208" y="0" type="line"/>
      <point x="208" y="184" type="line"/>
      <point x="234" y="184" type="line" smooth="yes"/>
      <point x="275" y="184"/>
      <point x="292" y="174"/>
      <point x="312" y="129" type="curve" smooth="yes"/>
      <point x="344" y="57" type="line" smooth="yes"/>
      <point x="363" y="15"/>
      <point x="387" y="-5"/>
      <point x="445" y="-5" type="curve" smooth="yes"/>
    </contour>
  </outline>
</glyph>
<glyph name="p" format="1">
  <advance width="573"/>
  <unicode hex="0070"/>
  <note>
	p
  </note>
  <outline>
    <contour>
      <point x="212" y="-187" type="line"/>
      <point x="212" y="-29" type="line"/>
      <point x="208" y="45" type="line"/>
      <point x="214" y="45" type="line"/>
      <point x="251" y="7"/>
      <point x="289" y="-8"/>
      <point x="347" y="-8" type="curve" smooth="yes"/>
      <point x="482" y="-8"/>
      <point x="533" y="104"/>
      <point x="533" y="235" type="curve" smooth="yes"/>
      <point x="533" y="386"/>
      <point x="490" y="482"/>
      <point x="362" y="482" type="curve" smooth="yes"/>
      <point x="290" y="482"/>
      <point x="247" y="450"/>
      <point x="215" y="408" type="curve"/>
      <point x="207" y="408" type="line"/>
      <point x="203" y="472" type="line"/>
      <point x="64" y="472" type="line"/>
      <point x="64" y="-187" type="line"/>
    </contour>
    <contour>
      <point x="268" y="122"/>
      <point x="244" y="129"/>
      <point x="212" y="153" type="curve"/>
      <point x="212" y="311" type="line"/>
      <point x="232" y="335"/>
      <point x="256" y="348"/>
      <point x="300" y="348" type="curve" smooth="yes"/>
      <point x="369" y="348"/>
      <point x="385" y="303"/>
      <point x="385" y="238" type="curve" smooth="yes"/>
      <point x="385" y="165"/>
      <point x="371" y="122"/>
      <point x="306" y="122" type="curve" smooth="yes"/>
    </contour>
  </outline>
</glyph>
<glyph name="q" format="1">
  <advance width="583"/>
  <unicode hex="0071"/>
  <note>
	q
  </note>
  <outline>
    <contour>
      <point x="514" y="-205" type="line"/>
      <point x="514" y="454" type="line"/>
      <point x="462" y="470"/>
      <point x="396" y="483"/>
      <point x="310" y="483" type="curve" smooth="yes"/>
      <point x="136" y="483"/>
      <point x="40" y="391"/>
      <point x="40" y="223" type="curve" smooth="yes"/>
      <point x="40" y="94"/>
      <point x="88" y="-8"/>
      <point x="220" y="-8" type="curve" smooth="yes"/>
      <point x="287" y="-8"/>
      <point x="331" y="22"/>
      <point x="367" y="67" type="curve"/>
      <point x="373" y="67" type="line"/>
      <point x="364" y="-25" type="line"/>
      <point x="364" y="-205" type="line"/>
    </contour>
    <contour>
      <point x="224" y="132"/>
      <point x="194" y="159"/>
      <point x="194" y="226" type="curve" smooth="yes"/>
      <point x="194" y="308"/>
      <point x="222" y="345"/>
      <point x="288" y="345" type="curve" smooth="yes"/>
      <point x="318" y="345"/>
      <point x="344" y="342"/>
      <point x="364" y="337" type="curve"/>
      <point x="364" y="161" type="line"/>
      <point x="335" y="139"/>
      <point x="311" y="132"/>
      <point x="268" y="132" type="curve" smooth="yes"/>
    </contour>
  </outline>
</glyph>
<glyph name="v" format="1">
  <advance width="501"/>
  <unicode hex="0076"/>
  <note>
	v
  </note>
  <outline>
    <contour>
      <point x="331" y="0" type="line"/>
      <point x="399" y="160"/>
      <point x="449" y="311"/>
      <point x="485" y="467" type="curve"/>
      <point x="347" y="474" type="line"/>
      <point x="321" y="356"/>
      <point x="287" y="236"/>
      <point x="252" y="135" type="curve"/>
      <point x="248" y="135" type="line"/>
      <point x="214" y="236"/>
      <point x="180" y="356"/>
      <point x="154" y="474" type="curve"/>
      <point x="16" y="467" type="line"/>
      <point x="52" y="311"/>
      <point x="101" y="160"/>
      <point x="170" y="0" type="curve"/>
    </contour>
  </outline>
</glyph>
<glyph name="y" format="1">
  <advance width="580"/>
  <unicode hex="0079"/>
  <note>
	y
  </note>
  <outline>
    <contour>
      <point x="239" y="-197"/>
      <point x="333" y="-165"/>
      <point x="356" y="-112" type="curve" smooth="yes"/>
      <point x="422" y="38"/>
      <point x="489" y="251"/>
      <point x="543" y="472" type="curve"/>
      <point x="388" y="479" type="line"/>
      <point x="362" y="363"/>
      <point x="336" y="257"/>
      <point x="309" y="161" type="curve"/>
      <point x="289" y="161" type="line"/>
      <point x="254" y="256"/>
      <point x="222" y="366"/>
      <point x="194" y="479" type="curve"/>
      <point x="37" y="472" type="line"/>
      <point x="77" y="316"/>
      <point x="131" y="182"/>
      <point x="204" y="21" type="curve"/>
      <point x="265" y="21" type="line"/>
      <point x="255" y="-9"/>
      <point x="244" y="-39"/>
      <point x="233" y="-67" type="curve"/>
      <point x="220" y="-70"/>
      <point x="207" y="-71"/>
      <point x="194" y="-71" type="curve" smooth="yes"/>
      <point x="184" y="-71"/>
      <point x="178" y="-70"/>
      <point x="169" y="-68" type="curve"/>
      <point x="169" y="-29" type="line"/>
      <point x="60" y="-29" type="line"/>
      <point x="52" y="-67"/>
      <point x="50" y="-110"/>
      <point x="50" y="-141" type="curve" smooth="yes"/>
      <point x="50" y="-172" type="line"/>
      <point x="87" y="-189"/>
      <point x="131" y="-197"/>
      <point x="182" y="-197" type="curve" smooth="yes"/>
    </contour>
  </outline>
</glyph>
<glyph name="bar" format="1">
  <advance width="283"/>
  <unicode hex="007C"/>
  <note>
	bar
  </note>
  <outline>
    <contour>
      <point x="211" y="-140" type="line"/>
      <point x="211" y="630" type="line"/>
      <point x="72" y="630" type="line"/>
      <point x="72" y="-140" type="line"/>
    </contour>
  </outline>
</glyph>
<glyph name="sterling" format="1">
  <advance width="597"/>
  <unicode hex="00A3"/>
  <note>
	sterling
  </note>
  <outline>
    <contour>
      <point x="402" y="-7"/>
      <point x="492" y="-3"/>
      <point x="562" y="4" type="curve"/>
      <point x="562" y="137" type="line"/>
      <point x="497" y="131"/>
      <point x="432" y="127"/>
      <point x="367" y="127" type="curve" smooth="yes"/>
      <point x="329" y="127"/>
      <point x="291" y="129"/>
      <point x="253" y="132" type="curve"/>
      <point x="253" y="218" type="line"/>
      <point x="456" y="218" type="line"/>
      <point x="456" y="349" type="line"/>
      <point x="253" y="349" type="line"/>
      <point x="253" y="372" type="line" smooth="yes"/>
      <point x="253" y="406"/>
      <point x="254" y="443"/>
      <point x="262" y="474" type="curve"/>
      <point x="298" y="481"/>
      <point x="319" y="483"/>
      <point x="357" y="483" type="curve" smooth="yes"/>
      <point x="414" y="483"/>
      <point x="451" y="477"/>
      <point x="500" y="464" type="curve"/>
      <point x="533" y="585" type="line"/>
      <point x="481" y="606"/>
      <point x="430" y="620"/>
      <point x="354" y="620" type="curve" smooth="yes"/>
      <point x="201" y="620"/>
      <point x="107" y="557"/>
      <point x="107" y="429" type="curve" smooth="yes"/>
      <point x="107" y="349" type="line"/>
      <point x="43" y="349" type="line"/>
      <point x="43" y="218" type="line"/>
      <point x="107" y="218" type="line"/>
      <point x="107" y="131" type="line"/>
      <point x="40" y="118" type="line"/>
      <point x="40" y="4" type="line"/>
      <point x="116" y="-3"/>
      <point x="214" y="-7"/>
      <point x="312" y="-7" type="curve" smooth="yes"/>
    </contour>
  </outline>
</glyph>
<glyph name="yen" format="1">
  <advance width="671"/>
  <unicode hex="00A5"/>
  <note>
	yen
  </note>
  <outline>
    <contour>
      <point x="410" y="0" type="line"/>
      <point x="410" y="66" type="line"/>
      <point x="523" y="66" type="line"/>
      <point x="523" y="155" type="line"/>
      <point x="410" y="155" type="line"/>
      <point x="410" y="172" type="line"/>
      <point x="523" y="172" type="line"/>
      <point x="523" y="267" type="line"/>
      <point x="486" y="267" type="line"/>
      <point x="547" y="368"/>
      <point x="598" y="474"/>
      <point x="645" y="595" type="curve"/>
      <point x="497" y="625" type="line"/>
      <point x="449" y="493"/>
      <point x="402" y="392"/>
      <point x="347" y="303" type="curve"/>
      <point x="324" y="303" type="line"/>
      <point x="268" y="392"/>
      <point x="222" y="493"/>
      <point x="174" y="625" type="curve"/>
      <point x="26" y="595" type="line"/>
      <point x="73" y="474"/>
      <point x="123" y="368"/>
      <point x="184" y="267" type="curve"/>
      <point x="150" y="267" type="line"/>
      <point x="150" y="172" type="line"/>
      <point x="261" y="172" type="line"/>
      <point x="261" y="155" type="line"/>
      <point x="150" y="155" type="line"/>
      <point x="150" y="66" type="line"/>
      <point x="261" y="66" type="line"/>
      <point x="261" y="0" type="line"/>
    </contour>
  </outline>
</glyph>
<glyph name="brokenbar" format="1">
  <advance width="283"/>
  <unicode hex="00A6"/>
  <note>
	brokenbar
  </note>
  <outline>
    <contour>
      <point x="211" y="304" type="line"/>
      <point x="211" y="630" type="line"/>
      <point x="72" y="630" type="line"/>
      <point x="72" y="304" type="line"/>
    </contour>
    <contour>
      <point x="211" y="-110" type="line"/>
      <point x="211" y="212" type="line"/>
      <point x="72" y="212" type="line"/>
      <point x="72" y="-110" type="line"/>
    </contour>
  </outline>
</glyph>
<glyph name="section" format="1">
  <advance width="599"/>
  <unicode hex="00A7"/>
  <note>
	section
  </note>
  <outline>
    <contour>
      <point x="426" y="-127"/>
      <point x="494" y="-65"/>
      <point x="494" y="27" type="curve" smooth="yes"/>
      <point x="494" y="66"/>
      <point x="483" y="92"/>
      <point x="463" y="112" type="curve"/>
      <point x="463" y="118" type="line"/>
      <point x="521" y="146"/>
      <point x="547" y="189"/>
      <point x="547" y="245" type="curve" smooth="yes"/>
      <point x="547" y="348"/>
      <point x="452" y="385"/>
      <point x="327" y="412" type="curve" smooth="yes"/>
      <point x="242" y="430"/>
      <point x="232" y="447"/>
      <point x="232" y="471" type="curve" smooth="yes"/>
      <point x="232" y="500"/>
      <point x="252" y="514"/>
      <point x="293" y="514" type="curve" smooth="yes"/>
      <point x="315" y="514"/>
      <point x="325" y="513"/>
      <point x="340" y="510" type="curve"/>
      <point x="352" y="446" type="line"/>
      <point x="479" y="446" type="line"/>
      <point x="487" y="467"/>
      <point x="493" y="535"/>
      <point x="493" y="561" type="curve" smooth="yes"/>
      <point x="493" y="579" type="line"/>
      <point x="452" y="604"/>
      <point x="394" y="627"/>
      <point x="306" y="627" type="curve" smooth="yes"/>
      <point x="164" y="627"/>
      <point x="84" y="571"/>
      <point x="84" y="471" type="curve" smooth="yes"/>
      <point x="84" y="429"/>
      <point x="101" y="400"/>
      <point x="130" y="375" type="curve"/>
      <point x="130" y="369" type="line"/>
      <point x="78" y="339"/>
      <point x="52" y="308"/>
      <point x="52" y="246" type="curve" smooth="yes"/>
      <point x="52" y="145"/>
      <point x="144" y="104"/>
      <point x="265" y="75" type="curve" smooth="yes"/>
      <point x="323" y="61"/>
      <point x="346" y="55"/>
      <point x="346" y="31" type="curve" smooth="yes"/>
      <point x="346" y="19"/>
      <point x="345" y="13"/>
      <point x="342" y="1" type="curve"/>
      <point x="319" y="-4"/>
      <point x="309" y="-5"/>
      <point x="276" y="-5" type="curve" smooth="yes"/>
      <point x="223" y="-5"/>
      <point x="175" y="2"/>
      <point x="125" y="19" type="curve"/>
      <point x="88" y="-91" type="line"/>
      <point x="149" y="-116"/>
      <point x="202" y="-127"/>
      <point x="271" y="-127" type="curve" smooth="yes"/>
    </contour>
    <contour>
      <point x="351" y="173"/>
      <point x="331" y="178"/>
      <point x="283" y="191" type="curve" smooth="yes"/>
      <point x="218" y="209"/>
      <point x="201" y="231"/>
      <point x="201" y="260" type="curve" smooth="yes"/>
      <point x="201" y="285"/>
      <point x="206" y="297"/>
      <point x="222" y="314" type="curve"/>
      <point x="253" y="306"/>
      <point x="270" y="304"/>
      <point x="309" y="296" type="curve" smooth="yes"/>
      <point x="393" y="278"/>
      <point x="398" y="258"/>
      <point x="398" y="227" type="curve" smooth="yes"/>
      <point x="398" y="202"/>
      <point x="392" y="187"/>
      <point x="378" y="168" type="curve"/>
    </contour>
  </outline>
</glyph>
<glyph name="copyright" format="1">
  <advance width="736"/>
  <unicode hex="00A9"/>
  <note>
	copyright
  </note>
  <outline>
    <contour>
      <point x="556" y="-4"/>
      <point x="686" y="127"/>
      <point x="686" y="308" type="curve" smooth="yes"/>
      <point x="686" y="489"/>
      <point x="556" y="620"/>
      <point x="368" y="620" type="curve" smooth="yes"/>
      <point x="180" y="620"/>
      <point x="50" y="489"/>
      <point x="50" y="308" type="curve" smooth="yes"/>
      <point x="50" y="127"/>
      <point x="180" y="-4"/>
      <point x="368" y="-4" type="curve" smooth="yes"/>
    </contour>
    <contour>
      <point x="438" y="122"/>
      <point x="486" y="142"/>
      <point x="516" y="170" type="curve"/>
      <point x="482" y="246" type="line"/>
      <point x="455" y="229"/>
      <point x="421" y="216"/>
      <point x="374" y="216" type="curve" smooth="yes"/>
      <point x="318" y="216"/>
      <point x="296" y="238"/>
      <point x="296" y="298" type="curve" smooth="yes"/>
      <point x="296" y="340"/>
      <point x="300" y="361"/>
      <point x="313" y="387" type="curve"/>
      <point x="330" y="391"/>
      <point x="338" y="392"/>
      <point x="356" y="392" type="curve" smooth="yes"/>
      <point x="375" y="392"/>
      <point x="384" y="391"/>
      <point x="397" y="387" type="curve"/>
      <point x="403" y="352" type="line"/>
      <point x="488" y="352" type="line"/>
      <point x="497" y="376"/>
      <point x="504" y="409"/>
      <point x="504" y="434" type="curve" smooth="yes"/>
      <point x="504" y="454" type="line"/>
      <point x="475" y="475"/>
      <point x="430" y="492"/>
      <point x="372" y="492" type="curve" smooth="yes"/>
      <point x="258" y="492"/>
      <point x="186" y="427"/>
      <point x="186" y="299" type="curve" smooth="yes"/>
      <point x="186" y="186"/>
      <point x="256" y="122"/>
      <point x="374" y="122" type="curve" smooth="yes"/>
    </contour>
    <contour>
      <point x="205" y="56"/>
      <point x="115" y="151"/>
      <point x="115" y="308" type="curve" smooth="yes"/>
      <point x="115" y="465"/>
      <point x="205" y="560"/>
      <point x="368" y="560" type="curve" smooth="yes"/>
      <point x="531" y="560"/>
      <point x="621" y="465"/>
      <point x="621" y="308" type="curve" smooth="yes"/>
      <point x="621" y="151"/>
      <point x="531" y="56"/>
      <point x="368" y="56" type="curve" smooth="yes"/>
    </contour>
  </outline>
</glyph>
<glyph name="ordfeminine" format="1">
  <advance width="387"/>
  <unicode hex="00AA"/>
  <note>
	ordfeminine
  </note>
  <outline>
    <contour>
      <point x="189" y="265"/>
      <point x="219" y="278"/>
      <point x="246" y="310" type="curve"/>
      <point x="252" y="310" type="line"/>
      <point x="255" y="270" type="line"/>
      <point x="352" y="270" type="line"/>
      <point x="352" y="508" type="line" smooth="yes"/>
      <point x="352" y="580"/>
      <point x="304" y="620"/>
      <point x="211" y="620" type="curve" smooth="yes"/>
      <point x="148" y="620"/>
      <point x="98" y="606"/>
      <point x="57" y="582" type="curve"/>
      <point x="57" y="560" type="line" smooth="yes"/>
      <point x="57" y="534"/>
      <point x="62" y="512"/>
      <point x="70" y="490" type="curve"/>
      <point x="160" y="490" type="line"/>
      <point x="166" y="524" type="line"/>
      <point x="180" y="527"/>
      <point x="188" y="528"/>
      <point x="202" y="528" type="curve" smooth="yes"/>
      <point x="226" y="528"/>
      <point x="233" y="520"/>
      <point x="233" y="499" type="curve" smooth="yes"/>
      <point x="233" y="471" type="line"/>
      <point x="218" y="473"/>
      <point x="195" y="474"/>
      <point x="181" y="474" type="curve" smooth="yes"/>
      <point x="87" y="474"/>
      <point x="33" y="446"/>
      <point x="33" y="367" type="curve" smooth="yes"/>
      <point x="33" y="307"/>
      <point x="73" y="265"/>
      <point x="150" y="265" type="curve" smooth="yes"/>
    </contour>
    <contour>
      <point x="158" y="355"/>
      <point x="151" y="363"/>
      <point x="151" y="375" type="curve" smooth="yes"/>
      <point x="151" y="382"/>
      <point x="152" y="388"/>
      <point x="155" y="393" type="curve"/>
      <point x="171" y="396"/>
      <point x="180" y="397"/>
      <point x="200" y="397" type="curve" smooth="yes"/>
      <point x="216" y="397"/>
      <point x="226" y="396"/>
      <point x="236" y="394" type="curve"/>
      <point x="236" y="374" type="line"/>
      <point x="218" y="361"/>
      <point x="202" y="355"/>
      <point x="176" y="355" type="curve" smooth="yes"/>
    </contour>
  </outline>
</glyph>
<glyph name="logicalnot" format="1">
  <advance width="504"/>
  <unicode hex="00AC"/>
  <note>
	logicalnot
  </note>
  <outline>
    <contour>
      <point x="464" y="143" type="line"/>
      <point x="464" y="352" type="line"/>
      <point x="40" y="352" type="line"/>
      <point x="40" y="214" type="line"/>
      <point x="316" y="214" type="line"/>
      <point x="316" y="143" type="line"/>
    </contour>
  </outline>
</glyph>
<glyph name="softhyphen" format="1">
  <advance width="358"/>
  <unicode hex="00AD"/>
  <note>
	softhyphen
  </note>
  <outline>
    <contour>
      <point x="318" y="163" type="line"/>
      <point x="318" y="301" type="line"/>
      <point x="40" y="301" type="line"/>
      <point x="40" y="163" type="line"/>
    </contour>
  </outline>
</glyph>
<glyph name="macron" format="1">
  <advance width="406"/>
  <unicode hex="00AF"/>
  <note>
	macron
  </note>
  <outline>
    <contour>
      <point x="389" y="448" type="line"/>
      <point x="389" y="586" type="line"/>
      <point x="17" y="586" type="line"/>
      <point x="17" y="448" type="line"/>
    </contour>
  </outline>
</glyph>
<glyph name="twosuperior" format="1">
  <advance width="360"/>
  <unicode hex="00B2"/>
  <note>
	twosuperior
  </note>
  <outline>
    <contour>
      <point x="335" y="334" type="line"/>
      <point x="335" y="364" type="line" smooth="yes"/>
      <point x="335" y="389"/>
      <point x="330" y="428"/>
      <point x="322" y="450" type="curve"/>
      <point x="230" y="450" type="line"/>
      <point x="230" y="425" type="line"/>
      <point x="144" y="425" type="line"/>
      <point x="144" y="427" type="line"/>
      <point x="250" y="469"/>
      <point x="323" y="511"/>
      <point x="323" y="598" type="curve" smooth="yes"/>
      <point x="323" y="661"/>
      <point x="272" y="700"/>
      <point x="183" y="700" type="curve" smooth="yes"/>
      <point x="128" y="700"/>
      <point x="79" y="687"/>
      <point x="37" y="665" type="curve"/>
      <point x="37" y="642" type="line" smooth="yes"/>
      <point x="37" y="614"/>
      <point x="43" y="587"/>
      <point x="51" y="567" type="curve"/>
      <point x="148" y="567" type="line"/>
      <point x="148" y="585" type="line"/>
      <point x="157" y="589"/>
      <point x="166" y="591"/>
      <point x="178" y="591" type="curve" smooth="yes"/>
      <point x="194" y="591"/>
      <point x="202" y="586"/>
      <point x="202" y="573" type="curve" smooth="yes"/>
      <point x="202" y="538"/>
      <point x="141" y="496"/>
      <point x="25" y="464" type="curve"/>
      <point x="25" y="334" type="line"/>
    </contour>
  </outline>
</glyph>
<glyph name="acute" format="1">
  <advance width="323"/>
  <unicode hex="00B4"/>
  <note>
	acute
  </note>
  <outline>
    <contour>
      <point x="261" y="891" type="line"/>
      <point x="105" y="907" type="line"/>
      <point x="23" y="742" type="line"/>
      <point x="127" y="722" type="line"/>
    </contour>
  </outline>
</glyph>
<glyph name="paragraph" format="1">
  <advance width="699"/>
  <unicode hex="00B6"/>
  <note>
	paragraph
  </note>
  <outline>
    <contour>
      <point x="393" y="-120" type="line"/>
      <point x="393" y="480" type="line"/>
      <point x="425" y="480" type="line"/>
      <point x="425" y="-120" type="line"/>
      <point x="553" y="-120" type="line"/>
      <point x="553" y="620" type="line"/>
      <point x="252" y="620" type="line" smooth="yes"/>
      <point x="125" y="620"/>
      <point x="55" y="558"/>
      <point x="55" y="430" type="curve" smooth="yes"/>
      <point x="55" y="304"/>
      <point x="136" y="247"/>
      <point x="240" y="247" type="curve" smooth="yes"/>
      <point x="266" y="247" type="line"/>
      <point x="266" y="-120" type="line"/>
    </contour>
  </outline>
</glyph>
<glyph name="periodcentered" format="1">
  <advance width="361"/>
  <unicode hex="00B7"/>
  <note>
	periodcentered
  </note>
  <outline>
    <contour>
      <point x="225" y="198"/>
      <point x="255" y="228"/>
      <point x="255" y="270" type="curve" smooth="yes"/>
      <point x="255" y="312"/>
      <point x="225" y="342"/>
      <point x="181" y="342" type="curve" smooth="yes"/>
      <point x="137" y="342"/>
      <point x="107" y="312"/>
      <point x="107" y="270" type="curve" smooth="yes"/>
      <point x="107" y="228"/>
      <point x="137" y="198"/>
      <point x="181" y="198" type="curve" smooth="yes"/>
    </contour>
  </outline>
</glyph>
<glyph name="cedilla" format="1">
  <advance width="321"/>
  <unicode hex="00B8"/>
  <note>
	cedilla
  </note>
  <outline>
    <contour>
      <point x="276" y="-251"/>
      <point x="318" y="-203"/>
      <point x="318" y="-132" type="curve" smooth="yes"/>
      <point x="318" y="-72"/>
      <point x="288" y="-35"/>
      <point x="236" y="-35" type="curve" smooth="yes"/>
      <point x="218" y="-35"/>
      <point x="208" y="-37"/>
      <point x="195" y="-42" type="curve"/>
      <point x="229" y="4" type="line"/>
      <point x="140" y="23" type="line"/>
      <point x="54" y="-70" type="line"/>
      <point x="103" y="-124" type="line"/>
      <point x="113" y="-119"/>
      <point x="130" y="-116"/>
      <point x="145" y="-116" type="curve" smooth="yes"/>
      <point x="172" y="-116"/>
      <point x="186" y="-121"/>
      <point x="186" y="-137" type="curve" smooth="yes"/>
      <point x="186" y="-143"/>
      <point x="185" y="-148"/>
      <point x="183" y="-152" type="curve"/>
      <point x="172" y="-154"/>
      <point x="165" y="-154"/>
      <point x="151" y="-154" type="curve" smooth="yes"/>
      <point x="126" y="-154"/>
      <point x="104" y="-149"/>
      <point x="82" y="-140" type="curve"/>
      <point x="53" y="-227" type="line"/>
      <point x="89" y="-244"/>
      <point x="130" y="-251"/>
      <point x="176" y="-251" type="curve" smooth="yes"/>
    </contour>
  </outline>
</glyph>
<glyph name="onesuperior" format="1">
  <advance width="254"/>
  <unicode hex="00B9"/>
  <note>
	onesuperior
  </note>
  <outline>
    <contour>
      <point x="216" y="332" type="line"/>
      <point x="216" y="651" type="line" smooth="yes"/>
      <point x="216" y="672"/>
      <point x="156" y="698"/>
      <point x="123" y="700" type="curve"/>
      <point x="13" y="643" type="line"/>
      <point x="39" y="570" type="line"/>
      <point x="89" y="582" type="line"/>
      <point x="95" y="578" type="line"/>
      <point x="95" y="332" type="line"/>
    </contour>
  </outline>
</glyph>
<glyph name="ordmasculine" format="1">
  <advance width="410"/>
  <unicode hex="00BA"/>
  <note>
	ordmasculine
  </note>
  <outline>
    <contour>
      <point x="314" y="244"/>
      <point x="378" y="319"/>
      <point x="378" y="435" type="curve" smooth="yes"/>
      <point x="378" y="549"/>
      <point x="328" y="615"/>
      <point x="212" y="615" type="curve" smooth="yes"/>
      <point x="95" y="615"/>
      <point x="32" y="536"/>
      <point x="32" y="420" type="curve" smooth="yes"/>
      <point x="32" y="306"/>
      <point x="89" y="244"/>
      <point x="198" y="244" type="curve" smooth="yes"/>
    </contour>
    <contour>
      <point x="159" y="353"/>
      <point x="155" y="382"/>
      <point x="155" y="428" type="curve" smooth="yes"/>
      <point x="155" y="453"/>
      <point x="158" y="477"/>
      <point x="164" y="497" type="curve"/>
      <point x="174" y="500"/>
      <point x="187" y="502"/>
      <point x="202" y="502" type="curve" smooth="yes"/>
      <point x="246" y="502"/>
      <point x="255" y="480"/>
      <point x="255" y="427" type="curve" smooth="yes"/>
      <point x="255" y="402"/>
      <point x="252" y="378"/>
      <point x="246" y="358" type="curve"/>
      <point x="236" y="355"/>
      <point x="223" y="353"/>
      <point x="208" y="353" type="curve" smooth="yes"/>
    </contour>
  </outline>
</glyph>
<glyph name="onequarter" format="1">
  <advance width="821"/>
  <unicode hex="00BC"/>
  <note>
	onequarter
  </note>
  <outline>
    <contour>
      <point x="633" y="585" type="line"/>
      <point x="514" y="624" type="line"/>
      <point x="144" y="18" type="line"/>
      <point x="266" y="-18" type="line"/>
    </contour>
    <contour>
      <point x="248" y="256" type="line"/>
      <point x="248" y="575" type="line" smooth="yes"/>
      <point x="248" y="596"/>
      <point x="188" y="622"/>
      <point x="155" y="624" type="curve"/>
      <point x="45" y="567" type="line"/>
      <point x="71" y="494" type="line"/>
      <point x="122" y="507" type="line"/>
      <point x="127" y="503" type="line"/>
      <point x="127" y="256" type="line"/>
    </contour>
    <contour>
      <point x="548" y="146" type="line"/>
      <point x="622" y="239" type="line"/>
      <point x="626" y="239" type="line"/>
      <point x="621" y="213"/>
      <point x="618" y="185"/>
      <point x="618" y="168" type="curve" smooth="yes"/>
      <point x="618" y="141" type="line"/>
      <point x="550" y="141" type="line"/>
    </contour>
    <contour>
      <point x="727" y="0" type="line"/>
      <point x="727" y="50" type="line"/>
      <point x="774" y="50" type="line"/>
      <point x="774" y="141" type="line"/>
      <point x="727" y="141" type="line"/>
      <point x="727" y="357" type="line"/>
      <point x="604" y="357" type="line"/>
      <point x="424" y="134" type="line"/>
      <point x="459" y="50" type="line"/>
      <point x="616" y="50" type="line"/>
      <point x="616" y="0" type="line"/>
    </contour>
  </outline>
</glyph>
<glyph name="threequarters" format="1">
  <advance width="850"/>
  <unicode hex="00BE"/>
  <note>
	threequarters
  </note>
  <outline>
    <contour>
      <point x="682" y="585" type="line"/>
      <point x="563" y="624" type="line"/>
      <point x="193" y="18" type="line"/>
      <point x="315" y="-18" type="line"/>
    </contour>
    <contour>
      <point x="290" y="245"/>
      <point x="343" y="282"/>
      <point x="343" y="342" type="curve" smooth="yes"/>
      <point x="343" y="383"/>
      <point x="322" y="408"/>
      <point x="277" y="425" type="curve"/>
      <point x="277" y="428" type="line"/>
      <point x="317" y="446"/>
      <point x="338" y="470"/>
      <point x="338" y="517" type="curve" smooth="yes"/>
      <point x="338" y="579"/>
      <point x="290" y="616"/>
      <point x="195" y="616" type="curve" smooth="yes"/>
      <point x="139" y="616"/>
      <point x="89" y="602"/>
      <point x="50" y="584" type="curve"/>
      <point x="50" y="566" type="line" smooth="yes"/>
      <point x="50" y="539"/>
      <point x="57" y="512"/>
      <point x="66" y="489" type="curve"/>
      <point x="161" y="489" type="line"/>
      <point x="161" y="516" type="line"/>
      <point x="172" y="519"/>
      <point x="178" y="520"/>
      <point x="190" y="520" type="curve" smooth="yes"/>
      <point x="210" y="520"/>
      <point x="217" y="512"/>
      <point x="217" y="496" type="curve" smooth="yes"/>
      <point x="217" y="478"/>
      <point x="207" y="465"/>
      <point x="180" y="465" type="curve" smooth="yes"/>
      <point x="107" y="465" type="line"/>
      <point x="107" y="382" type="line"/>
      <point x="181" y="382" type="line" smooth="yes"/>
      <point x="211" y="382"/>
      <point x="222" y="381"/>
      <point x="222" y="363" type="curve" smooth="yes"/>
      <point x="222" y="356"/>
      <point x="221" y="350"/>
      <point x="218" y="342" type="curve"/>
      <point x="202" y="340"/>
      <point x="184" y="339"/>
      <point x="160" y="339" type="curve" smooth="yes"/>
      <point x="127" y="339"/>
      <point x="95" y="345"/>
      <point x="61" y="355" type="curve"/>
      <point x="48" y="265" type="line"/>
      <point x="82" y="253"/>
      <point x="123" y="245"/>
      <point x="178" y="245" type="curve" smooth="yes"/>
    </contour>
    <contour>
      <point x="577" y="146" type="line"/>
      <point x="651" y="239" type="line"/>
      <point x="655" y="239" type="line"/>
      <point x="650" y="213"/>
      <point x="647" y="185"/>
      <point x="647" y="168" type="curve" smooth="yes"/>
      <point x="647" y="141" type="line"/>
      <point x="579" y="141" type="line"/>
    </contour>
    <contour>
      <point x="756" y="0" type="line"/>
      <point x="756" y="50" type="line"/>
      <point x="803" y="50" type="line"/>
      <point x="803" y="141" type="line"/>
      <point x="756" y="141" type="line"/>
      <point x="756" y="357" type="line"/>
      <point x="633" y="357" type="line"/>
      <point x="453" y="134" type="line"/>
      <point x="488" y="50" type="line"/>
      <point x="645" y="50" type="line"/>
      <point x="645" y="0" type="line"/>
    </contour>
  </outline>
</glyph>
<glyph name="Acircumflex" format="1">
  <advance width="651"/>
  <unicode hex="00C2"/>
  <note>
	Acircumflex
  </note>
  <outline>
    <contour>
      <point x="194" y="57"/>
      <point x="209" y="114"/>
      <point x="223" y="168" type="curve"/>
      <point x="428" y="168" type="line"/>
      <point x="441" y="112"/>
      <point x="454" y="56"/>
      <point x="470" y="0" type="curve"/>
      <point x="626" y="9" type="line"/>
      <point x="573" y="211"/>
      <point x="500" y="445"/>
      <point x="432" y="620" type="curve"/>
      <point x="219" y="620" type="line"/>
      <point x="151" y="445"/>
      <point x="78" y="211"/>
      <point x="25" y="9" type="curve"/>
      <point x="181" y="0" type="line"/>
    </contour>
    <contour>
      <point x="279" y="370"/>
      <point x="299" y="432"/>
      <point x="318" y="485" type="curve"/>
      <point x="333" y="485" type="line"/>
      <point x="351" y="432"/>
      <point x="371" y="370"/>
      <point x="391" y="301" type="curve"/>
      <point x="259" y="301" type="line"/>
    </contour>
    <contour>
      <point x="322" y="725" type="line"/>
      <point x="329" y="725" type="line"/>
      <point x="399" y="665" type="line"/>
      <point x="482" y="680" type="line"/>
      <point x="387" y="823" type="line"/>
      <point x="264" y="823" type="line"/>
      <point x="168" y="680" type="line"/>
      <point x="249" y="665" type="line"/>
    </contour>
  </outline>
</glyph>
<glyph name="Ccedilla" format="1">
  <advance width="628"/>
  <unicode hex="00C7"/>
  <note>
	Ccedilla
  </note>
  <outline>
    <contour>
      <point x="429" y="-251"/>
      <point x="471" y="-203"/>
      <point x="471" y="-132" type="curve" smooth="yes"/>
      <point x="471" y="-72"/>
      <point x="441" y="-35"/>
      <point x="389" y="-35" type="curve" smooth="yes"/>
      <point x="371" y="-35"/>
      <point x="361" y="-37"/>
      <point x="348" y="-42" type="curve"/>
      <point x="372" y="-10" type="line"/>
      <point x="405" y="-9"/>
      <point x="434" y="-6"/>
      <point x="461" y="0" type="curve" smooth="yes"/>
      <point x="515" y="12"/>
      <point x="558" y="32"/>
      <point x="596" y="60" type="curve"/>
      <point x="538" y="177" type="line"/>
      <point x="492" y="149"/>
      <point x="438" y="129"/>
      <point x="360" y="129" type="curve" smooth="yes"/>
      <point x="238" y="129"/>
      <point x="194" y="181"/>
      <point x="194" y="297" type="curve" smooth="yes"/>
      <point x="194" y="364"/>
      <point x="201" y="420"/>
      <point x="218" y="479" type="curve"/>
      <point x="259" y="488"/>
      <point x="290" y="491"/>
      <point x="328" y="491" type="curve" smooth="yes"/>
      <point x="364" y="491"/>
      <point x="385" y="489"/>
      <point x="410" y="483" type="curve"/>
      <point x="420" y="409" type="line"/>
      <point x="544" y="409" type="line"/>
      <point x="553" y="441"/>
      <point x="557" y="500"/>
      <point x="557" y="541" type="curve" smooth="yes"/>
      <point x="557" y="583" type="line"/>
      <point x="507" y="609"/>
      <point x="442" y="630"/>
      <point x="342" y="630" type="curve" smooth="yes"/>
      <point x="137" y="630"/>
      <point x="44" y="488"/>
      <point x="44" y="291" type="curve" smooth="yes"/>
      <point x="44" y="119"/>
      <point x="123" y="21"/>
      <point x="268" y="-3" type="curve"/>
      <point x="207" y="-70" type="line"/>
      <point x="256" y="-124" type="line"/>
      <point x="266" y="-119"/>
      <point x="283" y="-116"/>
      <point x="298" y="-116" type="curve" smooth="yes"/>
      <point x="325" y="-116"/>
      <point x="339" y="-121"/>
      <point x="339" y="-137" type="curve" smooth="yes"/>
      <point x="339" y="-143"/>
      <point x="338" y="-148"/>
      <point x="336" y="-152" type="curve"/>
      <point x="325" y="-154"/>
      <point x="318" y="-154"/>
      <point x="304" y="-154" type="curve" smooth="yes"/>
      <point x="279" y="-154"/>
      <point x="257" y="-149"/>
      <point x="235" y="-140" type="curve"/>
      <point x="206" y="-227" type="line"/>
      <point x="242" y="-244"/>
      <point x="283" y="-251"/>
      <point x="329" y="-251" type="curve" smooth="yes"/>
    </contour>
  </outline>
</glyph>
<glyph name="Egrave" format="1">
  <advance width="581"/>
  <unicode hex="00C8"/>
  <note>
	Egrave
  </note>
  <outline>
    <contour>
      <point x="413" y="-10"/>
      <point x="484" y="-1"/>
      <point x="535" y="12" type="curve"/>
      <point x="516" y="146" type="line"/>
      <point x="460" y="133"/>
      <point x="402" y="127"/>
      <point x="333" y="127" type="curve" smooth="yes"/>
      <point x="288" y="127"/>
      <point x="256" y="129"/>
      <point x="215" y="137" type="curve"/>
      <point x="215" y="241" type="line"/>
      <point x="479" y="241" type="line"/>
      <point x="479" y="372" type="line"/>
      <point x="215" y="372" type="line"/>
      <point x="215" y="483" type="line"/>
      <point x="530" y="483" type="line"/>
      <point x="530" y="620" type="line"/>
      <point x="65" y="620" type="line"/>
      <point x="65" y="121" type="line" smooth="yes"/>
      <point x="65" y="16"/>
      <point x="176" y="-10"/>
      <point x="328" y="-10" type="curve" smooth="yes"/>
    </contour>
    <contour>
      <point x="389" y="685" type="line"/>
      <point x="302" y="840" type="line"/>
      <point x="132" y="821" type="line"/>
      <point x="266" y="665" type="line"/>
    </contour>
  </outline>
</glyph>
<glyph name="Edieresis" format="1">
  <advance width="581"/>
  <unicode hex="00CB"/>
  <note>
	Edieresis
  </note>
  <outline>
    <contour>
      <point x="413" y="-10"/>
      <point x="484" y="-1"/>
      <point x="535" y="12" type="curve"/>
      <point x="516" y="146" type="line"/>
      <point x="460" y="133"/>
      <point x="402" y="127"/>
      <point x="333" y="127" type="curve" smooth="yes"/>
      <point x="288" y="127"/>
      <point x="256" y="129"/>
      <point x="215" y="137" type="curve"/>
      <point x="215" y="241" type="line"/>
      <point x="479" y="241" type="line"/>
      <point x="479" y="372" type="line"/>
      <point x="215" y="372" type="line"/>
      <point x="215" y="483" type="line"/>
      <point x="530" y="483" type="line"/>
      <point x="530" y="620" type="line"/>
      <point x="65" y="620" type="line"/>
      <point x="65" y="121" type="line" smooth="yes"/>
      <point x="65" y="16"/>
      <point x="176" y="-10"/>
      <point x="328" y="-10" type="curve" smooth="yes"/>
    </contour>
    <contour>
      <point x="247" y="665"/>
      <point x="274" y="691"/>
      <point x="274" y="733" type="curve" smooth="yes"/>
      <point x="274" y="779"/>
      <point x="247" y="804"/>
      <point x="201" y="804" type="curve" smooth="yes"/>
      <point x="155" y="804"/>
      <point x="128" y="779"/>
      <point x="128" y="733" type="curve" smooth="yes"/>
      <point x="128" y="691"/>
      <point x="155" y="665"/>
      <point x="201" y="665" type="curve" smooth="yes"/>
    </contour>
    <contour>
      <point x="425" y="665"/>
      <point x="452" y="691"/>
      <point x="452" y="733" type="curve" smooth="yes"/>
      <point x="452" y="779"/>
      <point x="425" y="804"/>
      <point x="379" y="804" type="curve" smooth="yes"/>
      <point x="333" y="804"/>
      <point x="306" y="779"/>
      <point x="306" y="733" type="curve" smooth="yes"/>
      <point x="306" y="691"/>
      <point x="333" y="665"/>
      <point x="379" y="665" type="curve" smooth="yes"/>
    </contour>
  </outline>
</glyph>
<glyph name="Iacute" format="1">
  <advance width="286"/>
  <unicode hex="00CD"/>
  <note>
	Iacute
  </note>
  <outline>
    <contour>
      <point x="218" y="0" type="line"/>
      <point x="218" y="620" type="line"/>
      <point x="68" y="620" type="line"/>
      <point x="68" y="0" type="line"/>
    </contour>
    <contour>
      <point x="322" y="834" type="line"/>
      <point x="166" y="850" type="line"/>
      <point x="84" y="685" type="line"/>
      <point x="188" y="665" type="line"/>
    </contour>
  </outline>
</glyph>
<glyph name="Idieresis" format="1">
  <advance width="286"/>
  <unicode hex="00CF"/>
  <note>
	Idieresis
  </note>
  <outline>
    <contour>
      <point x="218" y="0" type="line"/>
      <point x="218" y="620" type="line"/>
      <point x="68" y="620" type="line"/>
      <point x="68" y="0" type="line"/>
    </contour>
    <contour>
      <point x="100" y="665"/>
      <point x="127" y="691"/>
      <point x="127" y="733" type="curve" smooth="yes"/>
      <point x="127" y="779"/>
      <point x="100" y="804"/>
      <point x="54" y="804" type="curve" smooth="yes"/>
      <point x="8" y="804"/>
      <point x="-19" y="779"/>
      <point x="-19" y="733" type="curve" smooth="yes"/>
      <point x="-19" y="691"/>
      <point x="8" y="665"/>
      <point x="54" y="665" type="curve" smooth="yes"/>
    </contour>
    <contour>
      <point x="278" y="665"/>
      <point x="305" y="691"/>
      <point x="305" y="733" type="curve" smooth="yes"/>
      <point x="305" y="779"/>
      <point x="278" y="804"/>
      <point x="232" y="804" type="curve" smooth="yes"/>
      <point x="186" y="804"/>
      <point x="159" y="779"/>
      <point x="159" y="733" type="curve" smooth="yes"/>
      <point x="159" y="691"/>
      <point x="186" y="665"/>
      <point x="232" y="665" type="curve" smooth="yes"/>
    </contour>
  </outline>
</glyph>
<glyph name="Odieresis" format="1">
  <advance width="665"/>
  <unicode hex="00D6"/>
  <note>
	Odieresis
  </note>
  <outline>
    <contour>
      <point x="512" y="-9"/>
      <point x="623" y="101"/>
      <point x="623" y="321" type="curve" smooth="yes"/>
      <point x="623" y="522"/>
      <point x="533" y="630"/>
      <point x="348" y="630" type="curve" smooth="yes"/>
      <point x="153" y="630"/>
      <point x="42" y="520"/>
      <point x="42" y="300" type="curve" smooth="yes"/>
      <point x="42" y="99"/>
      <point x="132" y="-9"/>
      <point x="317" y="-9" type="curve" smooth="yes"/>
    </contour>
    <contour>
      <point x="214" y="129"/>
      <point x="190" y="194"/>
      <point x="190" y="315" type="curve" smooth="yes"/>
      <point x="190" y="378"/>
      <point x="197" y="424"/>
      <point x="218" y="474" type="curve"/>
      <point x="248" y="486"/>
      <point x="280" y="492"/>
      <point x="327" y="492" type="curve" smooth="yes"/>
      <point x="451" y="492"/>
      <point x="475" y="427"/>
      <point x="475" y="306" type="curve" smooth="yes"/>
      <point x="475" y="243"/>
      <point x="467" y="197"/>
      <point x="447" y="147" type="curve"/>
      <point x="417" y="135"/>
      <point x="385" y="129"/>
      <point x="338" y="129" type="curve" smooth="yes"/>
    </contour>
    <contour>
      <point x="289" y="665"/>
      <point x="316" y="691"/>
      <point x="316" y="733" type="curve" smooth="yes"/>
      <point x="316" y="779"/>
      <point x="289" y="804"/>
      <point x="243" y="804" type="curve" smooth="yes"/>
      <point x="197" y="804"/>
      <point x="170" y="779"/>
      <point x="170" y="733" type="curve" smooth="yes"/>
      <point x="170" y="691"/>
      <point x="197" y="665"/>
      <point x="243" y="665" type="curve" smooth="yes"/>
    </contour>
    <contour>
      <point x="467" y="665"/>
      <point x="494" y="691"/>
      <point x="494" y="733" type="curve" smooth="yes"/>
      <point x="494" y="779"/>
      <point x="467" y="804"/>
      <point x="421" y="804" type="curve" smooth="yes"/>
      <point x="375" y="804"/>
      <point x="348" y="779"/>
      <point x="348" y="733" type="curve" smooth="yes"/>
      <point x="348" y="691"/>
      <point x="375" y="665"/>
      <point x="421" y="665" type="curve" smooth="yes"/>
    </contour>
  </outline>
</glyph>
<glyph name="multiply" format="1">
  <advance width="496"/>
  <unicode hex="00D7"/>
  <note>
	multiply
  </note>
  <outline>
    <contour>
      <point x="248" y="236" type="line"/>
      <point x="371" y="113" type="line"/>
      <point x="456" y="193" type="line"/>
      <point x="326" y="308" type="line"/>
      <point x="456" y="423" type="line"/>
      <point x="371" y="503" type="line"/>
      <point x="248" y="380" type="line"/>
      <point x="125" y="503" type="line"/>
      <point x="40" y="423" type="line"/>
      <point x="170" y="308" type="line"/>
      <point x="40" y="193" type="line"/>
      <point x="125" y="113" type="line"/>
    </contour>
  </outline>
</glyph>
<glyph name="Uacute" format="1">
  <advance width="653"/>
  <unicode hex="00DA"/>
  <note>
	Uacute
  </note>
  <outline>
    <contour>
      <point x="469" y="-10"/>
      <point x="590" y="31"/>
      <point x="590" y="135" type="curve" smooth="yes"/>
      <point x="590" y="620" type="line"/>
      <point x="440" y="620" type="line"/>
      <point x="440" y="144" type="line"/>
      <point x="407" y="133"/>
      <point x="378" y="128"/>
      <point x="324" y="128" type="curve" smooth="yes"/>
      <point x="238" y="128"/>
      <point x="213" y="159"/>
      <point x="213" y="253" type="curve" smooth="yes"/>
      <point x="213" y="620" type="line"/>
      <point x="63" y="620" type="line"/>
      <point x="63" y="220" type="line" smooth="yes"/>
      <point x="63" y="81"/>
      <point x="130" y="-10"/>
      <point x="317" y="-10" type="curve" smooth="yes"/>
    </contour>
    <contour>
      <point x="496" y="834" type="line"/>
      <point x="340" y="850" type="line"/>
      <point x="258" y="685" type="line"/>
      <point x="362" y="665" type="line"/>
    </contour>
  </outline>
</glyph>
<glyph name="Thorn" format="1">
  <advance width="533"/>
  <unicode hex="00DE"/>
  <note>
	Thorn
  </note>
  <outline>
    <contour>
      <point x="214" y="0" type="line"/>
      <point x="214" y="124" type="line"/>
      <point x="277" y="124" type="line" smooth="yes"/>
      <point x="429" y="124"/>
      <point x="503" y="190"/>
      <point x="503" y="315" type="curve" smooth="yes"/>
      <point x="503" y="440"/>
      <point x="429" y="506"/>
      <point x="277" y="506" type="curve" smooth="yes"/>
      <point x="214" y="506" type="line"/>
      <point x="214" y="620" type="line"/>
      <point x="65" y="620" type="line"/>
      <point x="65" y="0" type="line"/>
    </contour>
    <contour>
      <point x="214" y="373" type="line"/>
      <point x="278" y="373" type="line" smooth="yes"/>
      <point x="327" y="373"/>
      <point x="354" y="359"/>
      <point x="354" y="315" type="curve" smooth="yes"/>
      <point x="354" y="271"/>
      <point x="327" y="257"/>
      <point x="278" y="257" type="curve" smooth="yes"/>
      <point x="214" y="257" type="line"/>
    </contour>
  </outline>
</glyph>
<glyph name="atilde" format="1">
  <advance width="522"/>
  <unicode hex="00E3"/>
  <note>
	atilde
  </note>
  <outline>
    <contour>
      <point x="245" y="-8"/>
      <point x="286" y="18"/>
      <point x="321" y="66" type="curve"/>
      <point x="329" y="66" type="line"/>
      <point x="338" y="0" type="line"/>
      <point x="464" y="0" type="line"/>
      <point x="464" y="331" type="line" smooth="yes"/>
      <point x="464" y="430"/>
      <point x="395" y="478"/>
      <point x="274" y="478" type="curve" smooth="yes"/>
      <point x="179" y="478"/>
      <point x="120" y="457"/>
      <point x="66" y="428" type="curve"/>
      <point x="66" y="403" type="line" smooth="yes"/>
      <point x="66" y="371"/>
      <point x="70" y="343"/>
      <point x="79" y="313" type="curve"/>
      <point x="203" y="313" type="line"/>
      <point x="213" y="361" type="line"/>
      <point x="229" y="364"/>
      <point x="242" y="365"/>
      <point x="261" y="365" type="curve" smooth="yes"/>
      <point x="300" y="365"/>
      <point x="314" y="357"/>
      <point x="314" y="322" type="curve" smooth="yes"/>
      <point x="314" y="278" type="line"/>
      <point x="292" y="280"/>
      <point x="283" y="281"/>
      <point x="262" y="281" type="curve" smooth="yes"/>
      <point x="124" y="281"/>
      <point x="30" y="239"/>
      <point x="30" y="126" type="curve" smooth="yes"/>
      <point x="30" y="39"/>
      <point x="73" y="-8"/>
      <point x="171" y="-8" type="curve" smooth="yes"/>
    </contour>
    <contour>
      <point x="196" y="113"/>
      <point x="183" y="125"/>
      <point x="183" y="148" type="curve" smooth="yes"/>
      <point x="183" y="160"/>
      <point x="184" y="170"/>
      <point x="189" y="182" type="curve"/>
      <point x="209" y="187"/>
      <point x="224" y="189"/>
      <point x="248" y="189" type="curve" smooth="yes"/>
      <point x="280" y="189"/>
      <point x="294" y="188"/>
      <point x="316" y="184" type="curve"/>
      <point x="316" y="149" type="line"/>
      <point x="291" y="127"/>
      <point x="264" y="113"/>
      <point x="223" y="113" type="curve" smooth="yes"/>
    </contour>
    <contour>
      <point x="195" y="540"/>
      <point x="198" y="561"/>
      <point x="224" y="561" type="curve" smooth="yes"/>
      <point x="259" y="561"/>
      <point x="295" y="520"/>
      <point x="342" y="520" type="curve" smooth="yes"/>
      <point x="415" y="520"/>
      <point x="438" y="575"/>
      <point x="439" y="658" type="curve"/>
      <point x="347" y="683" type="line"/>
      <point x="346" y="655"/>
      <point x="343" y="634"/>
      <point x="317" y="634" type="curve" smooth="yes"/>
      <point x="288" y="634"/>
      <point x="254" y="675"/>
      <point x="204" y="675" type="curve" smooth="yes"/>
      <point x="126" y="675"/>
      <point x="103" y="620"/>
      <point x="102" y="537" type="curve"/>
      <point x="194" y="512" type="line"/>
    </contour>
  </outline>
</glyph>
<glyph name="adieresis" format="1">
  <advance width="522"/>
  <unicode hex="00E4"/>
  <note>
	adieresis
  </note>
  <outline>
    <contour>
      <point x="245" y="-8"/>
      <point x="286" y="18"/>
      <point x="321" y="66" type="curve"/>
      <point x="329" y="66" type="line"/>
      <point x="338" y="0" type="line"/>
      <point x="464" y="0" type="line"/>
      <point x="464" y="331" type="line" smooth="yes"/>
      <point x="464" y="430"/>
      <point x="395" y="478"/>
      <point x="274" y="478" type="curve" smooth="yes"/>
      <point x="179" y="478"/>
      <point x="120" y="457"/>
      <point x="66" y="428" type="curve"/>
      <point x="66" y="403" type="line" smooth="yes"/>
      <point x="66" y="371"/>
      <point x="70" y="343"/>
      <point x="79" y="313" type="curve"/>
      <point x="203" y="313" type="line"/>
      <point x="213" y="361" type="line"/>
      <point x="229" y="364"/>
      <point x="242" y="365"/>
      <point x="261" y="365" type="curve" smooth="yes"/>
      <point x="300" y="365"/>
      <point x="314" y="357"/>
      <point x="314" y="322" type="curve" smooth="yes"/>
      <point x="314" y="278" type="line"/>
      <point x="292" y="280"/>
      <point x="283" y="281"/>
      <point x="262" y="281" type="curve" smooth="yes"/>
      <point x="124" y="281"/>
      <point x="30" y="239"/>
      <point x="30" y="126" type="curve" smooth="yes"/>
      <point x="30" y="39"/>
      <point x="73" y="-8"/>
      <point x="171" y="-8" type="curve" smooth="yes"/>
    </contour>
    <contour>
      <point x="196" y="113"/>
      <point x="183" y="125"/>
      <point x="183" y="148" type="curve" smooth="yes"/>
      <point x="183" y="160"/>
      <point x="184" y="170"/>
      <point x="189" y="182" type="curve"/>
      <point x="209" y="187"/>
      <point x="224" y="189"/>
      <point x="248" y="189" type="curve" smooth="yes"/>
      <point x="280" y="189"/>
      <point x="294" y="188"/>
      <point x="316" y="184" type="curve"/>
      <point x="316" y="149" type="line"/>
      <point x="291" y="127"/>
      <point x="264" y="113"/>
      <point x="223" y="113" type="curve" smooth="yes"/>
    </contour>
    <contour>
      <point x="233" y="520"/>
      <point x="260" y="546"/>
      <point x="260" y="588" type="curve" smooth="yes"/>
      <point x="260" y="634"/>
      <point x="233" y="659"/>
      <point x="187" y="659" type="curve" smooth="yes"/>
      <point x="141" y="659"/>
      <point x="114" y="634"/>
      <point x="114" y="588" type="curve" smooth="yes"/>
      <point x="114" y="546"/>
      <point x="141" y="520"/>
      <point x="187" y="520" type="curve" smooth="yes"/>
    </contour>
    <contour>
      <point x="411" y="520"/>
      <point x="438" y="546"/>
      <point x="438" y="588" type="curve" smooth="yes"/>
      <point x="438" y="634"/>
      <point x="411" y="659"/>
      <point x="365" y="659" type="curve" smooth="yes"/>
      <point x="319" y="659"/>
      <point x="292" y="634"/>
      <point x="292" y="588" type="curve" smooth="yes"/>
      <point x="292" y="546"/>
      <point x="319" y="520"/>
      <point x="365" y="520" type="curve" smooth="yes"/>
    </contour>
  </outline>
</glyph>
<glyph name="ccedilla" format="1">
  <advance width="495"/>
  <unicode hex="00E7"/>
  <note>
	ccedilla
  </note>
  <outline>
    <contour>
      <point x="368" y="-251"/>
      <point x="410" y="-203"/>
      <point x="410" y="-132" type="curve" smooth="yes"/>
      <point x="410" y="-72"/>
      <point x="380" y="-35"/>
      <point x="328" y="-35" type="curve" smooth="yes"/>
      <point x="310" y="-35"/>
      <point x="300" y="-37"/>
      <point x="287" y="-42" type="curve"/>
      <point x="311" y="-9" type="line"/>
      <point x="386" y="-3"/>
      <point x="438" y="27"/>
      <point x="479" y="65" type="curve"/>
      <point x="413" y="172" type="line"/>
      <point x="378" y="144"/>
      <point x="337" y="129"/>
      <point x="288" y="129" type="curve" smooth="yes"/>
      <point x="208" y="129"/>
      <point x="185" y="165"/>
      <point x="185" y="235" type="curve" smooth="yes"/>
      <point x="185" y="271"/>
      <point x="189" y="300"/>
      <point x="199" y="333" type="curve"/>
      <point x="219" y="339"/>
      <point x="239" y="341"/>
      <point x="266" y="341" type="curve" smooth="yes"/>
      <point x="282" y="341"/>
      <point x="299" y="340"/>
      <point x="314" y="337" type="curve"/>
      <point x="322" y="292" type="line"/>
      <point x="445" y="292" type="line"/>
      <point x="453" y="325"/>
      <point x="458" y="367"/>
      <point x="458" y="401" type="curve" smooth="yes"/>
      <point x="458" y="437" type="line"/>
      <point x="417" y="461"/>
      <point x="357" y="478"/>
      <point x="277" y="478" type="curve" smooth="yes"/>
      <point x="128" y="478"/>
      <point x="37" y="380"/>
      <point x="37" y="229" type="curve" smooth="yes"/>
      <point x="37" y="106"/>
      <point x="84" y="20"/>
      <point x="207" y="-3" type="curve"/>
      <point x="146" y="-70" type="line"/>
      <point x="195" y="-124" type="line"/>
      <point x="205" y="-119"/>
      <point x="222" y="-116"/>
      <point x="237" y="-116" type="curve" smooth="yes"/>
      <point x="264" y="-116"/>
      <point x="278" y="-121"/>
      <point x="278" y="-137" type="curve" smooth="yes"/>
      <point x="278" y="-143"/>
      <point x="277" y="-148"/>
      <point x="275" y="-152" type="curve"/>
      <point x="264" y="-154"/>
      <point x="257" y="-154"/>
      <point x="243" y="-154" type="curve" smooth="yes"/>
      <point x="218" y="-154"/>
      <point x="196" y="-149"/>
      <point x="174" y="-140" type="curve"/>
      <point x="145" y="-227" type="line"/>
      <point x="181" y="-244"/>
      <point x="222" y="-251"/>
      <point x="268" y="-251" type="curve" smooth="yes"/>
    </contour>
  </outline>
</glyph>
<glyph name="igrave" format="1">
  <advance width="274"/>
  <unicode hex="00EC"/>
  <note>
	igrave
  </note>
  <outline>
    <contour>
      <point x="211" y="0" type="line"/>
      <point x="211" y="472" type="line"/>
      <point x="63" y="472" type="line"/>
      <point x="63" y="0" type="line"/>
    </contour>
    <contour>
      <point x="210" y="539" type="line"/>
      <point x="123" y="694" type="line"/>
      <point x="-47" y="675" type="line"/>
      <point x="87" y="519" type="line"/>
    </contour>
  </outline>
</glyph>
<glyph name="iacute" format="1">
  <advance width="274"/>
  <unicode hex="00ED"/>
  <note>
	iacute
  </note>
  <outline>
    <contour>
      <point x="211" y="0" type="line"/>
      <point x="211" y="472" type="line"/>
      <point x="63" y="472" type="line"/>
      <point x="63" y="0" type="line"/>
    </contour>
    <contour>
      <point x="298" y="689" type="line"/>
      <point x="142" y="705" type="line"/>
      <point x="60" y="540" type="line"/>
      <point x="164" y="520" type="line"/>
    </contour>
  </outline>
</glyph>
<glyph name="idieresis" format="1">
  <advance width="274"/>
  <unicode hex="00EF"/>
  <note>
	idieresis
  </note>
  <outline>
    <contour>
      <point x="211" y="0" type="line"/>
      <point x="211" y="472" type="line"/>
      <point x="63" y="472" type="line"/>
      <point x="63" y="0" type="line"/>
    </contour>
    <contour>
      <point x="97" y="515"/>
      <point x="124" y="541"/>
      <point x="124" y="583" type="curve" smooth="yes"/>
      <point x="124" y="629"/>
      <point x="97" y="654"/>
      <point x="51" y="654" type="curve" smooth="yes"/>
      <point x="5" y="654"/>
      <point x="-22" y="629"/>
      <point x="-22" y="583" type="curve" smooth="yes"/>
      <point x="-22" y="541"/>
      <point x="5" y="515"/>
      <point x="51" y="515" type="curve" smooth="yes"/>
    </contour>
    <contour>
      <point x="275" y="515"/>
      <point x="302" y="541"/>
      <point x="302" y="583" type="curve" smooth="yes"/>
      <point x="302" y="629"/>
      <point x="275" y="654"/>
      <point x="229" y="654" type="curve" smooth="yes"/>
      <point x="183" y="654"/>
      <point x="156" y="629"/>
      <point x="156" y="583" type="curve" smooth="yes"/>
      <point x="156" y="541"/>
      <point x="183" y="515"/>
      <point x="229" y="515" type="curve" smooth="yes"/>
    </contour>
  </outline>
</glyph>
<glyph name="ntilde" format="1">
  <advance width="585"/>
  <unicode hex="00F1"/>
  <note>
	ntilde
  </note>
  <outline>
    <contour>
      <point x="222" y="0" type="line"/>
      <point x="222" y="310" type="line"/>
      <point x="245" y="330"/>
      <point x="280" y="342"/>
      <point x="325" y="342" type="curve" smooth="yes"/>
      <point x="348" y="342"/>
      <point x="365" y="339"/>
      <point x="378" y="333" type="curve"/>
      <point x="378" y="0" type="line"/>
      <point x="525" y="0" type="line"/>
      <point x="525" y="344" type="line" smooth="yes"/>
      <point x="525" y="432"/>
      <point x="477" y="482"/>
      <point x="386" y="482" type="curve" smooth="yes"/>
      <point x="310" y="482"/>
      <point x="260" y="446"/>
      <point x="225" y="398" type="curve"/>
      <point x="217" y="398" type="line"/>
      <point x="211" y="472" type="line"/>
      <point x="75" y="472" type="line"/>
      <point x="75" y="0" type="line"/>
    </contour>
    <contour>
      <point x="212" y="535"/>
      <point x="215" y="556"/>
      <point x="241" y="556" type="curve" smooth="yes"/>
      <point x="276" y="556"/>
      <point x="312" y="515"/>
      <point x="359" y="515" type="curve" smooth="yes"/>
      <point x="432" y="515"/>
      <point x="455" y="570"/>
      <point x="456" y="653" type="curve"/>
      <point x="364" y="678" type="line"/>
      <point x="363" y="650"/>
      <point x="360" y="629"/>
      <point x="334" y="629" type="curve" smooth="yes"/>
      <point x="305" y="629"/>
      <point x="271" y="670"/>
      <point x="221" y="670" type="curve" smooth="yes"/>
      <point x="143" y="670"/>
      <point x="120" y="615"/>
      <point x="119" y="532" type="curve"/>
      <point x="211" y="507" type="line"/>
    </contour>
  </outline>
</glyph>
<glyph name="divide" format="1">
  <advance width="520"/>
  <unicode hex="00F7"/>
  <note>
	divide
  </note>
  <outline>
    <contour>
      <point x="480" y="243" type="line"/>
      <point x="480" y="369" type="line"/>
      <point x="40" y="369" type="line"/>
      <point x="40" y="243" type="line"/>
    </contour>
    <contour>
      <point x="299" y="79"/>
      <point x="328" y="110"/>
      <point x="328" y="148" type="curve" smooth="yes"/>
      <point x="328" y="187"/>
      <point x="299" y="216"/>
      <point x="260" y="216" type="curve" smooth="yes"/>
      <point x="222" y="216"/>
      <point x="192" y="187"/>
      <point x="192" y="148" type="curve" smooth="yes"/>
      <point x="192" y="110"/>
      <point x="222" y="79"/>
      <point x="260" y="79" type="curve" smooth="yes"/>
    </contour>
    <contour>
      <point x="299" y="396"/>
      <point x="328" y="427"/>
      <point x="328" y="465" type="curve" smooth="yes"/>
      <point x="328" y="504"/>
      <point x="299" y="533"/>
      <point x="260" y="533" type="curve" smooth="yes"/>
      <point x="222" y="533"/>
      <point x="192" y="504"/>
      <point x="192" y="465" type="curve" smooth="yes"/>
      <point x="192" y="427"/>
      <point x="222" y="396"/>
      <point x="260" y="396" type="curve" smooth="yes"/>
    </contour>
  </outline>
</glyph>
<glyph name="udieresis" format="1">
  <advance width="567"/>
  <unicode hex="00FC"/>
  <note>
	udieresis
  </note>
  <outline>
    <contour>
      <point x="276" y="-8"/>
      <point x="318" y="22"/>
      <point x="357" y="72" type="curve"/>
      <point x="365" y="72" type="line"/>
      <point x="371" y="0" type="line"/>
      <point x="503" y="0" type="line"/>
      <point x="503" y="472" type="line"/>
      <point x="353" y="472" type="line"/>
      <point x="353" y="162" type="line"/>
      <point x="329" y="137"/>
      <point x="297" y="128"/>
      <point x="259" y="128" type="curve" smooth="yes"/>
      <point x="240" y="128"/>
      <point x="225" y="130"/>
      <point x="208" y="136" type="curve"/>
      <point x="208" y="472" type="line"/>
      <point x="58" y="472" type="line"/>
      <point x="58" y="141" type="line" smooth="yes"/>
      <point x="58" y="41"/>
      <point x="110" y="-8"/>
      <point x="201" y="-8" type="curve" smooth="yes"/>
    </contour>
    <contour>
      <point x="240" y="520"/>
      <point x="267" y="546"/>
      <point x="267" y="588" type="curve" smooth="yes"/>
      <point x="267" y="634"/>
      <point x="240" y="659"/>
      <point x="194" y="659" type="curve" smooth="yes"/>
      <point x="148" y="659"/>
      <point x="121" y="634"/>
      <point x="121" y="588" type="curve" smooth="yes"/>
      <point x="121" y="546"/>
      <point x="148" y="520"/>
      <point x="194" y="520" type="curve" smooth="yes"/>
    </contour>
    <contour>
      <point x="418" y="520"/>
      <point x="445" y="546"/>
      <point x="445" y="588" type="curve" smooth="yes"/>
      <point x="445" y="634"/>
      <point x="418" y="659"/>
      <point x="372" y="659" type="curve" smooth="yes"/>
      <point x="326" y="659"/>
      <point x="299" y="634"/>
      <point x="299" y="588" type="curve" smooth="yes"/>
      <point x="299" y="546"/>
      <point x="326" y="520"/>
      <point x="372" y="520" type="curve" smooth="yes"/>
    </contour>
  </outline>
</glyph>
<glyph name="ydieresis" format="1">
  <advance width="580"/>
  <unicode hex="00FF"/>
  <note>
	ydieresis
  </note>
  <outline>
    <contour>
      <point x="239" y="-197"/>
      <point x="333" y="-165"/>
      <point x="356" y="-112" type="curve" smooth="yes"/>
      <point x="422" y="38"/>
      <point x="489" y="251"/>
      <point x="543" y="472" type="curve"/>
      <point x="388" y="479" type="line"/>
      <point x="362" y="363"/>
      <point x="336" y="257"/>
      <point x="309" y="161" type="curve"/>
      <point x="289" y="161" type="line"/>
      <point x="254" y="256"/>
      <point x="222" y="366"/>
      <point x="194" y="479" type="curve"/>
      <point x="37" y="472" type="line"/>
      <point x="77" y="316"/>
      <point x="131" y="182"/>
      <point x="204" y="21" type="curve"/>
      <point x="265" y="21" type="line"/>
      <point x="255" y="-9"/>
      <point x="244" y="-39"/>
      <point x="233" y="-67" type="curve"/>
      <point x="220" y="-70"/>
      <point x="207" y="-71"/>
      <point x="194" y="-71" type="curve" smooth="yes"/>
      <point x="184" y="-71"/>
      <point x="178" y="-70"/>
      <point x="169" y="-68" type="curve"/>
      <point x="169" y="-29" type="line"/>
      <point x="60" y="-29" type="line"/>
      <point x="52" y="-67"/>
      <point x="50" y="-110"/>
      <point x="50" y="-141" type="curve" smooth="yes"/>
      <point x="50" y="-172" type="line"/>
      <point x="87" y="-189"/>
      <point x="131" y="-197"/>
      <point x="182" y="-197" type="curve" smooth="yes"/>
    </contour>
    <contour>
      <point x="257" y="520"/>
      <point x="284" y="546"/>
      <point x="284" y="588" type="curve" smooth="yes"/>
      <point x="284" y="634"/>
      <point x="257" y="659"/>
      <point x="211" y="659" type="curve" smooth="yes"/>
      <point x="165" y="659"/>
      <point x="138" y="634"/>
      <point x="138" y="588" type="curve" smooth="yes"/>
      <point x="138" y="546"/>
      <point x="165" y="520"/>
      <point x="211" y="520" type="curve" smooth="yes"/>
    </contour>
    <contour>
      <point x="435" y="520"/>
      <point x="462" y="546"/>
      <point x="462" y="588" type="curve" smooth="yes"/>
      <point x="462" y="634"/>
      <point x="435" y="659"/>
      <point x="389" y="659" type="curve" smooth="yes"/>
      <point x="343" y="659"/>
      <point x="316" y="634"/>
      <point x="316" y="588" type="curve" smooth="yes"/>
      <point x="316" y="546"/>
      <point x="343" y="520"/>
      <point x="389" y="520" type="curve" smooth="yes"/>
    </contour>
  </outline>
</glyph>
<glyph name="Amacron" format="1">
  <advance width="651"/>
  <unicode hex="0100"/>
  <note>
	Amacron
  </note>
  <outline>
    <contour>
      <point x="194" y="57"/>
      <point x="209" y="114"/>
      <point x="223" y="168" type="curve"/>
      <point x="428" y="168" type="line"/>
      <point x="441" y="112"/>
      <point x="454" y="56"/>
      <point x="470" y="0" type="curve"/>
      <point x="626" y="9" type="line"/>
      <point x="573" y="211"/>
      <point x="500" y="445"/>
      <point x="432" y="620" type="curve"/>
      <point x="219" y="620" type="line"/>
      <point x="151" y="445"/>
      <point x="78" y="211"/>
      <point x="25" y="9" type="curve"/>
      <point x="181" y="0" type="line"/>
    </contour>
    <contour>
      <point x="279" y="370"/>
      <point x="299" y="432"/>
      <point x="318" y="485" type="curve"/>
      <point x="333" y="485" type="line"/>
      <point x="351" y="432"/>
      <point x="371" y="370"/>
      <point x="391" y="301" type="curve"/>
      <point x="259" y="301" type="line"/>
    </contour>
    <contour>
      <point x="459" y="665" type="line"/>
      <point x="459" y="776" type="line"/>
      <point x="192" y="776" type="line"/>
      <point x="192" y="665" type="line"/>
    </contour>
  </outline>
</glyph>
<glyph name="Aogonek" format="1">
  <advance width="651"/>
  <unicode hex="0104"/>
  <note>
	Aogonek
  </note>
  <outline>
    <contour>
      <point x="580" y="-180"/>
      <point x="614" y="-172"/>
      <point x="636" y="-161" type="curve"/>
      <point x="612" y="-63" type="line"/>
      <point x="599" y="-68"/>
      <point x="588" y="-70"/>
      <point x="576" y="-70" type="curve" smooth="yes"/>
      <point x="562" y="-70"/>
      <point x="553" y="-69"/>
      <point x="543" y="-66" type="curve"/>
      <point x="541" y="-60"/>
      <point x="540" y="-56"/>
      <point x="540" y="-49" type="curve" smooth="yes"/>
      <point x="540" y="-27"/>
      <point x="549" y="-11"/>
      <point x="585" y="6" type="curve"/>
      <point x="626" y="9" type="line"/>
      <point x="573" y="211"/>
      <point x="500" y="445"/>
      <point x="432" y="620" type="curve"/>
      <point x="219" y="620" type="line"/>
      <point x="151" y="445"/>
      <point x="78" y="211"/>
      <point x="25" y="9" type="curve"/>
      <point x="181" y="0" type="line"/>
      <point x="194" y="57"/>
      <point x="209" y="114"/>
      <point x="223" y="168" type="curve"/>
      <point x="428" y="168" type="line"/>
      <point x="438" y="116"/>
      <point x="452" y="62"/>
      <point x="468" y="7" type="curve"/>
      <point x="424" y="-18"/>
      <point x="407" y="-49"/>
      <point x="407" y="-90" type="curve" smooth="yes"/>
      <point x="407" y="-147"/>
      <point x="445" y="-180"/>
      <point x="543" y="-180" type="curve" smooth="yes"/>
    </contour>
    <contour>
      <point x="279" y="370"/>
      <point x="299" y="432"/>
      <point x="318" y="485" type="curve"/>
      <point x="333" y="485" type="line"/>
      <point x="351" y="432"/>
      <point x="371" y="370"/>
      <point x="391" y="301" type="curve"/>
      <point x="259" y="301" type="line"/>
    </contour>
  </outline>
</glyph>
<glyph name="ccaron" format="1">
  <advance width="495"/>
  <unicode hex="010D"/>
  <note>
	ccaron
  </note>
  <outline>
    <contour>
      <point x="374" y="-10"/>
      <point x="433" y="23"/>
      <point x="479" y="65" type="curve"/>
      <point x="413" y="172" type="line"/>
      <point x="378" y="144"/>
      <point x="337" y="129"/>
      <point x="288" y="129" type="curve" smooth="yes"/>
      <point x="208" y="129"/>
      <point x="185" y="165"/>
      <point x="185" y="235" type="curve" smooth="yes"/>
      <point x="185" y="271"/>
      <point x="189" y="300"/>
      <point x="199" y="333" type="curve"/>
      <point x="219" y="339"/>
      <point x="239" y="341"/>
      <point x="266" y="341" type="curve" smooth="yes"/>
      <point x="282" y="341"/>
      <point x="299" y="340"/>
      <point x="314" y="337" type="curve"/>
      <point x="322" y="292" type="line"/>
      <point x="445" y="292" type="line"/>
      <point x="453" y="325"/>
      <point x="458" y="367"/>
      <point x="458" y="401" type="curve" smooth="yes"/>
      <point x="458" y="437" type="line"/>
      <point x="417" y="461"/>
      <point x="357" y="478"/>
      <point x="277" y="478" type="curve" smooth="yes"/>
      <point x="128" y="478"/>
      <point x="37" y="380"/>
      <point x="37" y="229" type="curve" smooth="yes"/>
      <point x="37" y="83"/>
      <point x="104" y="-10"/>
      <point x="284" y="-10" type="curve" smooth="yes"/>
    </contour>
    <contour>
      <point x="324" y="520" type="line"/>
      <point x="419" y="663" type="line"/>
      <point x="336" y="678" type="line"/>
      <point x="266" y="618" type="line"/>
      <point x="259" y="618" type="line"/>
      <point x="186" y="678" type="line"/>
      <point x="105" y="663" type="line"/>
      <point x="201" y="520" type="line"/>
    </contour>
  </outline>
</glyph>
<glyph name="Dcaron" format="1">
  <advance width="631"/>
  <unicode hex="010E"/>
  <note>
	Dcaron
  </note>
  <outline>
    <contour>
      <point x="241" y="0" type="line" smooth="yes"/>
      <point x="509" y="0"/>
      <point x="595" y="127"/>
      <point x="595" y="323" type="curve" smooth="yes"/>
      <point x="595" y="517"/>
      <point x="512" y="630"/>
      <point x="281" y="630" type="curve" smooth="yes"/>
      <point x="203" y="630"/>
      <point x="124" y="621"/>
      <point x="65" y="605" type="curve"/>
      <point x="65" y="0" type="line"/>
    </contour>
    <contour>
      <point x="213" y="486" type="line"/>
      <point x="242" y="490"/>
      <point x="264" y="492"/>
      <point x="293" y="492" type="curve" smooth="yes"/>
      <point x="397" y="492"/>
      <point x="445" y="451"/>
      <point x="445" y="308" type="curve" smooth="yes"/>
      <point x="445" y="255"/>
      <point x="439" y="201"/>
      <point x="424" y="158" type="curve"/>
      <point x="380" y="143"/>
      <point x="327" y="138"/>
      <point x="264" y="138" type="curve" smooth="yes"/>
      <point x="213" y="138" type="line"/>
    </contour>
    <contour>
      <point x="372" y="665" type="line"/>
      <point x="467" y="808" type="line"/>
      <point x="384" y="823" type="line"/>
      <point x="314" y="763" type="line"/>
      <point x="307" y="763" type="line"/>
      <point x="234" y="823" type="line"/>
      <point x="153" y="808" type="line"/>
      <point x="249" y="665" type="line"/>
    </contour>
  </outline>
</glyph>
<glyph name="Edotaccent" format="1">
  <advance width="581"/>
  <unicode hex="0116"/>
  <note>
	Edotaccent
  </note>
  <outline>
    <contour>
      <point x="413" y="-10"/>
      <point x="484" y="-1"/>
      <point x="535" y="12" type="curve"/>
      <point x="516" y="146" type="line"/>
      <point x="460" y="133"/>
      <point x="402" y="127"/>
      <point x="333" y="127" type="curve" smooth="yes"/>
      <point x="288" y="127"/>
      <point x="256" y="129"/>
      <point x="215" y="137" type="curve"/>
      <point x="215" y="241" type="line"/>
      <point x="479" y="241" type="line"/>
      <point x="479" y="372" type="line"/>
      <point x="215" y="372" type="line"/>
      <point x="215" y="483" type="line"/>
      <point x="530" y="483" type="line"/>
      <point x="530" y="620" type="line"/>
      <point x="65" y="620" type="line"/>
      <point x="65" y="121" type="line" smooth="yes"/>
      <point x="65" y="16"/>
      <point x="176" y="-10"/>
      <point x="328" y="-10" type="curve" smooth="yes"/>
    </contour>
    <contour>
      <point x="352" y="664"/>
      <point x="382" y="693"/>
      <point x="382" y="740" type="curve" smooth="yes"/>
      <point x="382" y="791"/>
      <point x="352" y="819"/>
      <point x="301" y="819" type="curve" smooth="yes"/>
      <point x="249" y="819"/>
      <point x="219" y="791"/>
      <point x="219" y="740" type="curve" smooth="yes"/>
      <point x="219" y="693"/>
      <point x="249" y="664"/>
      <point x="301" y="664" type="curve" smooth="yes"/>
    </contour>
  </outline>
</glyph>
<glyph name="Gcircumflex" format="1">
  <advance width="642"/>
  <unicode hex="011C"/>
  <note>
	Gcircumflex
  </note>
  <outline>
    <contour>
      <point x="495" y="-10"/>
      <point x="594" y="44"/>
      <point x="594" y="133" type="curve" smooth="yes"/>
      <point x="594" y="295" type="line"/>
      <point x="520" y="355" type="line"/>
      <point x="313" y="355" type="line"/>
      <point x="313" y="230" type="line"/>
      <point x="446" y="230" type="line"/>
      <point x="446" y="135" type="line"/>
      <point x="415" y="129"/>
      <point x="399" y="127"/>
      <point x="358" y="127" type="curve" smooth="yes"/>
      <point x="236" y="127"/>
      <point x="194" y="174"/>
      <point x="194" y="297" type="curve" smooth="yes"/>
      <point x="194" y="361"/>
      <point x="201" y="420"/>
      <point x="218" y="479" type="curve"/>
      <point x="259" y="488"/>
      <point x="290" y="491"/>
      <point x="328" y="491" type="curve" smooth="yes"/>
      <point x="377" y="491"/>
      <point x="406" y="489"/>
      <point x="437" y="483" type="curve"/>
      <point x="447" y="413" type="line"/>
      <point x="570" y="413" type="line"/>
      <point x="579" y="445"/>
      <point x="583" y="500"/>
      <point x="583" y="541" type="curve" smooth="yes"/>
      <point x="583" y="583" type="line"/>
      <point x="529" y="609"/>
      <point x="458" y="630"/>
      <point x="357" y="630" type="curve" smooth="yes"/>
      <point x="146" y="630"/>
      <point x="44" y="488"/>
      <point x="44" y="291" type="curve" smooth="yes"/>
      <point x="44" y="89"/>
      <point x="141" y="-10"/>
      <point x="344" y="-10" type="curve" smooth="yes"/>
    </contour>
    <contour>
      <point x="338" y="725" type="line"/>
      <point x="345" y="725" type="line"/>
      <point x="415" y="665" type="line"/>
      <point x="498" y="680" type="line"/>
      <point x="403" y="823" type="line"/>
      <point x="280" y="823" type="line"/>
      <point x="184" y="680" type="line"/>
      <point x="265" y="665" type="line"/>
    </contour>
  </outline>
</glyph>
<glyph name="gcircumflex" format="1">
  <advance width="562"/>
  <unicode hex="011D"/>
  <note>
	gcircumflex
  </note>
  <outline>
    <contour>
      <point x="398" y="-197"/>
      <point x="502" y="-156"/>
      <point x="502" y="-47" type="curve" smooth="yes"/>
      <point x="502" y="472" type="line"/>
      <point x="376" y="472" type="line"/>
      <point x="370" y="411" type="line"/>
      <point x="363" y="411" type="line"/>
      <point x="335" y="452"/>
      <point x="304" y="482"/>
      <point x="230" y="482" type="curve" smooth="yes"/>
      <point x="90" y="482"/>
      <point x="40" y="379"/>
      <point x="40" y="222" type="curve" smooth="yes"/>
      <point x="40" y="96"/>
      <point x="90" y="4"/>
      <point x="221" y="4" type="curve" smooth="yes"/>
      <point x="283" y="4"/>
      <point x="319" y="21"/>
      <point x="356" y="58" type="curve"/>
      <point x="364" y="58" type="line"/>
      <point x="361" y="2" type="line"/>
      <point x="361" y="-49" type="line"/>
      <point x="327" y="-62"/>
      <point x="305" y="-66"/>
      <point x="249" y="-66" type="curve" smooth="yes"/>
      <point x="195" y="-66"/>
      <point x="138" y="-53"/>
      <point x="93" y="-33" type="curve"/>
      <point x="70" y="-156" type="line"/>
      <point x="115" y="-182"/>
      <point x="184" y="-197"/>
      <point x="257" y="-197" type="curve" smooth="yes"/>
    </contour>
    <contour>
      <point x="211" y="143"/>
      <point x="191" y="177"/>
      <point x="191" y="237" type="curve" smooth="yes"/>
      <point x="191" y="316"/>
      <point x="215" y="340"/>
      <point x="263" y="340" type="curve" smooth="yes"/>
      <point x="307" y="340"/>
      <point x="333" y="323"/>
      <point x="354" y="299" type="curve"/>
      <point x="354" y="183" type="line"/>
      <point x="328" y="156"/>
      <point x="306" y="143"/>
      <point x="260" y="143" type="curve" smooth="yes"/>
    </contour>
    <contour>
      <point x="278" y="580" type="line"/>
      <point x="285" y="580" type="line"/>
      <point x="355" y="520" type="line"/>
      <point x="438" y="535" type="line"/>
      <point x="343" y="678" type="line"/>
      <point x="220" y="678" type="line"/>
      <point x="124" y="535" type="line"/>
      <point x="205" y="520" type="line"/>
    </contour>
  </outline>
</glyph>
<glyph name="Gbreve" format="1">
  <advance width="642"/>
  <unicode hex="011E"/>
  <note>
	Gbreve
  </note>
  <outline>
    <contour>
      <point x="495" y="-10"/>
      <point x="594" y="44"/>
      <point x="594" y="133" type="curve" smooth="yes"/>
      <point x="594" y="295" type="line"/>
      <point x="520" y="355" type="line"/>
      <point x="313" y="355" type="line"/>
      <point x="313" y="230" type="line"/>
      <point x="446" y="230" type="line"/>
      <point x="446" y="135" type="line"/>
      <point x="415" y="129"/>
      <point x="399" y="127"/>
      <point x="358" y="127" type="curve" smooth="yes"/>
      <point x="236" y="127"/>
      <point x="194" y="174"/>
      <point x="194" y="297" type="curve" smooth="yes"/>
      <point x="194" y="361"/>
      <point x="201" y="420"/>
      <point x="218" y="479" type="curve"/>
      <point x="259" y="488"/>
      <point x="290" y="491"/>
      <point x="328" y="491" type="curve" smooth="yes"/>
      <point x="377" y="491"/>
      <point x="406" y="489"/>
      <point x="437" y="483" type="curve"/>
      <point x="447" y="413" type="line"/>
      <point x="570" y="413" type="line"/>
      <point x="579" y="445"/>
      <point x="583" y="500"/>
      <point x="583" y="541" type="curve" smooth="yes"/>
      <point x="583" y="583" type="line"/>
      <point x="529" y="609"/>
      <point x="458" y="630"/>
      <point x="357" y="630" type="curve" smooth="yes"/>
      <point x="146" y="630"/>
      <point x="44" y="488"/>
      <point x="44" y="291" type="curve" smooth="yes"/>
      <point x="44" y="89"/>
      <point x="141" y="-10"/>
      <point x="344" y="-10" type="curve" smooth="yes"/>
    </contour>
    <contour>
      <point x="452" y="665"/>
      <point x="497" y="712"/>
      <point x="505" y="807" type="curve"/>
      <point x="379" y="826" type="line"/>
      <point x="378" y="799"/>
      <point x="367" y="781"/>
      <point x="341" y="781" type="curve" smooth="yes"/>
      <point x="315" y="781"/>
      <point x="304" y="799"/>
      <point x="303" y="826" type="curve"/>
      <point x="177" y="807" type="line"/>
      <point x="185" y="712"/>
      <point x="230" y="665"/>
      <point x="341" y="665" type="curve" smooth="yes"/>
    </contour>
  </outline>
</glyph>
<glyph name="gdotaccent" format="1">
  <advance width="562"/>
  <unicode hex="0121"/>
  <note>
	gdotaccent
  </note>
  <outline>
    <contour>
      <point x="398" y="-197"/>
      <point x="502" y="-156"/>
      <point x="502" y="-47" type="curve" smooth="yes"/>
      <point x="502" y="472" type="line"/>
      <point x="376" y="472" type="line"/>
      <point x="370" y="411" type="line"/>
      <point x="363" y="411" type="line"/>
      <point x="335" y="452"/>
      <point x="304" y="482"/>
      <point x="230" y="482" type="curve" smooth="yes"/>
      <point x="90" y="482"/>
      <point x="40" y="379"/>
      <point x="40" y="222" type="curve" smooth="yes"/>
      <point x="40" y="96"/>
      <point x="90" y="4"/>
      <point x="221" y="4" type="curve" smooth="yes"/>
      <point x="283" y="4"/>
      <point x="319" y="21"/>
      <point x="356" y="58" type="curve"/>
      <point x="364" y="58" type="line"/>
      <point x="361" y="2" type="line"/>
      <point x="361" y="-49" type="line"/>
      <point x="327" y="-62"/>
      <point x="305" y="-66"/>
      <point x="249" y="-66" type="curve" smooth="yes"/>
      <point x="195" y="-66"/>
      <point x="138" y="-53"/>
      <point x="93" y="-33" type="curve"/>
      <point x="70" y="-156" type="line"/>
      <point x="115" y="-182"/>
      <point x="184" y="-197"/>
      <point x="257" y="-197" type="curve" smooth="yes"/>
    </contour>
    <contour>
      <point x="211" y="143"/>
      <point x="191" y="177"/>
      <point x="191" y="237" type="curve" smooth="yes"/>
      <point x="191" y="316"/>
      <point x="215" y="340"/>
      <point x="263" y="340" type="curve" smooth="yes"/>
      <point x="307" y="340"/>
      <point x="333" y="323"/>
      <point x="354" y="299" type="curve"/>
      <point x="354" y="183" type="line"/>
      <point x="328" y="156"/>
      <point x="306" y="143"/>
      <point x="260" y="143" type="curve" smooth="yes"/>
    </contour>
    <contour>
      <point x="342" y="520"/>
      <point x="372" y="549"/>
      <point x="372" y="596" type="curve" smooth="yes"/>
      <point x="372" y="647"/>
      <point x="342" y="675"/>
      <point x="291" y="675" type="curve" smooth="yes"/>
      <point x="239" y="675"/>
      <point x="209" y="647"/>
      <point x="209" y="596" type="curve" smooth="yes"/>
      <point x="209" y="549"/>
      <point x="239" y="520"/>
      <point x="291" y="520" type="curve" smooth="yes"/>
    </contour>
  </outline>
</glyph>
<glyph name="Gcommaaccent" format="1">
  <advance width="642"/>
  <unicode hex="0122"/>
  <note>
	Gcommaaccent
  </note>
  <outline>
    <contour>
      <point x="495" y="-10"/>
      <point x="594" y="44"/>
      <point x="594" y="133" type="curve" smooth="yes"/>
      <point x="594" y="295" type="line"/>
      <point x="520" y="355" type="line"/>
      <point x="313" y="355" type="line"/>
      <point x="313" y="230" type="line"/>
      <point x="446" y="230" type="line"/>
      <point x="446" y="135" type="line"/>
      <point x="415" y="129"/>
      <point x="399" y="127"/>
      <point x="358" y="127" type="curve" smooth="yes"/>
      <point x="236" y="127"/>
      <point x="194" y="174"/>
      <point x="194" y="297" type="curve" smooth="yes"/>
      <point x="194" y="361"/>
      <point x="201" y="420"/>
      <point x="218" y="479" type="curve"/>
      <point x="259" y="488"/>
      <point x="290" y="491"/>
      <point x="328" y="491" type="curve" smooth="yes"/>
      <point x="377" y="491"/>
      <point x="406" y="489"/>
      <point x="437" y="483" type="curve"/>
      <point x="447" y="413" type="line"/>
      <point x="570" y="413" type="line"/>
      <point x="579" y="445"/>
      <point x="583" y="500"/>
      <point x="583" y="541" type="curve" smooth="yes"/>
      <point x="583" y="583" type="line"/>
      <point x="529" y="609"/>
      <point x="458" y="630"/>
      <point x="357" y="630" type="curve" smooth="yes"/>
      <point x="146" y="630"/>
      <point x="44" y="488"/>
      <point x="44" y="291" type="curve" smooth="yes"/>
      <point x="44" y="89"/>
      <point x="141" y="-10"/>
      <point x="344" y="-10" type="curve" smooth="yes"/>
    </contour>
    <contour>
      <point x="427" y="-220"/>
      <point x="452" y="-172"/>
      <point x="452" y="-126" type="curve" smooth="yes"/>
      <point x="452" y="-68"/>
      <point x="422" y="-40"/>
      <point x="359" y="-40" type="curve" smooth="yes"/>
      <point x="329" y="-40"/>
      <point x="296" y="-46"/>
      <point x="274" y="-54" type="curve"/>
      <point x="274" y="-155" type="line"/>
      <point x="327" y="-155" type="line"/>
      <point x="324" y="-182"/>
      <point x="316" y="-203"/>
      <point x="297" y="-233" type="curve"/>
      <point x="393" y="-254" type="line"/>
    </contour>
  </outline>
</glyph>
<glyph name="gcommaaccent" format="1">
  <advance width="562"/>
  <unicode hex="0123"/>
  <note>
	gcommaaccent
  </note>
  <outline>
    <contour>
      <point x="398" y="-197"/>
      <point x="502" y="-156"/>
      <point x="502" y="-47" type="curve" smooth="yes"/>
      <point x="502" y="472" type="line"/>
      <point x="376" y="472" type="line"/>
      <point x="370" y="411" type="line"/>
      <point x="363" y="411" type="line"/>
      <point x="335" y="452"/>
      <point x="304" y="482"/>
      <point x="230" y="482" type="curve" smooth="yes"/>
      <point x="90" y="482"/>
      <point x="40" y="379"/>
      <point x="40" y="222" type="curve" smooth="yes"/>
      <point x="40" y="96"/>
      <point x="90" y="4"/>
      <point x="221" y="4" type="curve" smooth="yes"/>
      <point x="283" y="4"/>
      <point x="319" y="21"/>
      <point x="356" y="58" type="curve"/>
      <point x="364" y="58" type="line"/>
      <point x="361" y="2" type="line"/>
      <point x="361" y="-49" type="line"/>
      <point x="327" y="-62"/>
      <point x="305" y="-66"/>
      <point x="249" y="-66" type="curve" smooth="yes"/>
      <point x="195" y="-66"/>
      <point x="138" y="-53"/>
      <point x="93" y="-33" type="curve"/>
      <point x="70" y="-156" type="line"/>
      <point x="115" y="-182"/>
      <point x="184" y="-197"/>
      <point x="257" y="-197" type="curve" smooth="yes"/>
    </contour>
    <contour>
      <point x="211" y="143"/>
      <point x="191" y="177"/>
      <point x="191" y="237" type="curve" smooth="yes"/>
      <point x="191" y="316"/>
      <point x="215" y="340"/>
      <point x="263" y="340" type="curve" smooth="yes"/>
      <point x="307" y="340"/>
      <point x="333" y="323"/>
      <point x="354" y="299" type="curve"/>
      <point x="354" y="183" type="line"/>
      <point x="328" y="156"/>
      <point x="306" y="143"/>
      <point x="260" y="143" type="curve" smooth="yes"/>
    </contour>
    <contour>
      <point x="362" y="554"/>
      <point x="387" y="602"/>
      <point x="387" y="648" type="curve" smooth="yes"/>
      <point x="387" y="706"/>
      <point x="357" y="734"/>
      <point x="294" y="734" type="curve" smooth="yes"/>
      <point x="264" y="734"/>
      <point x="231" y="728"/>
      <point x="209" y="720" type="curve"/>
      <point x="209" y="619" type="line"/>
      <point x="262" y="619" type="line"/>
      <point x="259" y="592"/>
      <point x="251" y="571"/>
      <point x="232" y="541" type="curve"/>
      <point x="328" y="520" type="line"/>
    </contour>
  </outline>
</glyph>
<glyph name="Hcircumflex" format="1">
  <advance width="646"/>
  <unicode hex="0124"/>
  <note>
	Hcircumflex
  </note>
  <outline>
    <contour>
      <point x="215" y="0" type="line"/>
      <point x="215" y="230" type="line"/>
      <point x="431" y="230" type="line"/>
      <point x="431" y="0" type="line"/>
      <point x="581" y="0" type="line"/>
      <point x="581" y="620" type="line"/>
      <point x="431" y="620" type="line"/>
      <point x="431" y="370" type="line"/>
      <point x="215" y="370" type="line"/>
      <point x="215" y="620" type="line"/>
      <point x="65" y="620" type="line"/>
      <point x="65" y="0" type="line"/>
    </contour>
    <contour>
      <point x="320" y="725" type="line"/>
      <point x="327" y="725" type="line"/>
      <point x="397" y="665" type="line"/>
      <point x="480" y="680" type="line"/>
      <point x="385" y="823" type="line"/>
      <point x="262" y="823" type="line"/>
      <point x="166" y="680" type="line"/>
      <point x="247" y="665" type="line"/>
    </contour>
  </outline>
</glyph>
<glyph name="hcircumflex" format="1">
  <advance width="583"/>
  <unicode hex="0125"/>
  <note>
	hcircumflex
  </note>
  <outline>
    <contour>
      <point x="212" y="0" type="line"/>
      <point x="212" y="308" type="line"/>
      <point x="240" y="330"/>
      <point x="274" y="340"/>
      <point x="317" y="340" type="curve" smooth="yes"/>
      <point x="337" y="340"/>
      <point x="358" y="338"/>
      <point x="375" y="331" type="curve"/>
      <point x="375" y="0" type="line"/>
      <point x="523" y="0" type="line"/>
      <point x="523" y="344" type="line" smooth="yes"/>
      <point x="523" y="437"/>
      <point x="468" y="482"/>
      <point x="377" y="482" type="curve" smooth="yes"/>
      <point x="305" y="482"/>
      <point x="254" y="451"/>
      <point x="213" y="402" type="curve"/>
      <point x="207" y="402" type="line"/>
      <point x="212" y="488" type="line"/>
      <point x="212" y="671" type="line"/>
      <point x="64" y="671" type="line"/>
      <point x="64" y="0" type="line"/>
    </contour>
    <contour>
      <point x="313" y="766" type="line"/>
      <point x="320" y="766" type="line"/>
      <point x="390" y="706" type="line"/>
      <point x="473" y="721" type="line"/>
      <point x="378" y="864" type="line"/>
      <point x="255" y="864" type="line"/>
      <point x="159" y="721" type="line"/>
      <point x="240" y="706" type="line"/>
    </contour>
  </outline>
</glyph>
<glyph name="Itilde" format="1">
  <advance width="286"/>
  <unicode hex="0128"/>
  <note>
	Itilde
  </note>
  <outline>
    <contour>
      <point x="218" y="0" type="line"/>
      <point x="218" y="620" type="line"/>
      <point x="68" y="620" type="line"/>
      <point x="68" y="0" type="line"/>
    </contour>
    <contour>
      <point x="58" y="685"/>
      <point x="61" y="706"/>
      <point x="87" y="706" type="curve" smooth="yes"/>
      <point x="122" y="706"/>
      <point x="158" y="665"/>
      <point x="205" y="665" type="curve" smooth="yes"/>
      <point x="278" y="665"/>
      <point x="301" y="720"/>
      <point x="302" y="803" type="curve"/>
      <point x="210" y="828" type="line"/>
      <point x="209" y="800"/>
      <point x="206" y="779"/>
      <point x="180" y="779" type="curve" smooth="yes"/>
      <point x="151" y="779"/>
      <point x="117" y="820"/>
      <point x="67" y="820" type="curve" smooth="yes"/>
      <point x="-11" y="820"/>
      <point x="-34" y="765"/>
      <point x="-35" y="682" type="curve"/>
      <point x="57" y="657" type="line"/>
    </contour>
  </outline>
</glyph>
<glyph name="imacron" format="1">
  <advance width="288"/>
  <unicode hex="012B"/>
  <note>
	imacron
  </note>
  <outline>
    <contour>
      <point x="218" y="0" type="line"/>
      <point x="218" y="472" type="line"/>
      <point x="70" y="472" type="line"/>
      <point x="70" y="0" type="line"/>
    </contour>
    <contour>
      <point x="330" y="520" type="line"/>
      <point x="330" y="658" type="line"/>
      <point x="-42" y="658" type="line"/>
      <point x="-42" y="520" type="line"/>
    </contour>
  </outline>
</glyph>
<glyph name="ibreve" format="1">
  <advance width="274"/>
  <unicode hex="012D"/>
  <note>
	ibreve
  </note>
  <outline>
    <contour>
      <point x="211" y="0" type="line"/>
      <point x="211" y="472" type="line"/>
      <point x="63" y="472" type="line"/>
      <point x="63" y="0" type="line"/>
    </contour>
    <contour>
      <point x="250" y="520"/>
      <point x="295" y="567"/>
      <point x="303" y="662" type="curve"/>
      <point x="177" y="681" type="line"/>
      <point x="176" y="654"/>
      <point x="165" y="636"/>
      <point x="139" y="636" type="curve" smooth="yes"/>
      <point x="113" y="636"/>
      <point x="102" y="654"/>
      <point x="101" y="681" type="curve"/>
      <point x="-25" y="662" type="line"/>
      <point x="-17" y="567"/>
      <point x="28" y="520"/>
      <point x="139" y="520" type="curve" smooth="yes"/>
    </contour>
  </outline>
</glyph>
<glyph name="Idotaccent" format="1">
  <advance width="286"/>
  <unicode hex="0130"/>
  <note>
	Idotaccent
  </note>
  <outline>
    <contour>
      <point x="218" y="0" type="line"/>
      <point x="218" y="620" type="line"/>
      <point x="68" y="620" type="line"/>
      <point x="68" y="0" type="line"/>
    </contour>
    <contour>
      <point x="194" y="665"/>
      <point x="224" y="694"/>
      <point x="224" y="741" type="curve" smooth="yes"/>
      <point x="224" y="792"/>
      <point x="194" y="820"/>
      <point x="143" y="820" type="curve" smooth="yes"/>
      <point x="91" y="820"/>
      <point x="61" y="792"/>
      <point x="61" y="741" type="curve" smooth="yes"/>
      <point x="61" y="694"/>
      <point x="91" y="665"/>
      <point x="143" y="665" type="curve" smooth="yes"/>
    </contour>
  </outline>
</glyph>
<glyph name="dotlessi" format="1">
  <advance width="274"/>
  <unicode hex="0131"/>
  <note>
	dotlessi
  </note>
  <outline>
    <contour>
      <point x="211" y="0" type="line"/>
      <point x="211" y="472" type="line"/>
      <point x="63" y="472" type="line"/>
      <point x="63" y="0" type="line"/>
    </contour>
  </outline>
</glyph>
<glyph name="jcircumflex" format="1">
  <advance width="347"/>
  <unicode hex="0135"/>
  <note>
	jcircumflex
  </note>
  <outline>
    <contour>
      <point x="237" y="-198"/>
      <point x="279" y="-116"/>
      <point x="279" y="-7" type="curve" smooth="yes"/>
      <point x="279" y="468" type="line"/>
      <point x="131" y="468" type="line"/>
      <point x="131" y="6" type="line" smooth="yes"/>
      <point x="131" y="-16"/>
      <point x="129" y="-36"/>
      <point x="123" y="-51" type="curve"/>
      <point x="107" y="-56"/>
      <point x="92" y="-58"/>
      <point x="72" y="-58" type="curve" smooth="yes"/>
      <point x="46" y="-58"/>
      <point x="26" y="-53"/>
      <point x="-5" y="-42" type="curve"/>
      <point x="-44" y="-169" type="line"/>
      <point x="-6" y="-185"/>
      <point x="49" y="-198"/>
      <point x="93" y="-198" type="curve" smooth="yes"/>
    </contour>
    <contour>
      <point x="197" y="580" type="line"/>
      <point x="204" y="580" type="line"/>
      <point x="274" y="520" type="line"/>
      <point x="357" y="535" type="line"/>
      <point x="262" y="678" type="line"/>
      <point x="139" y="678" type="line"/>
      <point x="43" y="535" type="line"/>
      <point x="124" y="520" type="line"/>
    </contour>
  </outline>
</glyph>
<glyph name="Kcommaaccent" format="1">
  <advance width="634"/>
  <unicode hex="0136"/>
  <note>
	Kcommaaccent
  </note>
  <outline>
    <contour>
      <point x="563" y="-5"/>
      <point x="592" y="-1"/>
      <point x="611" y="4" type="curve"/>
      <point x="611" y="88" type="line"/>
      <point x="568" y="97" type="line"/>
      <point x="481" y="230" type="line" smooth="yes"/>
      <point x="450" y="277"/>
      <point x="437" y="296"/>
      <point x="387" y="311" type="curve"/>
      <point x="387" y="317" type="line"/>
      <point x="454" y="339"/>
      <point x="476" y="359"/>
      <point x="505" y="425" type="curve" smooth="yes"/>
      <point x="528" y="477"/>
      <point x="550" y="530"/>
      <point x="573" y="582" type="curve"/>
      <point x="429" y="626" type="line"/>
      <point x="403" y="563"/>
      <point x="376" y="500"/>
      <point x="350" y="437" type="curve" smooth="yes"/>
      <point x="334" y="398"/>
      <point x="315" y="379"/>
      <point x="257" y="379" type="curve" smooth="yes"/>
      <point x="214" y="379" type="line"/>
      <point x="214" y="620" type="line"/>
      <point x="65" y="620" type="line"/>
      <point x="65" y="0" type="line"/>
      <point x="214" y="0" type="line"/>
      <point x="214" y="242" type="line"/>
      <point x="263" y="242" type="line" smooth="yes"/>
      <point x="315" y="242"/>
      <point x="329" y="229"/>
      <point x="346" y="192" type="curve" smooth="yes"/>
      <point x="407" y="62" type="line" smooth="yes"/>
      <point x="429" y="16"/>
      <point x="460" y="-5"/>
      <point x="525" y="-5" type="curve" smooth="yes"/>
    </contour>
    <contour>
      <point x="386" y="-210"/>
      <point x="411" y="-162"/>
      <point x="411" y="-116" type="curve" smooth="yes"/>
      <point x="411" y="-58"/>
      <point x="381" y="-30"/>
      <point x="318" y="-30" type="curve" smooth="yes"/>
      <point x="288" y="-30"/>
      <point x="255" y="-36"/>
      <point x="233" y="-44" type="curve"/>
      <point x="233" y="-145" type="line"/>
      <point x="286" y="-145" type="line"/>
      <point x="283" y="-172"/>
      <point x="275" y="-193"/>
      <point x="256" y="-223" type="curve"/>
      <point x="352" y="-244" type="line"/>
    </contour>
  </outline>
</glyph>
<glyph name="kgreenlandic" format="1">
  <advance width="497"/>
  <unicode hex="0138"/>
  <note>
	kgreenlandic
  </note>
  <outline>
    <contour>
      <point x="439" y="-5"/>
      <point x="463" y="-1"/>
      <point x="485" y="6" type="curve"/>
      <point x="485" y="74" type="line"/>
      <point x="456" y="83" type="line"/>
      <point x="412" y="166" type="line" smooth="yes"/>
      <point x="391" y="206"/>
      <point x="373" y="228"/>
      <point x="326" y="242" type="curve"/>
      <point x="326" y="248" type="line"/>
      <point x="375" y="264"/>
      <point x="399" y="292"/>
      <point x="415" y="330" type="curve" smooth="yes"/>
      <point x="469" y="457" type="line"/>
      <point x="329" y="488" type="line"/>
      <point x="270" y="353" type="line" smooth="yes"/>
      <point x="253" y="315"/>
      <point x="240" y="307"/>
      <point x="198" y="307" type="curve" smooth="yes"/>
      <point x="182" y="307" type="line"/>
      <point x="182" y="481" type="line"/>
      <point x="38" y="481" type="line"/>
      <point x="38" y="0" type="line"/>
      <point x="182" y="0" type="line"/>
      <point x="182" y="184" type="line"/>
      <point x="201" y="184" type="line" smooth="yes"/>
      <point x="244" y="184"/>
      <point x="263" y="174"/>
      <point x="282" y="129" type="curve" smooth="yes"/>
      <point x="316" y="50" type="line" smooth="yes"/>
      <point x="332" y="14"/>
      <point x="362" y="-5"/>
      <point x="410" y="-5" type="curve" smooth="yes"/>
    </contour>
  </outline>
</glyph>
<glyph name="lacute" format="1">
  <advance width="335"/>
  <unicode hex="013A"/>
  <note>
	lacute
  </note>
  <outline>
    <contour>
      <point x="234" y="-6"/>
      <point x="300" y="52"/>
      <point x="327" y="96" type="curve"/>
      <point x="280" y="162" type="line"/>
      <point x="226" y="133" type="line"/>
      <point x="212" y="133" type="line"/>
      <point x="208" y="144"/>
      <point x="206" y="157"/>
      <point x="206" y="177" type="curve" smooth="yes"/>
      <point x="206" y="671" type="line"/>
      <point x="58" y="671" type="line"/>
      <point x="58" y="97" type="line" smooth="yes"/>
      <point x="58" y="55"/>
      <point x="136" y="6"/>
      <point x="182" y="-6" type="curve"/>
    </contour>
    <contour>
      <point x="314" y="856" type="line"/>
      <point x="158" y="872" type="line"/>
      <point x="76" y="707" type="line"/>
      <point x="180" y="687" type="line"/>
    </contour>
  </outline>
</glyph>
<glyph name="ldot" format="1">
  <advance width="405"/>
  <unicode hex="0140"/>
  <note>
	ldot
  </note>
  <outline>
    <contour>
      <point x="234" y="-6"/>
      <point x="300" y="52"/>
      <point x="327" y="96" type="curve"/>
      <point x="280" y="162" type="line"/>
      <point x="226" y="133" type="line"/>
      <point x="212" y="133" type="line"/>
      <point x="208" y="144"/>
      <point x="206" y="157"/>
      <point x="206" y="177" type="curve" smooth="yes"/>
      <point x="206" y="675" type="line"/>
      <point x="58" y="675" type="line"/>
      <point x="58" y="97" type="line" smooth="yes"/>
      <point x="58" y="55"/>
      <point x="136" y="6"/>
      <point x="182" y="-6" type="curve"/>
    </contour>
    <contour>
      <point x="385" y="268"/>
      <point x="415" y="298"/>
      <point x="415" y="340" type="curve" smooth="yes"/>
      <point x="415" y="382"/>
      <point x="385" y="412"/>
      <point x="341" y="412" type="curve" smooth="yes"/>
      <point x="297" y="412"/>
      <point x="267" y="382"/>
      <point x="267" y="340" type="curve" smooth="yes"/>
      <point x="267" y="298"/>
      <point x="297" y="268"/>
      <point x="341" y="268" type="curve" smooth="yes"/>
    </contour>
  </outline>
</glyph>
<glyph name="Lslash" format="1">
  <advance width="519"/>
  <unicode hex="0141"/>
  <note>
	Lslash
  </note>
  <outline>
    <contour>
      <point x="495" y="0" type="line"/>
      <point x="495" y="140" type="line"/>
      <point x="222" y="140" type="line"/>
      <point x="222" y="255" type="line"/>
      <point x="360" y="299" type="line"/>
      <point x="322" y="420" type="line"/>
      <point x="222" y="388" type="line"/>
      <point x="222" y="620" type="line"/>
      <point x="72" y="620" type="line"/>
      <point x="72" y="340" type="line"/>
      <point x="-42" y="304" type="line"/>
      <point x="-4" y="183" type="line"/>
      <point x="72" y="207" type="line"/>
      <point x="72" y="0" type="line"/>
    </contour>
  </outline>
</glyph>
<glyph name="Nacute" format="1">
  <advance width="669"/>
  <unicode hex="0143"/>
  <note>
	Nacute
  </note>
  <outline>
    <contour>
      <point x="214" y="0" type="line"/>
      <point x="214" y="298" type="line"/>
      <point x="202" y="461" type="line"/>
      <point x="210" y="463" type="line"/>
      <point x="407" y="0" type="line"/>
      <point x="604" y="0" type="line"/>
      <point x="604" y="620" type="line"/>
      <point x="455" y="620" type="line"/>
      <point x="455" y="322" type="line"/>
      <point x="467" y="159" type="line"/>
      <point x="459" y="157" type="line"/>
      <point x="262" y="620" type="line"/>
      <point x="65" y="620" type="line"/>
      <point x="65" y="0" type="line"/>
    </contour>
    <contour>
      <point x="513" y="843" type="line"/>
      <point x="357" y="859" type="line"/>
      <point x="275" y="694" type="line"/>
      <point x="379" y="674" type="line"/>
    </contour>
  </outline>
</glyph>
<glyph name="Ncommaaccent" format="1">
  <advance width="669"/>
  <unicode hex="0145"/>
  <note>
	Ncommaaccent
  </note>
  <outline>
    <contour>
      <point x="214" y="0" type="line"/>
      <point x="214" y="298" type="line"/>
      <point x="202" y="461" type="line"/>
      <point x="210" y="463" type="line"/>
      <point x="407" y="0" type="line"/>
      <point x="604" y="0" type="line"/>
      <point x="604" y="620" type="line"/>
      <point x="455" y="620" type="line"/>
      <point x="455" y="322" type="line"/>
      <point x="467" y="159" type="line"/>
      <point x="459" y="157" type="line"/>
      <point x="262" y="620" type="line"/>
      <point x="65" y="620" type="line"/>
      <point x="65" y="0" type="line"/>
    </contour>
    <contour>
      <point x="430" y="-210"/>
      <point x="455" y="-162"/>
      <point x="455" y="-116" type="curve" smooth="yes"/>
      <point x="455" y="-58"/>
      <point x="425" y="-30"/>
      <point x="362" y="-30" type="curve" smooth="yes"/>
      <point x="332" y="-30"/>
      <point x="299" y="-36"/>
      <point x="277" y="-44" type="curve"/>
      <point x="277" y="-145" type="line"/>
      <point x="330" y="-145" type="line"/>
      <point x="327" y="-172"/>
      <point x="319" y="-193"/>
      <point x="300" y="-223" type="curve"/>
      <point x="396" y="-244" type="line"/>
    </contour>
  </outline>
</glyph>
<glyph name="ncommaaccent" format="1">
  <advance width="585"/>
  <unicode hex="0146"/>
  <note>
	ncommaaccent
  </note>
  <outline>
    <contour>
      <point x="222" y="0" type="line"/>
      <point x="222" y="310" type="line"/>
      <point x="245" y="330"/>
      <point x="280" y="342"/>
      <point x="325" y="342" type="curve" smooth="yes"/>
      <point x="348" y="342"/>
      <point x="365" y="339"/>
      <point x="378" y="333" type="curve"/>
      <point x="378" y="0" type="line"/>
      <point x="525" y="0" type="line"/>
      <point x="525" y="344" type="line" smooth="yes"/>
      <point x="525" y="432"/>
      <point x="477" y="482"/>
      <point x="386" y="482" type="curve" smooth="yes"/>
      <point x="310" y="482"/>
      <point x="260" y="446"/>
      <point x="225" y="398" type="curve"/>
      <point x="217" y="398" type="line"/>
      <point x="211" y="472" type="line"/>
      <point x="75" y="472" type="line"/>
      <point x="75" y="0" type="line"/>
    </contour>
    <contour>
      <point x="361" y="-210"/>
      <point x="386" y="-162"/>
      <point x="386" y="-116" type="curve" smooth="yes"/>
      <point x="386" y="-58"/>
      <point x="356" y="-30"/>
      <point x="293" y="-30" type="curve" smooth="yes"/>
      <point x="263" y="-30"/>
      <point x="230" y="-36"/>
      <point x="208" y="-44" type="curve"/>
      <point x="208" y="-145" type="line"/>
      <point x="261" y="-145" type="line"/>
      <point x="258" y="-172"/>
      <point x="250" y="-193"/>
      <point x="231" y="-223" type="curve"/>
      <point x="327" y="-244" type="line"/>
    </contour>
  </outline>
</glyph>
<glyph name="napostrophe" format="1">
  <advance width="710"/>
  <unicode hex="0149"/>
  <note>
	napostrophe
  </note>
  <outline>
    <contour>
      <point x="347" y="0" type="line"/>
      <point x="347" y="310" type="line"/>
      <point x="370" y="330"/>
      <point x="405" y="342"/>
      <point x="450" y="342" type="curve" smooth="yes"/>
      <point x="473" y="342"/>
      <point x="490" y="339"/>
      <point x="503" y="333" type="curve"/>
      <point x="503" y="0" type="line"/>
      <point x="650" y="0" type="line"/>
      <point x="650" y="344" type="line" smooth="yes"/>
      <point x="650" y="432"/>
      <point x="602" y="482"/>
      <point x="511" y="482" type="curve" smooth="yes"/>
      <point x="435" y="482"/>
      <point x="385" y="446"/>
      <point x="350" y="398" type="curve"/>
      <point x="342" y="398" type="line"/>
      <point x="336" y="472" type="line"/>
      <point x="200" y="472" type="line"/>
      <point x="200" y="0" type="line"/>
    </contour>
    <contour>
      <point x="133" y="306"/>
      <point x="158" y="354"/>
      <point x="158" y="400" type="curve" smooth="yes"/>
      <point x="158" y="458"/>
      <point x="128" y="486"/>
      <point x="65" y="486" type="curve" smooth="yes"/>
      <point x="35" y="486"/>
      <point x="2" y="480"/>
      <point x="-20" y="472" type="curve"/>
      <point x="-20" y="371" type="line"/>
      <point x="33" y="371" type="line"/>
      <point x="30" y="344"/>
      <point x="22" y="323"/>
      <point x="3" y="293" type="curve"/>
      <point x="99" y="272" type="line"/>
    </contour>
  </outline>
</glyph>
<glyph name="eng" format="1">
  <advance width="585"/>
  <unicode hex="014B"/>
  <note>
	eng
  </note>
  <outline>
    <contour>
      <point x="458" y="-213"/>
      <point x="525" y="-141"/>
      <point x="525" y="-17" type="curve" smooth="yes"/>
      <point x="525" y="344" type="line" smooth="yes"/>
      <point x="525" y="432"/>
      <point x="477" y="482"/>
      <point x="386" y="482" type="curve" smooth="yes"/>
      <point x="310" y="482"/>
      <point x="260" y="446"/>
      <point x="225" y="398" type="curve"/>
      <point x="217" y="398" type="line"/>
      <point x="211" y="472" type="line"/>
      <point x="75" y="472" type="line"/>
      <point x="75" y="0" type="line"/>
      <point x="222" y="0" type="line"/>
      <point x="222" y="310" type="line"/>
      <point x="245" y="330"/>
      <point x="280" y="342"/>
      <point x="325" y="342" type="curve" smooth="yes"/>
      <point x="348" y="342"/>
      <point x="365" y="339"/>
      <point x="378" y="333" type="curve"/>
      <point x="378" y="-14" type="line" smooth="yes"/>
      <point x="378" y="-32"/>
      <point x="377" y="-54"/>
      <point x="373" y="-69" type="curve"/>
      <point x="344" y="-86"/>
      <point x="292" y="-96"/>
      <point x="246" y="-103" type="curve"/>
      <point x="309" y="-247" type="line"/>
    </contour>
  </outline>
</glyph>
<glyph name="obreve" format="1">
  <advance width="557"/>
  <unicode hex="014F"/>
  <note>
	obreve
  </note>
  <outline>
    <contour>
      <point x="442" y="-9"/>
      <point x="517" y="99"/>
      <point x="517" y="244" type="curve" smooth="yes"/>
      <point x="517" y="388"/>
      <point x="456" y="482"/>
      <point x="295" y="482" type="curve" smooth="yes"/>
      <point x="133" y="482"/>
      <point x="40" y="374"/>
      <point x="40" y="226" type="curve" smooth="yes"/>
      <point x="40" y="82"/>
      <point x="101" y="-9"/>
      <point x="262" y="-9" type="curve" smooth="yes"/>
    </contour>
    <contour>
      <point x="210" y="116"/>
      <point x="186" y="144"/>
      <point x="186" y="233" type="curve" smooth="yes"/>
      <point x="186" y="278"/>
      <point x="191" y="315"/>
      <point x="203" y="345" type="curve"/>
      <point x="227" y="351"/>
      <point x="252" y="354"/>
      <point x="277" y="354" type="curve" smooth="yes"/>
      <point x="348" y="354"/>
      <point x="371" y="324"/>
      <point x="371" y="237" type="curve" smooth="yes"/>
      <point x="371" y="192"/>
      <point x="366" y="156"/>
      <point x="354" y="126" type="curve"/>
      <point x="330" y="119"/>
      <point x="305" y="116"/>
      <point x="280" y="116" type="curve" smooth="yes"/>
    </contour>
    <contour>
      <point x="390" y="520"/>
      <point x="435" y="567"/>
      <point x="443" y="662" type="curve"/>
      <point x="317" y="681" type="line"/>
      <point x="316" y="654"/>
      <point x="305" y="636"/>
      <point x="279" y="636" type="curve" smooth="yes"/>
      <point x="253" y="636"/>
      <point x="242" y="654"/>
      <point x="241" y="681" type="curve"/>
      <point x="115" y="662" type="line"/>
      <point x="123" y="567"/>
      <point x="168" y="520"/>
      <point x="279" y="520" type="curve" smooth="yes"/>
    </contour>
  </outline>
</glyph>
<glyph name="ohungarumlaut" format="1">
  <advance width="557"/>
  <unicode hex="0151"/>
  <note>
	ohungarumlaut
  </note>
  <outline>
    <contour>
      <point x="442" y="-9"/>
      <point x="517" y="99"/>
      <point x="517" y="244" type="curve" smooth="yes"/>
      <point x="517" y="388"/>
      <point x="456" y="482"/>
      <point x="295" y="482" type="curve" smooth="yes"/>
      <point x="133" y="482"/>
      <point x="40" y="374"/>
      <point x="40" y="226" type="curve" smooth="yes"/>
      <point x="40" y="82"/>
      <point x="101" y="-9"/>
      <point x="262" y="-9" type="curve" smooth="yes"/>
    </contour>
    <contour>
      <point x="210" y="116"/>
      <point x="186" y="144"/>
      <point x="186" y="233" type="curve" smooth="yes"/>
      <point x="186" y="278"/>
      <point x="191" y="315"/>
      <point x="203" y="345" type="curve"/>
      <point x="227" y="351"/>
      <point x="252" y="354"/>
      <point x="277" y="354" type="curve" smooth="yes"/>
      <point x="348" y="354"/>
      <point x="371" y="324"/>
      <point x="371" y="237" type="curve" smooth="yes"/>
      <point x="371" y="192"/>
      <point x="366" y="156"/>
      <point x="354" y="126" type="curve"/>
      <point x="330" y="119"/>
      <point x="305" y="116"/>
      <point x="280" y="116" type="curve" smooth="yes"/>
    </contour>
    <contour>
      <point x="245" y="554"/>
      <point x="270" y="602"/>
      <point x="270" y="648" type="curve" smooth="yes"/>
      <point x="270" y="706"/>
      <point x="240" y="734"/>
      <point x="177" y="734" type="curve" smooth="yes"/>
      <point x="147" y="734"/>
      <point x="114" y="728"/>
      <point x="92" y="720" type="curve"/>
      <point x="92" y="619" type="line"/>
      <point x="145" y="619" type="line"/>
      <point x="142" y="592"/>
      <point x="134" y="571"/>
      <point x="115" y="541" type="curve"/>
      <point x="211" y="520" type="line"/>
    </contour>
    <contour>
      <point x="444" y="554"/>
      <point x="469" y="602"/>
      <point x="469" y="648" type="curve" smooth="yes"/>
      <point x="469" y="706"/>
      <point x="439" y="734"/>
      <point x="376" y="734" type="curve" smooth="yes"/>
      <point x="346" y="734"/>
      <point x="313" y="728"/>
      <point x="291" y="720" type="curve"/>
      <point x="291" y="619" type="line"/>
      <point x="344" y="619" type="line"/>
      <point x="341" y="592"/>
      <point x="333" y="571"/>
      <point x="314" y="541" type="curve"/>
      <point x="410" y="520" type="line"/>
    </contour>
  </outline>
</glyph>
<glyph name="racute" format="1">
  <advance width="424"/>
  <unicode hex="0155"/>
  <note>
	racute
  </note>
  <outline>
    <contour>
      <point x="212" y="0" type="line"/>
      <point x="212" y="278" type="line"/>
      <point x="247" y="310"/>
      <point x="296" y="323"/>
      <point x="347" y="323" type="curve" smooth="yes"/>
      <point x="389" y="323" type="line"/>
      <point x="404" y="452" type="line"/>
      <point x="395" y="463"/>
      <point x="373" y="476"/>
      <point x="362" y="476" type="curve" smooth="yes"/>
      <point x="290" y="476"/>
      <point x="248" y="437"/>
      <point x="215" y="376" type="curve"/>
      <point x="205" y="376" type="line"/>
      <point x="199" y="472" type="line"/>
      <point x="64" y="472" type="line"/>
      <point x="64" y="0" type="line"/>
    </contour>
    <contour>
      <point x="391" y="689" type="line"/>
      <point x="235" y="705" type="line"/>
      <point x="153" y="540" type="line"/>
      <point x="257" y="520" type="line"/>
    </contour>
  </outline>
</glyph>
<glyph name="Rcaron" format="1">
  <advance width="619"/>
  <unicode hex="0158"/>
  <note>
	Rcaron
  </note>
  <outline>
    <contour>
      <point x="545" y="-5"/>
      <point x="581" y="-2"/>
      <point x="600" y="4" type="curve"/>
      <point x="600" y="88" type="line"/>
      <point x="560" y="97" type="line"/>
      <point x="500" y="179" type="line" smooth="yes"/>
      <point x="471" y="217"/>
      <point x="445" y="235"/>
      <point x="405" y="246" type="curve"/>
      <point x="405" y="255" type="line"/>
      <point x="488" y="295"/>
      <point x="535" y="358"/>
      <point x="535" y="443" type="curve" smooth="yes"/>
      <point x="535" y="572"/>
      <point x="437" y="630"/>
      <point x="276" y="630" type="curve" smooth="yes"/>
      <point x="192" y="630"/>
      <point x="119" y="618"/>
      <point x="65" y="600" type="curve"/>
      <point x="65" y="0" type="line"/>
      <point x="214" y="0" type="line"/>
      <point x="214" y="222" type="line"/>
      <point x="240" y="222" type="line" smooth="yes"/>
      <point x="315" y="222"/>
      <point x="328" y="191"/>
      <point x="350" y="151" type="curve" smooth="yes"/>
      <point x="401" y="58" type="line" smooth="yes"/>
      <point x="422" y="18"/>
      <point x="449" y="-5"/>
      <point x="514" y="-5" type="curve" smooth="yes"/>
    </contour>
    <contour>
      <point x="214" y="493" type="line"/>
      <point x="233" y="497"/>
      <point x="251" y="499"/>
      <point x="276" y="499" type="curve" smooth="yes"/>
      <point x="350" y="499"/>
      <point x="387" y="482"/>
      <point x="387" y="425" type="curve" smooth="yes"/>
      <point x="387" y="389"/>
      <point x="375" y="361"/>
      <point x="350" y="343" type="curve"/>
      <point x="214" y="343" type="line"/>
    </contour>
    <contour>
      <point x="351" y="665" type="line"/>
      <point x="446" y="808" type="line"/>
      <point x="363" y="823" type="line"/>
      <point x="293" y="763" type="line"/>
      <point x="286" y="763" type="line"/>
      <point x="213" y="823" type="line"/>
      <point x="132" y="808" type="line"/>
      <point x="228" y="665" type="line"/>
    </contour>
  </outline>
</glyph>
<glyph name="Scedilla" format="1">
  <advance width="582"/>
  <unicode hex="015E"/>
  <note>
	Scedilla
  </note>
  <outline>
    <contour>
      <point x="401" y="-259"/>
      <point x="443" y="-211"/>
      <point x="443" y="-140" type="curve" smooth="yes"/>
      <point x="443" y="-80"/>
      <point x="413" y="-43"/>
      <point x="361" y="-43" type="curve" smooth="yes"/>
      <point x="343" y="-43"/>
      <point x="333" y="-45"/>
      <point x="320" y="-50" type="curve"/>
      <point x="354" y="-4" type="line"/>
      <point x="485" y="12"/>
      <point x="540" y="80"/>
      <point x="540" y="177" type="curve" smooth="yes"/>
      <point x="540" y="310"/>
      <point x="466" y="350"/>
      <point x="337" y="377" type="curve" smooth="yes"/>
      <point x="258" y="394"/>
      <point x="221" y="408"/>
      <point x="221" y="449" type="curve" smooth="yes"/>
      <point x="221" y="490"/>
      <point x="255" y="500"/>
      <point x="306" y="500" type="curve" smooth="yes"/>
      <point x="328" y="500"/>
      <point x="345" y="499"/>
      <point x="369" y="495" type="curve"/>
      <point x="378" y="422" type="line"/>
      <point x="502" y="422" type="line"/>
      <point x="511" y="447"/>
      <point x="519" y="518"/>
      <point x="519" y="548" type="curve" smooth="yes"/>
      <point x="519" y="583" type="line"/>
      <point x="471" y="607"/>
      <point x="407" y="630"/>
      <point x="311" y="630" type="curve" smooth="yes"/>
      <point x="152" y="630"/>
      <point x="71" y="559"/>
      <point x="71" y="444" type="curve" smooth="yes"/>
      <point x="71" y="304"/>
      <point x="161" y="267"/>
      <point x="298" y="234" type="curve" smooth="yes"/>
      <point x="369" y="217"/>
      <point x="390" y="205"/>
      <point x="390" y="170" type="curve" smooth="yes"/>
      <point x="390" y="153"/>
      <point x="388" y="142"/>
      <point x="382" y="129" type="curve"/>
      <point x="357" y="124"/>
      <point x="337" y="122"/>
      <point x="292" y="122" type="curve" smooth="yes"/>
      <point x="217" y="122"/>
      <point x="148" y="140"/>
      <point x="89" y="171" type="curve"/>
      <point x="40" y="50" type="line"/>
      <point x="93" y="20"/>
      <point x="162" y="-1"/>
      <point x="245" y="-6" type="curve"/>
      <point x="179" y="-78" type="line"/>
      <point x="228" y="-132" type="line"/>
      <point x="238" y="-127"/>
      <point x="255" y="-124"/>
      <point x="270" y="-124" type="curve" smooth="yes"/>
      <point x="297" y="-124"/>
      <point x="311" y="-129"/>
      <point x="311" y="-145" type="curve" smooth="yes"/>
      <point x="311" y="-151"/>
      <point x="310" y="-156"/>
      <point x="308" y="-160" type="curve"/>
      <point x="297" y="-162"/>
      <point x="290" y="-162"/>
      <point x="276" y="-162" type="curve" smooth="yes"/>
      <point x="251" y="-162"/>
      <point x="229" y="-157"/>
      <point x="207" y="-148" type="curve"/>
      <point x="178" y="-235" type="line"/>
      <point x="214" y="-252"/>
      <point x="255" y="-259"/>
      <point x="301" y="-259" type="curve" smooth="yes"/>
    </contour>
  </outline>
</glyph>
<glyph name="scedilla" format="1">
  <advance width="481"/>
  <unicode hex="015F"/>
  <note>
	scedilla
  </note>
  <outline>
    <contour>
      <point x="347" y="-259"/>
      <point x="389" y="-211"/>
      <point x="389" y="-140" type="curve" smooth="yes"/>
      <point x="389" y="-80"/>
      <point x="359" y="-43"/>
      <point x="307" y="-43" type="curve" smooth="yes"/>
      <point x="289" y="-43"/>
      <point x="279" y="-45"/>
      <point x="266" y="-50" type="curve"/>
      <point x="300" y="-4" type="line"/>
      <point x="399" y="9"/>
      <point x="445" y="55"/>
      <point x="445" y="134" type="curve" smooth="yes"/>
      <point x="445" y="242"/>
      <point x="380" y="265"/>
      <point x="277" y="286" type="curve" smooth="yes"/>
      <point x="219" y="298"/>
      <point x="186" y="304"/>
      <point x="186" y="332" type="curve" smooth="yes"/>
      <point x="186" y="353"/>
      <point x="200" y="365"/>
      <point x="238" y="365" type="curve" smooth="yes"/>
      <point x="258" y="365"/>
      <point x="268" y="364"/>
      <point x="283" y="361" type="curve"/>
      <point x="291" y="316" type="line"/>
      <point x="411" y="316" type="line"/>
      <point x="419" y="336"/>
      <point x="424" y="392"/>
      <point x="424" y="415" type="curve" smooth="yes"/>
      <point x="424" y="448" type="line"/>
      <point x="383" y="466"/>
      <point x="316" y="482"/>
      <point x="248" y="482" type="curve" smooth="yes"/>
      <point x="96" y="482"/>
      <point x="38" y="423"/>
      <point x="38" y="335" type="curve" smooth="yes"/>
      <point x="38" y="225"/>
      <point x="107" y="201"/>
      <point x="225" y="173" type="curve" smooth="yes"/>
      <point x="279" y="160"/>
      <point x="298" y="156"/>
      <point x="298" y="138" type="curve" smooth="yes"/>
      <point x="298" y="131"/>
      <point x="297" y="125"/>
      <point x="293" y="120" type="curve"/>
      <point x="275" y="117"/>
      <point x="254" y="115"/>
      <point x="221" y="115" type="curve" smooth="yes"/>
      <point x="178" y="115"/>
      <point x="124" y="126"/>
      <point x="76" y="146" type="curve"/>
      <point x="34" y="31" type="line"/>
      <point x="80" y="8"/>
      <point x="131" y="-3"/>
      <point x="190" y="-7" type="curve"/>
      <point x="125" y="-78" type="line"/>
      <point x="174" y="-132" type="line"/>
      <point x="184" y="-127"/>
      <point x="201" y="-124"/>
      <point x="216" y="-124" type="curve" smooth="yes"/>
      <point x="243" y="-124"/>
      <point x="257" y="-129"/>
      <point x="257" y="-145" type="curve" smooth="yes"/>
      <point x="257" y="-151"/>
      <point x="256" y="-156"/>
      <point x="254" y="-160" type="curve"/>
      <point x="243" y="-162"/>
      <point x="236" y="-162"/>
      <point x="222" y="-162" type="curve" smooth="yes"/>
      <point x="197" y="-162"/>
      <point x="175" y="-157"/>
      <point x="153" y="-148" type="curve"/>
      <point x="124" y="-235" type="line"/>
      <point x="160" y="-252"/>
      <point x="201" y="-259"/>
      <point x="247" y="-259" type="curve" smooth="yes"/>
    </contour>
  </outline>
</glyph>
<glyph name="Tcedilla" format="1">
  <advance width="598"/>
  <unicode hex="0162"/>
  <note>
	Tcedilla
  </note>
  <outline>
    <contour>
      <point x="378" y="-255"/>
      <point x="420" y="-207"/>
      <point x="420" y="-136" type="curve" smooth="yes"/>
      <point x="420" y="-76"/>
      <point x="390" y="-39"/>
      <point x="338" y="-39" type="curve" smooth="yes"/>
      <point x="320" y="-39"/>
      <point x="310" y="-41"/>
      <point x="297" y="-46" type="curve"/>
      <point x="331" y="0" type="line"/>
      <point x="374" y="0" type="line"/>
      <point x="374" y="480" type="line"/>
      <point x="572" y="480" type="line"/>
      <point x="572" y="620" type="line"/>
      <point x="26" y="620" type="line"/>
      <point x="26" y="480" type="line"/>
      <point x="224" y="480" type="line"/>
      <point x="224" y="0" type="line"/>
      <point x="156" y="-74" type="line"/>
      <point x="205" y="-128" type="line"/>
      <point x="215" y="-123"/>
      <point x="232" y="-120"/>
      <point x="247" y="-120" type="curve" smooth="yes"/>
      <point x="274" y="-120"/>
      <point x="288" y="-125"/>
      <point x="288" y="-141" type="curve" smooth="yes"/>
      <point x="288" y="-147"/>
      <point x="287" y="-152"/>
      <point x="285" y="-156" type="curve"/>
      <point x="274" y="-158"/>
      <point x="267" y="-158"/>
      <point x="253" y="-158" type="curve" smooth="yes"/>
      <point x="228" y="-158"/>
      <point x="206" y="-153"/>
      <point x="184" y="-144" type="curve"/>
      <point x="155" y="-231" type="line"/>
      <point x="191" y="-248"/>
      <point x="232" y="-255"/>
      <point x="278" y="-255" type="curve" smooth="yes"/>
    </contour>
  </outline>
</glyph>
<glyph name="tcedilla" format="1">
  <advance width="437"/>
  <unicode hex="0163"/>
  <note>
	tcedilla
  </note>
  <outline>
    <contour>
      <point x="329" y="-251"/>
      <point x="371" y="-203"/>
      <point x="371" y="-132" type="curve" smooth="yes"/>
      <point x="371" y="-72"/>
      <point x="341" y="-35"/>
      <point x="289" y="-35" type="curve" smooth="yes"/>
      <point x="271" y="-35"/>
      <point x="261" y="-37"/>
      <point x="248" y="-42" type="curve"/>
      <point x="271" y="-10" type="line"/>
      <point x="277" y="-10"/>
      <point x="283" y="-10"/>
      <point x="289" y="-10" type="curve" smooth="yes"/>
      <point x="350" y="-10"/>
      <point x="387" y="3"/>
      <point x="417" y="22" type="curve"/>
      <point x="395" y="153" type="line"/>
      <point x="367" y="137"/>
      <point x="336" y="130"/>
      <point x="300" y="130" type="curve" smooth="yes"/>
      <point x="284" y="130"/>
      <point x="269" y="132"/>
      <point x="256" y="136" type="curve"/>
      <point x="252" y="150"/>
      <point x="251" y="165"/>
      <point x="251" y="181" type="curve" smooth="yes"/>
      <point x="251" y="336" type="line"/>
      <point x="388" y="336" type="line"/>
      <point x="406" y="460" type="line"/>
      <point x="251" y="460" type="line"/>
      <point x="251" y="596" type="line"/>
      <point x="102" y="596" type="line"/>
      <point x="102" y="460" type="line"/>
      <point x="28" y="460" type="line"/>
      <point x="10" y="336" type="line"/>
      <point x="102" y="336" type="line"/>
      <point x="102" y="115" type="line" smooth="yes"/>
      <point x="102" y="63"/>
      <point x="136" y="39"/>
      <point x="177" y="6" type="curve"/>
      <point x="107" y="-70" type="line"/>
      <point x="156" y="-124" type="line"/>
      <point x="166" y="-119"/>
      <point x="183" y="-116"/>
      <point x="198" y="-116" type="curve" smooth="yes"/>
      <point x="225" y="-116"/>
      <point x="239" y="-121"/>
      <point x="239" y="-137" type="curve" smooth="yes"/>
      <point x="239" y="-143"/>
      <point x="238" y="-148"/>
      <point x="236" y="-152" type="curve"/>
      <point x="225" y="-154"/>
      <point x="218" y="-154"/>
      <point x="204" y="-154" type="curve" smooth="yes"/>
      <point x="179" y="-154"/>
      <point x="157" y="-149"/>
      <point x="135" y="-140" type="curve"/>
      <point x="106" y="-227" type="line"/>
      <point x="142" y="-244"/>
      <point x="183" y="-251"/>
      <point x="229" y="-251" type="curve" smooth="yes"/>
    </contour>
  </outline>
</glyph>
<glyph name="Tcaron" format="1">
  <advance width="598"/>
  <unicode hex="0164"/>
  <note>
	Tcaron
  </note>
  <outline>
    <contour>
      <point x="374" y="0" type="line"/>
      <point x="374" y="480" type="line"/>
      <point x="572" y="480" type="line"/>
      <point x="572" y="620" type="line"/>
      <point x="26" y="620" type="line"/>
      <point x="26" y="480" type="line"/>
      <point x="224" y="480" type="line"/>
      <point x="224" y="0" type="line"/>
    </contour>
    <contour>
      <point x="361" y="665" type="line"/>
      <point x="456" y="808" type="line"/>
      <point x="373" y="823" type="line"/>
      <point x="303" y="763" type="line"/>
      <point x="296" y="763" type="line"/>
      <point x="223" y="823" type="line"/>
      <point x="142" y="808" type="line"/>
      <point x="238" y="665" type="line"/>
    </contour>
  </outline>
</glyph>
<glyph name="tcaron" format="1">
  <advance width="437"/>
  <unicode hex="0165"/>
  <note>
	tcaron
  </note>
  <outline>
    <contour>
      <point x="350" y="-10"/>
      <point x="387" y="3"/>
      <point x="417" y="22" type="curve"/>
      <point x="395" y="153" type="line"/>
      <point x="367" y="137"/>
      <point x="336" y="130"/>
      <point x="300" y="130" type="curve" smooth="yes"/>
      <point x="284" y="130"/>
      <point x="269" y="132"/>
      <point x="256" y="136" type="curve"/>
      <point x="252" y="150"/>
      <point x="251" y="165"/>
      <point x="251" y="181" type="curve" smooth="yes"/>
      <point x="251" y="336" type="line"/>
      <point x="388" y="336" type="line"/>
      <point x="406" y="460" type="line"/>
      <point x="251" y="460" type="line"/>
      <point x="251" y="596" type="line"/>
      <point x="102" y="596" type="line"/>
      <point x="102" y="460" type="line"/>
      <point x="28" y="460" type="line"/>
      <point x="10" y="336" type="line"/>
      <point x="102" y="336" type="line"/>
      <point x="102" y="115" type="line" smooth="yes"/>
      <point x="102" y="73"/>
      <point x="140" y="33"/>
      <point x="182" y="3" type="curve"/>
      <point x="211" y="-5"/>
      <point x="251" y="-10"/>
      <point x="289" y="-10" type="curve" smooth="yes"/>
    </contour>
    <contour>
      <point x="239" y="630" type="line"/>
      <point x="334" y="773" type="line"/>
      <point x="251" y="788" type="line"/>
      <point x="181" y="728" type="line"/>
      <point x="174" y="728" type="line"/>
      <point x="101" y="788" type="line"/>
      <point x="20" y="773" type="line"/>
      <point x="116" y="630" type="line"/>
    </contour>
  </outline>
</glyph>
<glyph name="Tbar" format="1">
  <advance width="598"/>
  <unicode hex="0166"/>
  <note>
	Tbar
  </note>
  <outline>
    <contour>
      <point x="374" y="0" type="line"/>
      <point x="374" y="215" type="line"/>
      <point x="487" y="215" type="line"/>
      <point x="487" y="341" type="line"/>
      <point x="374" y="341" type="line"/>
      <point x="374" y="480" type="line"/>
      <point x="572" y="480" type="line"/>
      <point x="572" y="620" type="line"/>
      <point x="26" y="620" type="line"/>
      <point x="26" y="480" type="line"/>
      <point x="224" y="480" type="line"/>
      <point x="224" y="341" type="line"/>
      <point x="110" y="341" type="line"/>
      <point x="110" y="215" type="line"/>
      <point x="224" y="215" type="line"/>
      <point x="224" y="0" type="line"/>
    </contour>
  </outline>
</glyph>
<glyph name="Umacron" format="1">
  <advance width="653"/>
  <unicode hex="016A"/>
  <note>
	Umacron
  </note>
  <outline>
    <contour>
      <point x="469" y="-10"/>
      <point x="590" y="31"/>
      <point x="590" y="135" type="curve" smooth="yes"/>
      <point x="590" y="620" type="line"/>
      <point x="440" y="620" type="line"/>
      <point x="440" y="144" type="line"/>
      <point x="407" y="133"/>
      <point x="378" y="128"/>
      <point x="324" y="128" type="curve" smooth="yes"/>
      <point x="238" y="128"/>
      <point x="213" y="159"/>
      <point x="213" y="253" type="curve" smooth="yes"/>
      <point x="213" y="620" type="line"/>
      <point x="63" y="620" type="line"/>
      <point x="63" y="220" type="line" smooth="yes"/>
      <point x="63" y="81"/>
      <point x="130" y="-10"/>
      <point x="317" y="-10" type="curve" smooth="yes"/>
    </contour>
    <contour>
      <point x="460" y="665" type="line"/>
      <point x="460" y="776" type="line"/>
      <point x="193" y="776" type="line"/>
      <point x="193" y="665" type="line"/>
    </contour>
  </outline>
</glyph>
<glyph name="ubreve" format="1">
  <advance width="567"/>
  <unicode hex="016D"/>
  <note>
	ubreve
  </note>
  <outline>
    <contour>
      <point x="276" y="-8"/>
      <point x="318" y="22"/>
      <point x="357" y="72" type="curve"/>
      <point x="365" y="72" type="line"/>
      <point x="371" y="0" type="line"/>
      <point x="503" y="0" type="line"/>
      <point x="503" y="472" type="line"/>
      <point x="353" y="472" type="line"/>
      <point x="353" y="162" type="line"/>
      <point x="329" y="137"/>
      <point x="297" y="128"/>
      <point x="259" y="128" type="curve" smooth="yes"/>
      <point x="240" y="128"/>
      <point x="225" y="130"/>
      <point x="208" y="136" type="curve"/>
      <point x="208" y="472" type="line"/>
      <point x="58" y="472" type="line"/>
      <point x="58" y="141" type="line" smooth="yes"/>
      <point x="58" y="41"/>
      <point x="110" y="-8"/>
      <point x="201" y="-8" type="curve" smooth="yes"/>
    </contour>
    <contour>
      <point x="394" y="515"/>
      <point x="439" y="562"/>
      <point x="447" y="657" type="curve"/>
      <point x="321" y="676" type="line"/>
      <point x="320" y="649"/>
      <point x="309" y="631"/>
      <point x="283" y="631" type="curve" smooth="yes"/>
      <point x="257" y="631"/>
      <point x="246" y="649"/>
      <point x="245" y="676" type="curve"/>
      <point x="119" y="657" type="line"/>
      <point x="127" y="562"/>
      <point x="172" y="515"/>
      <point x="283" y="515" type="curve" smooth="yes"/>
    </contour>
  </outline>
</glyph>
<glyph name="Uring" format="1">
  <advance width="653"/>
  <unicode hex="016E"/>
  <note>
	Uring
  </note>
  <outline>
    <contour>
      <point x="469" y="-10"/>
      <point x="590" y="31"/>
      <point x="590" y="135" type="curve" smooth="yes"/>
      <point x="590" y="620" type="line"/>
      <point x="440" y="620" type="line"/>
      <point x="440" y="144" type="line"/>
      <point x="407" y="133"/>
      <point x="378" y="128"/>
      <point x="324" y="128" type="curve" smooth="yes"/>
      <point x="238" y="128"/>
      <point x="213" y="159"/>
      <point x="213" y="253" type="curve" smooth="yes"/>
      <point x="213" y="620" type="line"/>
      <point x="63" y="620" type="line"/>
      <point x="63" y="220" type="line" smooth="yes"/>
      <point x="63" y="81"/>
      <point x="130" y="-10"/>
      <point x="317" y="-10" type="curve" smooth="yes"/>
    </contour>
    <contour>
      <point x="420" y="655"/>
      <point x="477" y="700"/>
      <point x="477" y="771" type="curve" smooth="yes"/>
      <point x="477" y="835"/>
      <point x="435" y="883"/>
      <point x="352" y="883" type="curve" smooth="yes"/>
      <point x="241" y="883"/>
      <point x="195" y="824"/>
      <point x="195" y="762" type="curve" smooth="yes"/>
      <point x="195" y="702"/>
      <point x="234" y="655"/>
      <point x="320" y="655" type="curve" smooth="yes"/>
    </contour>
    <contour>
      <point x="311" y="739"/>
      <point x="300" y="752"/>
      <point x="300" y="768" type="curve" smooth="yes"/>
      <point x="300" y="779"/>
      <point x="301" y="785"/>
      <point x="304" y="795" type="curve"/>
      <point x="315" y="798"/>
      <point x="324" y="799"/>
      <point x="338" y="799" type="curve" smooth="yes"/>
      <point x="364" y="799"/>
      <point x="372" y="785"/>
      <point x="372" y="762" type="curve" smooth="yes"/>
      <point x="372" y="756"/>
      <point x="371" y="749"/>
      <point x="369" y="744" type="curve"/>
      <point x="357" y="740"/>
      <point x="350" y="739"/>
      <point x="335" y="739" type="curve" smooth="yes"/>
    </contour>
  </outline>
</glyph>
<glyph name="Uhungarumlaut" format="1">
  <advance width="653"/>
  <unicode hex="0170"/>
  <note>
	Uhungarumlaut
  </note>
  <outline>
    <contour>
      <point x="469" y="-10"/>
      <point x="590" y="31"/>
      <point x="590" y="135" type="curve" smooth="yes"/>
      <point x="590" y="620" type="line"/>
      <point x="440" y="620" type="line"/>
      <point x="440" y="144" type="line"/>
      <point x="407" y="133"/>
      <point x="378" y="128"/>
      <point x="324" y="128" type="curve" smooth="yes"/>
      <point x="238" y="128"/>
      <point x="213" y="159"/>
      <point x="213" y="253" type="curve" smooth="yes"/>
      <point x="213" y="620" type="line"/>
      <point x="63" y="620" type="line"/>
      <point x="63" y="220" type="line" smooth="yes"/>
      <point x="63" y="81"/>
      <point x="130" y="-10"/>
      <point x="317" y="-10" type="curve" smooth="yes"/>
    </contour>
    <contour>
      <point x="296" y="699"/>
      <point x="321" y="747"/>
      <point x="321" y="793" type="curve" smooth="yes"/>
      <point x="321" y="851"/>
      <point x="291" y="879"/>
      <point x="228" y="879" type="curve" smooth="yes"/>
      <point x="198" y="879"/>
      <point x="165" y="873"/>
      <point x="143" y="865" type="curve"/>
      <point x="143" y="764" type="line"/>
      <point x="196" y="764" type="line"/>
      <point x="193" y="737"/>
      <point x="185" y="716"/>
      <point x="166" y="686" type="curve"/>
      <point x="262" y="665" type="line"/>
    </contour>
    <contour>
      <point x="495" y="699"/>
      <point x="520" y="747"/>
      <point x="520" y="793" type="curve" smooth="yes"/>
      <point x="520" y="851"/>
      <point x="490" y="879"/>
      <point x="427" y="879" type="curve" smooth="yes"/>
      <point x="397" y="879"/>
      <point x="364" y="873"/>
      <point x="342" y="865" type="curve"/>
      <point x="342" y="764" type="line"/>
      <point x="395" y="764" type="line"/>
      <point x="392" y="737"/>
      <point x="384" y="716"/>
      <point x="365" y="686" type="curve"/>
      <point x="461" y="665" type="line"/>
    </contour>
  </outline>
</glyph>
<glyph name="uhungarumlaut" format="1">
  <advance width="567"/>
  <unicode hex="0171"/>
  <note>
	uhungarumlaut
  </note>
  <outline>
    <contour>
      <point x="276" y="-8"/>
      <point x="318" y="22"/>
      <point x="357" y="72" type="curve"/>
      <point x="365" y="72" type="line"/>
      <point x="371" y="0" type="line"/>
      <point x="503" y="0" type="line"/>
      <point x="503" y="472" type="line"/>
      <point x="353" y="472" type="line"/>
      <point x="353" y="162" type="line"/>
      <point x="329" y="137"/>
      <point x="297" y="128"/>
      <point x="259" y="128" type="curve" smooth="yes"/>
      <point x="240" y="128"/>
      <point x="225" y="130"/>
      <point x="208" y="136" type="curve"/>
      <point x="208" y="472" type="line"/>
      <point x="58" y="472" type="line"/>
      <point x="58" y="141" type="line" smooth="yes"/>
      <point x="58" y="41"/>
      <point x="110" y="-8"/>
      <point x="201" y="-8" type="curve" smooth="yes"/>
    </contour>
    <contour>
      <point x="248" y="554"/>
      <point x="273" y="602"/>
      <point x="273" y="648" type="curve" smooth="yes"/>
      <point x="273" y="706"/>
      <point x="243" y="734"/>
      <point x="180" y="734" type="curve" smooth="yes"/>
      <point x="150" y="734"/>
      <point x="117" y="728"/>
      <point x="95" y="720" type="curve"/>
      <point x="95" y="619" type="line"/>
      <point x="148" y="619" type="line"/>
      <point x="145" y="592"/>
      <point x="137" y="571"/>
      <point x="118" y="541" type="curve"/>
      <point x="214" y="520" type="line"/>
    </contour>
    <contour>
      <point x="447" y="554"/>
      <point x="472" y="602"/>
      <point x="472" y="648" type="curve" smooth="yes"/>
      <point x="472" y="706"/>
      <point x="442" y="734"/>
      <point x="379" y="734" type="curve" smooth="yes"/>
      <point x="349" y="734"/>
      <point x="316" y="728"/>
      <point x="294" y="720" type="curve"/>
      <point x="294" y="619" type="line"/>
      <point x="347" y="619" type="line"/>
      <point x="344" y="592"/>
      <point x="336" y="571"/>
      <point x="317" y="541" type="curve"/>
      <point x="413" y="520" type="line"/>
    </contour>
  </outline>
</glyph>
<glyph name="Uogonek" format="1">
  <advance width="653"/>
  <unicode hex="0172"/>
  <note>
	Uogonek
  </note>
  <outline>
    <contour>
      <point x="401" y="-187"/>
      <point x="435" y="-179"/>
      <point x="457" y="-168" type="curve"/>
      <point x="433" y="-70" type="line"/>
      <point x="420" y="-75"/>
      <point x="409" y="-77"/>
      <point x="397" y="-77" type="curve" smooth="yes"/>
      <point x="383" y="-77"/>
      <point x="374" y="-76"/>
      <point x="364" y="-73" type="curve"/>
      <point x="362" y="-67"/>
      <point x="361" y="-63"/>
      <point x="361" y="-56" type="curve" smooth="yes"/>
      <point x="361" y="-36"/>
      <point x="368" y="-21"/>
      <point x="395" y="-6" type="curve"/>
      <point x="508" y="6"/>
      <point x="590" y="49"/>
      <point x="590" y="135" type="curve" smooth="yes"/>
      <point x="590" y="620" type="line"/>
      <point x="440" y="620" type="line"/>
      <point x="440" y="144" type="line"/>
      <point x="407" y="133"/>
      <point x="378" y="128"/>
      <point x="324" y="128" type="curve" smooth="yes"/>
      <point x="238" y="128"/>
      <point x="213" y="159"/>
      <point x="213" y="253" type="curve" smooth="yes"/>
      <point x="213" y="620" type="line"/>
      <point x="63" y="620" type="line"/>
      <point x="63" y="220" type="line" smooth="yes"/>
      <point x="63" y="91"/>
      <point x="120" y="4"/>
      <point x="276" y="-8" type="curve"/>
      <point x="241" y="-32"/>
      <point x="228" y="-61"/>
      <point x="228" y="-97" type="curve" smooth="yes"/>
      <point x="228" y="-154"/>
      <point x="266" y="-187"/>
      <point x="364" y="-187" type="curve" smooth="yes"/>
    </contour>
  </outline>
</glyph>
<glyph name="uogonek" format="1">
  <advance width="567"/>
  <unicode hex="0173"/>
  <note>
	uogonek
  </note>
  <outline>
    <contour>
      <point x="276" y="-8"/>
      <point x="318" y="22"/>
      <point x="357" y="72" type="curve"/>
      <point x="365" y="72" type="line"/>
      <point x="371" y="0" type="line"/>
      <point x="503" y="0" type="line"/>
      <point x="503" y="472" type="line"/>
      <point x="353" y="472" type="line"/>
      <point x="353" y="162" type="line"/>
      <point x="329" y="137"/>
      <point x="297" y="128"/>
      <point x="259" y="128" type="curve" smooth="yes"/>
      <point x="240" y="128"/>
      <point x="225" y="130"/>
      <point x="208" y="136" type="curve"/>
      <point x="208" y="472" type="line"/>
      <point x="58" y="472" type="line"/>
      <point x="58" y="141" type="line" smooth="yes"/>
      <point x="58" y="41"/>
      <point x="110" y="-8"/>
      <point x="201" y="-8" type="curve" smooth="yes"/>
    </contour>
    <contour>
      <point x="457" y="-187"/>
      <point x="491" y="-179"/>
      <point x="513" y="-168" type="curve"/>
      <point x="489" y="-70" type="line"/>
      <point x="476" y="-75"/>
      <point x="465" y="-77"/>
      <point x="453" y="-77" type="curve" smooth="yes"/>
      <point x="439" y="-77"/>
      <point x="430" y="-76"/>
      <point x="420" y="-73" type="curve"/>
      <point x="418" y="-67"/>
      <point x="417" y="-63"/>
      <point x="417" y="-56" type="curve" smooth="yes"/>
      <point x="417" y="-29"/>
      <point x="430" y="-12"/>
      <point x="490" y="12" type="curve"/>
      <point x="392" y="20" type="line"/>
      <point x="312" y="-6"/>
      <point x="284" y="-45"/>
      <point x="284" y="-97" type="curve" smooth="yes"/>
      <point x="284" y="-154"/>
      <point x="322" y="-187"/>
      <point x="420" y="-187" type="curve" smooth="yes"/>
    </contour>
  </outline>
</glyph>
<glyph name="Ydieresis" format="1">
  <advance width="655"/>
  <unicode hex="0178"/>
  <note>
	Ydieresis
  </note>
  <outline>
    <contour>
      <point x="402" y="0" type="line"/>
      <point x="402" y="185" type="line"/>
      <point x="426" y="185" type="line"/>
      <point x="512" y="312"/>
      <point x="577" y="442"/>
      <point x="637" y="595" type="curve"/>
      <point x="489" y="625" type="line"/>
      <point x="441" y="493"/>
      <point x="394" y="392"/>
      <point x="339" y="303" type="curve"/>
      <point x="316" y="303" type="line"/>
      <point x="260" y="392"/>
      <point x="214" y="493"/>
      <point x="166" y="625" type="curve"/>
      <point x="18" y="595" type="line"/>
      <point x="78" y="442"/>
      <point x="143" y="312"/>
      <point x="229" y="185" type="curve"/>
      <point x="253" y="185" type="line"/>
      <point x="253" y="0" type="line"/>
    </contour>
    <contour>
      <point x="284" y="665"/>
      <point x="311" y="691"/>
      <point x="311" y="733" type="curve" smooth="yes"/>
      <point x="311" y="779"/>
      <point x="284" y="804"/>
      <point x="238" y="804" type="curve" smooth="yes"/>
      <point x="192" y="804"/>
      <point x="165" y="779"/>
      <point x="165" y="733" type="curve" smooth="yes"/>
      <point x="165" y="691"/>
      <point x="192" y="665"/>
      <point x="238" y="665" type="curve" smooth="yes"/>
    </contour>
    <contour>
      <point x="462" y="665"/>
      <point x="489" y="691"/>
      <point x="489" y="733" type="curve" smooth="yes"/>
      <point x="489" y="779"/>
      <point x="462" y="804"/>
      <point x="416" y="804" type="curve" smooth="yes"/>
      <point x="370" y="804"/>
      <point x="343" y="779"/>
      <point x="343" y="733" type="curve" smooth="yes"/>
      <point x="343" y="691"/>
      <point x="370" y="665"/>
      <point x="416" y="665" type="curve" smooth="yes"/>
    </contour>
  </outline>
</glyph>
<glyph name="zacute" format="1">
  <advance width="497"/>
  <unicode hex="017A"/>
  <note>
	zacute
  </note>
  <outline>
    <contour>
      <point x="463" y="0" type="line"/>
      <point x="463" y="46" type="line" smooth="yes"/>
      <point x="463" y="85"/>
      <point x="459" y="130"/>
      <point x="450" y="163" type="curve"/>
      <point x="340" y="163" type="line"/>
      <point x="332" y="117" type="line"/>
      <point x="204" y="117" type="line"/>
      <point x="204" y="124" type="line"/>
      <point x="451" y="310" type="line"/>
      <point x="451" y="472" type="line"/>
      <point x="45" y="472" type="line"/>
      <point x="45" y="423" type="line" smooth="yes"/>
      <point x="45" y="377"/>
      <point x="49" y="328"/>
      <point x="58" y="295" type="curve"/>
      <point x="168" y="295" type="line"/>
      <point x="176" y="348" type="line"/>
      <point x="306" y="348" type="line"/>
      <point x="306" y="342" type="line"/>
      <point x="36" y="137" type="line"/>
      <point x="36" y="0" type="line"/>
    </contour>
    <contour>
      <point x="422" y="689" type="line"/>
      <point x="266" y="705" type="line"/>
      <point x="184" y="540" type="line"/>
      <point x="288" y="520" type="line"/>
    </contour>
  </outline>
</glyph>
<glyph name="Zdotaccent" format="1">
  <advance width="601"/>
  <unicode hex="017B"/>
  <note>
	Zdotaccent
  </note>
  <outline>
    <contour>
      <point x="563" y="0" type="line"/>
      <point x="563" y="49" type="line" smooth="yes"/>
      <point x="563" y="109"/>
      <point x="557" y="166"/>
      <point x="546" y="210" type="curve"/>
      <point x="424" y="210" type="line"/>
      <point x="424" y="133" type="line"/>
      <point x="212" y="133" type="line"/>
      <point x="212" y="142" type="line"/>
      <point x="550" y="458" type="line"/>
      <point x="550" y="620" type="line"/>
      <point x="49" y="620" type="line"/>
      <point x="49" y="571" type="line" smooth="yes"/>
      <point x="49" y="511"/>
      <point x="55" y="454"/>
      <point x="66" y="410" type="curve"/>
      <point x="188" y="410" type="line"/>
      <point x="188" y="486" type="line"/>
      <point x="392" y="486" type="line"/>
      <point x="392" y="476" type="line"/>
      <point x="40" y="146" type="line"/>
      <point x="40" y="0" type="line"/>
    </contour>
    <contour>
      <point x="362" y="665"/>
      <point x="392" y="694"/>
      <point x="392" y="741" type="curve" smooth="yes"/>
      <point x="392" y="792"/>
      <point x="362" y="820"/>
      <point x="311" y="820" type="curve" smooth="yes"/>
      <point x="259" y="820"/>
      <point x="229" y="792"/>
      <point x="229" y="741" type="curve" smooth="yes"/>
      <point x="229" y="694"/>
      <point x="259" y="665"/>
      <point x="311" y="665" type="curve" smooth="yes"/>
    </contour>
  </outline>
</glyph>
<glyph name="zcaron" format="1">
  <advance width="497"/>
  <unicode hex="017E"/>
  <note>
	zcaron
  </note>
  <outline>
    <contour>
      <point x="463" y="0" type="line"/>
      <point x="463" y="46" type="line" smooth="yes"/>
      <point x="463" y="85"/>
      <point x="459" y="130"/>
      <point x="450" y="163" type="curve"/>
      <point x="340" y="163" type="line"/>
      <point x="332" y="117" type="line"/>
      <point x="204" y="117" type="line"/>
      <point x="204" y="124" type="line"/>
      <point x="451" y="310" type="line"/>
      <point x="451" y="472" type="line"/>
      <point x="45" y="472" type="line"/>
      <point x="45" y="423" type="line" smooth="yes"/>
      <point x="45" y="377"/>
      <point x="49" y="328"/>
      <point x="58" y="295" type="curve"/>
      <point x="168" y="295" type="line"/>
      <point x="176" y="348" type="line"/>
      <point x="306" y="348" type="line"/>
      <point x="306" y="342" type="line"/>
      <point x="36" y="137" type="line"/>
      <point x="36" y="0" type="line"/>
    </contour>
    <contour>
      <point x="310" y="520" type="line"/>
      <point x="405" y="663" type="line"/>
      <point x="322" y="678" type="line"/>
      <point x="252" y="618" type="line"/>
      <point x="245" y="618" type="line"/>
      <point x="172" y="678" type="line"/>
      <point x="91" y="663" type="line"/>
      <point x="187" y="520" type="line"/>
    </contour>
  </outline>
</glyph>
<glyph name="uni018F" format="1">
  <advance width="671"/>
  <unicode hex="018F"/>
  <note>
	uni018F
  </note>
  <outline>
    <contour>
      <point x="517" y="-10"/>
      <point x="616" y="101"/>
      <point x="616" y="314" type="curve" smooth="yes"/>
      <point x="616" y="513"/>
      <point x="534" y="630"/>
      <point x="314" y="630" type="curve" smooth="yes"/>
      <point x="197" y="630"/>
      <point x="119" y="593"/>
      <point x="47" y="546" type="curve"/>
      <point x="100" y="432" type="line"/>
      <point x="159" y="468"/>
      <point x="227" y="495"/>
      <point x="305" y="495" type="curve" smooth="yes"/>
      <point x="407" y="495"/>
      <point x="466" y="462"/>
      <point x="466" y="374" type="curve"/>
      <point x="184" y="379" type="line"/>
      <point x="42" y="257" type="line"/>
      <point x="41" y="247"/>
      <point x="41" y="237"/>
      <point x="41" y="227" type="curve" smooth="yes"/>
      <point x="41" y="77"/>
      <point x="135" y="-10"/>
      <point x="311" y="-10" type="curve" smooth="yes"/>
    </contour>
    <contour>
      <point x="218" y="121"/>
      <point x="189" y="160"/>
      <point x="189" y="204" type="curve" smooth="yes"/>
      <point x="189" y="218"/>
      <point x="190" y="226"/>
      <point x="193" y="238" type="curve"/>
      <point x="467" y="243" type="line"/>
      <point x="467" y="170"/>
      <point x="432" y="121"/>
      <point x="322" y="121" type="curve" smooth="yes"/>
    </contour>
  </outline>
</glyph>
<glyph name="Uhorn" format="1">
  <advance width="760"/>
  <unicode hex="01AF"/>
  <note>
	Uhorn
  </note>
  <outline>
    <contour>
      <point x="469" y="-10"/>
      <point x="590" y="31"/>
      <point x="590" y="135" type="curve" smooth="yes"/>
      <point x="590" y="397" type="line"/>
      <point x="734" y="444"/>
      <point x="794" y="542"/>
      <point x="794" y="700" type="curve"/>
      <point x="654" y="700" type="line"/>
      <point x="654" y="622"/>
      <point x="639" y="564"/>
      <point x="600" y="529" type="curve"/>
      <point x="590" y="529" type="line"/>
      <point x="590" y="620" type="line"/>
      <point x="440" y="620" type="line"/>
      <point x="440" y="144" type="line"/>
      <point x="407" y="133"/>
      <point x="378" y="128"/>
      <point x="324" y="128" type="curve" smooth="yes"/>
      <point x="238" y="128"/>
      <point x="213" y="159"/>
      <point x="213" y="253" type="curve" smooth="yes"/>
      <point x="213" y="620" type="line"/>
      <point x="63" y="620" type="line"/>
      <point x="63" y="220" type="line" smooth="yes"/>
      <point x="63" y="81"/>
      <point x="130" y="-10"/>
      <point x="317" y="-10" type="curve" smooth="yes"/>
    </contour>
  </outline>
</glyph>
<glyph name="Icaron" format="1">
  <advance width="286"/>
  <unicode hex="01CF"/>
  <note>
	Icaron
  </note>
  <outline>
    <contour>
      <point x="218" y="0" type="line"/>
      <point x="218" y="620" type="line"/>
      <point x="68" y="620" type="line"/>
      <point x="68" y="0" type="line"/>
    </contour>
    <contour>
      <point x="206" y="665" type="line"/>
      <point x="301" y="808" type="line"/>
      <point x="218" y="823" type="line"/>
      <point x="148" y="763" type="line"/>
      <point x="141" y="763" type="line"/>
      <point x="68" y="823" type="line"/>
      <point x="-13" y="808" type="line"/>
      <point x="83" y="665" type="line"/>
    </contour>
  </outline>
</glyph>
<glyph name="ocaron" format="1">
  <advance width="557"/>
  <unicode hex="01D2"/>
  <note>
	ocaron
  </note>
  <outline>
    <contour>
      <point x="442" y="-9"/>
      <point x="517" y="99"/>
      <point x="517" y="244" type="curve" smooth="yes"/>
      <point x="517" y="388"/>
      <point x="456" y="482"/>
      <point x="295" y="482" type="curve" smooth="yes"/>
      <point x="133" y="482"/>
      <point x="40" y="374"/>
      <point x="40" y="226" type="curve" smooth="yes"/>
      <point x="40" y="82"/>
      <point x="101" y="-9"/>
      <point x="262" y="-9" type="curve" smooth="yes"/>
    </contour>
    <contour>
      <point x="210" y="116"/>
      <point x="186" y="144"/>
      <point x="186" y="233" type="curve" smooth="yes"/>
      <point x="186" y="278"/>
      <point x="191" y="315"/>
      <point x="203" y="345" type="curve"/>
      <point x="227" y="351"/>
      <point x="252" y="354"/>
      <point x="277" y="354" type="curve" smooth="yes"/>
      <point x="348" y="354"/>
      <point x="371" y="324"/>
      <point x="371" y="237" type="curve" smooth="yes"/>
      <point x="371" y="192"/>
      <point x="366" y="156"/>
      <point x="354" y="126" type="curve"/>
      <point x="330" y="119"/>
      <point x="305" y="116"/>
      <point x="280" y="116" type="curve" smooth="yes"/>
    </contour>
    <contour>
      <point x="335" y="520" type="line"/>
      <point x="430" y="663" type="line"/>
      <point x="347" y="678" type="line"/>
      <point x="277" y="618" type="line"/>
      <point x="270" y="618" type="line"/>
      <point x="197" y="678" type="line"/>
      <point x="116" y="663" type="line"/>
      <point x="212" y="520" type="line"/>
    </contour>
  </outline>
</glyph>
<glyph name="udieresismacron" format="1">
  <advance width="567"/>
  <unicode hex="01D6"/>
  <note>
	udieresismacron
  </note>
  <outline>
    <contour>
      <point x="276" y="-8"/>
      <point x="318" y="22"/>
      <point x="357" y="72" type="curve"/>
      <point x="365" y="72" type="line"/>
      <point x="371" y="0" type="line"/>
      <point x="503" y="0" type="line"/>
      <point x="503" y="472" type="line"/>
      <point x="353" y="472" type="line"/>
      <point x="353" y="162" type="line"/>
      <point x="329" y="137"/>
      <point x="297" y="128"/>
      <point x="259" y="128" type="curve" smooth="yes"/>
      <point x="240" y="128"/>
      <point x="225" y="130"/>
      <point x="208" y="136" type="curve"/>
      <point x="208" y="472" type="line"/>
      <point x="58" y="472" type="line"/>
      <point x="58" y="141" type="line" smooth="yes"/>
      <point x="58" y="41"/>
      <point x="110" y="-8"/>
      <point x="201" y="-8" type="curve" smooth="yes"/>
    </contour>
    <contour>
      <point x="238" y="519"/>
      <point x="265" y="545"/>
      <point x="265" y="587" type="curve" smooth="yes"/>
      <point x="265" y="633"/>
      <point x="238" y="658"/>
      <point x="192" y="658" type="curve" smooth="yes"/>
      <point x="146" y="658"/>
      <point x="119" y="633"/>
      <point x="119" y="587" type="curve" smooth="yes"/>
      <point x="119" y="545"/>
      <point x="146" y="519"/>
      <point x="192" y="519" type="curve" smooth="yes"/>
    </contour>
    <contour>
      <point x="416" y="519"/>
      <point x="443" y="545"/>
      <point x="443" y="587" type="curve" smooth="yes"/>
      <point x="443" y="633"/>
      <point x="416" y="658"/>
      <point x="370" y="658" type="curve" smooth="yes"/>
      <point x="324" y="658"/>
      <point x="297" y="633"/>
      <point x="297" y="587" type="curve" smooth="yes"/>
      <point x="297" y="545"/>
      <point x="324" y="519"/>
      <point x="370" y="519" type="curve" smooth="yes"/>
    </contour>
    <contour>
      <point x="467" y="693" type="line"/>
      <point x="467" y="831" type="line"/>
      <point x="95" y="831" type="line"/>
      <point x="95" y="693" type="line"/>
    </contour>
  </outline>
</glyph>
<glyph name="Udieresisacute" format="1">
  <advance width="653"/>
  <unicode hex="01D7"/>
  <note>
	Udieresisacute
  </note>
  <outline>
    <contour>
      <point x="469" y="-10"/>
      <point x="590" y="31"/>
      <point x="590" y="135" type="curve" smooth="yes"/>
      <point x="590" y="620" type="line"/>
      <point x="440" y="620" type="line"/>
      <point x="440" y="144" type="line"/>
      <point x="407" y="133"/>
      <point x="378" y="128"/>
      <point x="324" y="128" type="curve" smooth="yes"/>
      <point x="238" y="128"/>
      <point x="213" y="159"/>
      <point x="213" y="253" type="curve" smooth="yes"/>
      <point x="213" y="620" type="line"/>
      <point x="63" y="620" type="line"/>
      <point x="63" y="220" type="line" smooth="yes"/>
      <point x="63" y="81"/>
      <point x="130" y="-10"/>
      <point x="317" y="-10" type="curve" smooth="yes"/>
    </contour>
    <contour>
      <point x="287" y="664"/>
      <point x="314" y="690"/>
      <point x="314" y="732" type="curve" smooth="yes"/>
      <point x="314" y="778"/>
      <point x="287" y="803"/>
      <point x="241" y="803" type="curve" smooth="yes"/>
      <point x="195" y="803"/>
      <point x="168" y="778"/>
      <point x="168" y="732" type="curve" smooth="yes"/>
      <point x="168" y="690"/>
      <point x="195" y="664"/>
      <point x="241" y="664" type="curve" smooth="yes"/>
    </contour>
    <contour>
      <point x="465" y="664"/>
      <point x="492" y="690"/>
      <point x="492" y="732" type="curve" smooth="yes"/>
      <point x="492" y="778"/>
      <point x="465" y="803"/>
      <point x="419" y="803" type="curve" smooth="yes"/>
      <point x="373" y="803"/>
      <point x="346" y="778"/>
      <point x="346" y="732" type="curve" smooth="yes"/>
      <point x="346" y="690"/>
      <point x="373" y="664"/>
      <point x="419" y="664" type="curve" smooth="yes"/>
    </contour>
    <contour>
      <point x="506" y="1007" type="line"/>
      <point x="350" y="1023" type="line"/>
      <point x="268" y="858" type="line"/>
      <point x="372" y="838" type="line"/>
    </contour>
  </outline>
</glyph>
<glyph name="udieresisacute" format="1">
  <advance width="567"/>
  <unicode hex="01D8"/>
  <note>
	udieresisacute
  </note>
  <outline>
    <contour>
      <point x="276" y="-8"/>
      <point x="318" y="22"/>
      <point x="357" y="72" type="curve"/>
      <point x="365" y="72" type="line"/>
      <point x="371" y="0" type="line"/>
      <point x="503" y="0" type="line"/>
      <point x="503" y="472" type="line"/>
      <point x="353" y="472" type="line"/>
      <point x="353" y="162" type="line"/>
      <point x="329" y="137"/>
      <point x="297" y="128"/>
      <point x="259" y="128" type="curve" smooth="yes"/>
      <point x="240" y="128"/>
      <point x="225" y="130"/>
      <point x="208" y="136" type="curve"/>
      <point x="208" y="472" type="line"/>
      <point x="58" y="472" type="line"/>
      <point x="58" y="141" type="line" smooth="yes"/>
      <point x="58" y="41"/>
      <point x="110" y="-8"/>
      <point x="201" y="-8" type="curve" smooth="yes"/>
    </contour>
    <contour>
      <point x="239" y="520"/>
      <point x="266" y="546"/>
      <point x="266" y="588" type="curve" smooth="yes"/>
      <point x="266" y="634"/>
      <point x="239" y="659"/>
      <point x="193" y="659" type="curve" smooth="yes"/>
      <point x="147" y="659"/>
      <point x="120" y="634"/>
      <point x="120" y="588" type="curve" smooth="yes"/>
      <point x="120" y="546"/>
      <point x="147" y="520"/>
      <point x="193" y="520" type="curve" smooth="yes"/>
    </contour>
    <contour>
      <point x="417" y="520"/>
      <point x="444" y="546"/>
      <point x="444" y="588" type="curve" smooth="yes"/>
      <point x="444" y="634"/>
      <point x="417" y="659"/>
      <point x="371" y="659" type="curve" smooth="yes"/>
      <point x="325" y="659"/>
      <point x="298" y="634"/>
      <point x="298" y="588" type="curve" smooth="yes"/>
      <point x="298" y="546"/>
      <point x="325" y="520"/>
      <point x="371" y="520" type="curve" smooth="yes"/>
    </contour>
    <contour>
      <point x="458" y="863" type="line"/>
      <point x="302" y="879" type="line"/>
      <point x="220" y="714" type="line"/>
      <point x="324" y="694" type="line"/>
    </contour>
  </outline>
</glyph>
<glyph name="udieresiscaron" format="1">
  <advance width="567"/>
  <unicode hex="01DA"/>
  <note>
	udieresiscaron
  </note>
  <outline>
    <contour>
      <point x="276" y="-8"/>
      <point x="318" y="22"/>
      <point x="357" y="72" type="curve"/>
      <point x="365" y="72" type="line"/>
      <point x="371" y="0" type="line"/>
      <point x="503" y="0" type="line"/>
      <point x="503" y="472" type="line"/>
      <point x="353" y="472" type="line"/>
      <point x="353" y="162" type="line"/>
      <point x="329" y="137"/>
      <point x="297" y="128"/>
      <point x="259" y="128" type="curve" smooth="yes"/>
      <point x="240" y="128"/>
      <point x="225" y="130"/>
      <point x="208" y="136" type="curve"/>
      <point x="208" y="472" type="line"/>
      <point x="58" y="472" type="line"/>
      <point x="58" y="141" type="line" smooth="yes"/>
      <point x="58" y="41"/>
      <point x="110" y="-8"/>
      <point x="201" y="-8" type="curve" smooth="yes"/>
    </contour>
    <contour>
      <point x="238" y="520"/>
      <point x="265" y="546"/>
      <point x="265" y="588" type="curve" smooth="yes"/>
      <point x="265" y="634"/>
      <point x="238" y="659"/>
      <point x="192" y="659" type="curve" smooth="yes"/>
      <point x="146" y="659"/>
      <point x="119" y="634"/>
      <point x="119" y="588" type="curve" smooth="yes"/>
      <point x="119" y="546"/>
      <point x="146" y="520"/>
      <point x="192" y="520" type="curve" smooth="yes"/>
    </contour>
    <contour>
      <point x="416" y="520"/>
      <point x="443" y="546"/>
      <point x="443" y="588" type="curve" smooth="yes"/>
      <point x="443" y="634"/>
      <point x="416" y="659"/>
      <point x="370" y="659" type="curve" smooth="yes"/>
      <point x="324" y="659"/>
      <point x="297" y="634"/>
      <point x="297" y="588" type="curve" smooth="yes"/>
      <point x="297" y="546"/>
      <point x="324" y="520"/>
      <point x="370" y="520" type="curve" smooth="yes"/>
    </contour>
    <contour>
      <point x="341" y="693" type="line"/>
      <point x="436" y="832" type="line"/>
      <point x="357" y="847" type="line"/>
      <point x="287" y="787" type="line"/>
      <point x="280" y="787" type="line"/>
      <point x="207" y="847" type="line"/>
      <point x="130" y="832" type="line"/>
      <point x="226" y="693" type="line"/>
    </contour>
  </outline>
</glyph>
<glyph name="Aringacute" format="1">
  <advance width="651"/>
  <unicode hex="01FA"/>
  <note>
	Aringacute
  </note>
  <outline>
    <contour>
      <point x="194" y="57"/>
      <point x="209" y="114"/>
      <point x="223" y="168" type="curve"/>
      <point x="428" y="168" type="line"/>
      <point x="441" y="112"/>
      <point x="454" y="56"/>
      <point x="470" y="0" type="curve"/>
      <point x="626" y="9" type="line"/>
      <point x="573" y="211"/>
      <point x="500" y="445"/>
      <point x="432" y="620" type="curve"/>
      <point x="219" y="620" type="line"/>
      <point x="151" y="445"/>
      <point x="78" y="211"/>
      <point x="25" y="9" type="curve"/>
      <point x="181" y="0" type="line"/>
    </contour>
    <contour>
      <point x="279" y="370"/>
      <point x="299" y="432"/>
      <point x="318" y="485" type="curve"/>
      <point x="333" y="485" type="line"/>
      <point x="351" y="432"/>
      <point x="371" y="370"/>
      <point x="391" y="301" type="curve"/>
      <point x="259" y="301" type="line"/>
    </contour>
    <contour>
      <point x="409" y="665"/>
      <point x="466" y="710"/>
      <point x="466" y="781" type="curve" smooth="yes"/>
      <point x="466" y="845"/>
      <point x="424" y="893"/>
      <point x="341" y="893" type="curve" smooth="yes"/>
      <point x="230" y="893"/>
      <point x="184" y="834"/>
      <point x="184" y="772" type="curve" smooth="yes"/>
      <point x="184" y="712"/>
      <point x="223" y="665"/>
      <point x="309" y="665" type="curve" smooth="yes"/>
    </contour>
    <contour>
      <point x="300" y="749"/>
      <point x="289" y="762"/>
      <point x="289" y="778" type="curve" smooth="yes"/>
      <point x="289" y="789"/>
      <point x="290" y="795"/>
      <point x="293" y="805" type="curve"/>
      <point x="304" y="808"/>
      <point x="313" y="809"/>
      <point x="327" y="809" type="curve" smooth="yes"/>
      <point x="353" y="809"/>
      <point x="361" y="795"/>
      <point x="361" y="772" type="curve" smooth="yes"/>
      <point x="361" y="766"/>
      <point x="360" y="759"/>
      <point x="358" y="754" type="curve"/>
      <point x="346" y="750"/>
      <point x="339" y="749"/>
      <point x="324" y="749" type="curve" smooth="yes"/>
    </contour>
    <contour>
      <point x="509" y="1092" type="line"/>
      <point x="353" y="1108" type="line"/>
      <point x="271" y="943" type="line"/>
      <point x="375" y="923" type="line"/>
    </contour>
  </outline>
</glyph>
